<svg xmlns="http://www.w3.org/2000/svg" viewBox="0 0 1765.88 253.19"><title>Asset 10</title><g id="Layer_2" data-name="Layer 2"><g id="Layer_1-2" data-name="Layer 1"><path d="M0,242.08q13.71-.89,19.76-3.92,10.68-5.5,10.68-20.11V38.26q0-14.07-10.14-19.58Q14.42,15.46,0,14.22V5H111.44q67.45,0,102.89,36,32.22,32.74,32.22,87.93,0,49.5-32.4,83.85-36.5,38.63-99,38.63H0Zm93.55-8q3.63,5,15.57,5,32.41,0,53.23-22.89t20.83-87.84q0-38.63-11.22-66.4-18.17-44.68-61.23-44.68-14.25,0-18.51,6.05c-1.91,2.61-2.85,7.66-2.85,15.13V217.86Q89.9,229.09,93.55,234.07Z" style="fill:#171717"/><path d="M250.67,242.08q14.6-.71,20.66-4.1,10.14-5.68,10.14-21.54V39.86q0-15.39-9.08-20.87-5.52-3.18-21.72-4.77V5H374v9.25q-16,.88-22.25,4.24-10.32,5.66-10.32,21.4v75.66h86.86V39.86q0-15.73-9.79-21.22-6-3.36-22.6-4.42V5H520v9.25q-16,1.23-21.9,4.6-9.8,5.47-9.79,21V216.44q0,16,10.86,21.72,6.22,3.39,20.83,3.92v9.26H395.94v-9.26q15.66-.54,22.25-4.27,10.14-5.7,10.14-21.37v-84H341.47v84q0,16.2,11,21.9,6.4,3.21,21.54,3.74v9.26H250.67Z" style="fill:#171717"/><path d="M843.52,117.55h-25V5.07q23.9-.86,30-.85,24.58,0,39,14.41T902,56.85Q902,117.55,843.52,117.55Zm-5-95V99.34q4.85.47,10.45.46,15.13,0,23.7-11t8.57-30.73q0-36.11-33.57-36.1C845.53,22,842.47,22.15,838.53,22.51Z" style="fill:#0656a4"/><path d="M992.28,82.28H933.5q.54,9.84,6.76,15.29T957,103q13.14,0,20-6.84l7.44,14.67q-10.14,8.24-30.27,8.22-18.81,0-29.78-11T913.45,77.3q0-19.45,12-31.51a39.29,39.29,0,0,1,28.85-12.06q17.91,0,28.73,10.68t10.83,27.2A53.78,53.78,0,0,1,992.28,82.28ZM934.19,67.84h40.42q-2-18-20-18.06Q938.19,49.78,934.19,67.84Z" style="fill:#0656a4"/><path d="M1043.68,119.08h-6.92L999.58,35.26h21l19.67,50.25,21.13-50.25h20.36Z" style="fill:#0656a4"/><path d="M1166.31,82.28h-58.77q.53,9.84,6.76,15.29T1131,103q13.14,0,20-6.84l7.45,14.67q-10.14,8.24-30.26,8.22-18.84,0-29.78-11t-11-30.76q0-19.45,12-31.51a39.31,39.31,0,0,1,28.85-12.06q17.91,0,28.75,10.68t10.83,27.2A53.41,53.41,0,0,1,1166.31,82.28Zm-58.08-14.44h40.41q-2-18-20-18.06Q1112.2,49.78,1108.23,67.84Z" style="fill:#0656a4"/><path d="M1186.91,4.61,1206.12,0V92.5q0,15.23,9.06,18.14-4.46,8.44-15.21,8.44-13,0-13.06-18.12Z" style="fill:#0656a4"/><path d="M1225,76.21q0-18.81,10.87-30.65t28.7-11.83q18.75,0,29.12,11.37T1304,76.21q0,19.68-10.55,31.28t-28.93,11.59q-18.75,0-29.16-11.71T1225,76.21Zm20,0q0,27.21,19.59,27.2a16.79,16.79,0,0,0,14.24-7.07q5.27-7.07,5.28-20.13,0-26.8-19.52-26.81a16.94,16.94,0,0,0-14.29,7.07Q1244.92,63.54,1244.93,76.21Z" style="fill:#0656a4"/><path d="M1337.36,115.48v34.34h-19.21V35.26h19.21V40.8a24.35,24.35,0,0,1,17.74-7.07q39.35,0,39.35,43.33,0,20.2-10.89,31.11t-29.68,10.91A37.44,37.44,0,0,1,1337.36,115.48Zm0-60.09V98.65a18.84,18.84,0,0,0,12.22,4.23q13.29,0,19.09-6.35t5.8-20q0-14.59-5.77-20.55t-19-5.95A16.93,16.93,0,0,0,1337.36,55.39Z" style="fill:#0656a4"/><path d="M1416.81,117.55V51h-10.53V35.26h30v82.29Zm9.91-114.17a10.7,10.7,0,0,1,7.87,3.26,10.71,10.71,0,0,1,3.27,7.88,10.65,10.65,0,0,1-3.27,7.87,11.13,11.13,0,0,1-15.74,0,10.69,10.69,0,0,1-3.27-7.87,10.75,10.75,0,0,1,3.27-7.88A10.68,10.68,0,0,1,1426.72,3.38Z" style="fill:#0656a4"/><path d="M1511.85,117.55V70q0-10.53-4-15.37c-2.68-3.22-7.09-4.84-13.18-4.84a20.43,20.43,0,0,0-9,2.39,20.81,20.81,0,0,0-7.48,5.91v59.47h-19.21V35.26h13.82l3.54,7.69q7.83-9.23,23.13-9.22,14.67,0,23.16,8.8t8.49,24.54v50.48Z" style="fill:#0656a4"/><path d="M1546,138.68l12.14-15q10.08,9.23,22.43,9.23,8.31,0,13.69-2.46t5.37-6.77q0-7.29-11.91-7.3a88.69,88.69,0,0,0-9.61.77,88,88,0,0,1-9.59.77q-19.83,0-19.83-14.21a12.37,12.37,0,0,1,3.3-8,20.39,20.39,0,0,1,7.69-5.76q-14.07-9.15-14.07-25.89a28.06,28.06,0,0,1,9.69-21.86q9.69-8.65,23.82-8.65,11.07,0,18.52,4.15l7.52-8.75L1618.43,41l-9.14,6.68A30.31,30.31,0,0,1,1614,64.76q0,14.07-8.56,22.48t-21.62,8.42a54.6,54.6,0,0,1-5.54-.39l-3.14-.46a20.71,20.71,0,0,0-4.13,1.65q-3.55,1.65-3.56,3.42c0,2.05,1.76,3.07,5.3,3.07a47,47,0,0,0,8-1.15,48.71,48.71,0,0,1,9.6-1.15q28,0,28,22.51,0,12.45-11.22,19.55t-27,7.11A56.73,56.73,0,0,1,1546,138.68Zm19.21-74.53q0,7.3,4,11.72c2.7,2.94,6.31,4.41,10.87,4.41s8.07-1.43,10.53-4.29,3.69-6.82,3.69-11.84a15,15,0,0,0-4-10.53,13.36,13.36,0,0,0-10.27-4.29,14.21,14.21,0,0,0-14.9,14.82Z" style="fill:#0656a4"/><path d="M895.69,144.71l-8.22,16.52q-6.69-6.69-21.51-6.69-14.07,0-23.05,11.8t-9,29.85q0,18,8.34,28.65t22.24,10.61q15.9,0,24.89-11.37l9.29,16.13q-12.21,13-35.79,13t-36.65-15.52q-13.07-15.51-13.07-42.33,0-25,14.49-41.76t37.07-16.78Q884.1,136.8,895.69,144.71Z" style="fill:#0656a4"/><path d="M909.08,209.94q0-18.83,10.88-30.66t28.69-11.82q18.74,0,29.12,11.36t10.36,31.12q0,19.67-10.56,31.27t-28.92,11.6q-18.76,0-29.16-11.72T909.08,209.94Zm20,0q0,27.19,19.6,27.19a16.81,16.81,0,0,0,14.24-7.06q5.26-7.06,5.28-20.13,0-26.82-19.52-26.82a17,17,0,0,0-14.3,7.07Q929.06,197.27,929.05,209.94Z" style="fill:#0656a4"/><path d="M1058.8,251.27V203.72q0-10.53-4-15.37t-13.18-4.84a20.41,20.41,0,0,0-9,2.38,20.78,20.78,0,0,0-7.49,5.92v59.46h-19.2V169h13.82l3.53,7.68q7.85-9.22,23.13-9.21,14.69,0,23.17,8.79T1078,200.8v50.47Z" style="fill:#0656a4"/><path d="M1096,246l6.84-15.29a30.42,30.42,0,0,0,19.44,6.84q11.22,0,11.21-8a9.76,9.76,0,0,0-3.38-7.68q-3.37-3-13.13-7.07-21.29-8.84-21.29-24.74,0-10.68,8.15-16.63t20.82-5.95a52.27,52.27,0,0,1,24.13,5.76l-5.54,14.9c-4.19-3.59-10-5.38-17.51-5.38q-10.08,0-10.07,8,0,3.15,3.3,5.69t14.14,6.8q10.85,4.26,15.6,10.33a23.08,23.08,0,0,1,4.76,14.67q0,11.44-8.49,18t-23.08,6.57a51.8,51.8,0,0,1-13.18-1.35A64,64,0,0,1,1096,246Z" style="fill:#0656a4"/><path d="M1174.16,184.43h-9.53V169h9.53V152.24l19.2-7.07V169H1216v15.44h-22.6v36q0,8.85,2.77,12.49c1.85,2.43,5.06,3.65,9.68,3.65a23.79,23.79,0,0,0,12.9-3.77v17.68q-6.68,2.3-19,2.3t-18.9-6.95q-6.6-7-6.6-19.78Z" style="fill:#0656a4"/><path d="M1283.54,186.89a20.16,20.16,0,0,0-11.29-3.38q-6.69,0-11.87,6.07a22,22,0,0,0-5.19,14.83v46.86H1236V169h19.21v7.53q8.07-9.08,21.43-9.06,9.84,0,15.06,3Z" style="fill:#0656a4"/><path d="M1354.65,251.35v-6.91a34.89,34.89,0,0,1-11.21,5.91,40.38,40.38,0,0,1-13.14,2.46q-28.68,0-28.66-30.42V169h19.21v51.94q0,15.81,14.21,15.83a23.15,23.15,0,0,0,12.14-3.39q5.61-3.37,7.45-7.84V169h19.22v82.36Z" style="fill:#0656a4"/><path d="M1461.49,175.52l-8.21,14.37q-6.77-6.39-18.14-6.38-10.91,0-17.24,7.26t-6.34,20.09q0,25.89,24.66,25.9a27.89,27.89,0,0,0,18.83-7.08l7.07,15.14q-8.38,5.22-14.64,6.61a69.44,69.44,0,0,1-14.78,1.38q-19.07,0-30.09-11.1t-11-30.85q0-19.44,12.06-31.43t32.89-12Q1450.9,167.46,1461.49,175.52Z" style="fill:#0656a4"/><path d="M1482.76,184.43h-9.53V169h9.53V152.24l19.21-7.07V169h22.59v15.44H1502v36c0,5.9.93,10.06,2.76,12.49s5.08,3.65,9.68,3.65a23.86,23.86,0,0,0,12.92-3.77v17.68q-6.69,2.3-19.06,2.3t-18.91-6.95q-6.6-7-6.6-19.78Z" style="fill:#0656a4"/><path d="M1549.73,251.27V184.74h-10.52V169h30v82.28Zm9.92-114.17a11.15,11.15,0,1,1-7.88,3.27A10.69,10.69,0,0,1,1559.65,137.1Z" style="fill:#0656a4"/><path d="M1588.52,209.94q0-18.83,10.87-30.66t28.69-11.82q18.75,0,29.12,11.36t10.37,31.12q0,19.67-10.56,31.27t-28.93,11.6q-18.75,0-29.15-11.72T1588.52,209.94Zm20,0q0,27.19,19.59,27.19a16.83,16.83,0,0,0,14.25-7.06q5.26-7.06,5.27-20.13,0-26.82-19.52-26.82a16.91,16.91,0,0,0-14.28,7.07Q1608.49,197.27,1608.49,209.94Z" style="fill:#0656a4"/><path d="M1738.24,251.27V203.72q0-10.53-4-15.37T1721,183.51a20.37,20.37,0,0,0-9,2.38,20.9,20.9,0,0,0-7.5,5.92v59.46h-19.2V169h13.83l3.54,7.68q7.83-9.22,23.12-9.21,14.67,0,23.16,8.79t8.5,24.55v50.47Z" style="fill:#0656a4"/><path d="M1736,80.84c5-6.26,6.21-15.73,6.5-24.4h18c-.59,14.29-4.87,27.61-13.15,38.37l18.47,22.48h-25.42l-6.94-10c-7.24,8-17.89,11.88-28.08,11.88-20.4,0-36.81-11.56-36.81-32.59,0-13.48,5.32-23.27,21.73-30.82-8-8.18-14.34-14.13-14.34-27,0-17,16.85-25.52,31.34-25.52s29.7,7.22,29.7,25.36c0,15.41-8.72,22.64-20,29.7ZM1701,68c-6.81,3.85-12.57,9.15-12.57,18,0,9.8,7.83,16.53,17.44,16.53,6.94,0,13.45-1.92,18-6.73Zm18-37.4c0-7.87-5.46-11.56-11.38-11.56s-11.81,3.69-11.81,11.88c0,6.26,5.76,11.56,9.74,15.89C1710.75,43.92,1719,37.18,1719,30.6Z" style="fill:#0656a4"/><path d="M741.23,5H581.09A43.12,43.12,0,0,0,538,48.08V251.34H741.23a43.12,43.12,0,0,0,43.12-43.11V48.08h0A43.12,43.12,0,0,0,741.23,5ZM657.79,36.21a2,2,0,0,1-.08.22c-.31.94-.6,1.78-.83,2.47a158.34,158.34,0,0,0-5.76,21.31l-.12.7c-.56,3.2-1.5,8.56,1.42,12.28a8.32,8.32,0,0,0,6.25,3.15,8.75,8.75,0,0,0,4.35-1,5.9,5.9,0,0,1,1-.42,6.92,6.92,0,0,1,7.45,3c2.17,3.14,2.48,8,.7,11-1.42,2.38-4,3.37-7.68,3a16.43,16.43,0,0,1-2.3-.45c-2.31-.58-6.62-1.65-10,3.49-2.77,4.22-1.31,10-.15,14.63.21.81.4,1.56.54,2.23,1.12,5.32,2.55,11,4.24,16.94L652.73,130c-4.9,1.58-10,3.22-13.54,3.65-.39.06-.75.09-1.06.12a21.29,21.29,0,0,0,.43-9.46c-1.84-8.73-9.81-14.33-19.85-13.89s-17.56,6.52-18.57,14.81a19.5,19.5,0,0,0,.76,7.23c.16.63.38,1.51.46,2.09-2.36.44-8.79-1.42-12-2.36v-7.28H556.48ZM657.12,207c-.67,2.32-1.24,4.31-1.63,5.94H589.35V142a43.27,43.27,0,0,0,11.12,2c3.14,0,5.92-.77,8-2.92,3.43-3.6,2.35-8,1.63-10.89a12.17,12.17,0,0,1-.56-3.83c.52-4.21,5.34-6.33,9.61-6.51,1.46-.07,8.84-.06,10.2,6.4a13.47,13.47,0,0,1-.5,5.84c-.58,2.52-1.39,6,1.08,8.72s6.49,2.7,10.45,2.21c4.47-.56,10-2.33,15.28-4,1.24-.4,2.43-.79,3.59-1.15,1.67,7.9,2.1,12.78,1.28,14.52-.15,0-.36,0-.64-.11-8.14-2-19.44-2.89-23.6,12.28-1.79,6.54-.53,13.12,3.38,17.6,3.78,4.33,9.53,6.23,16.16,5.35a26.52,26.52,0,0,0,3.51-.77c.5-.13,1.19-.31,1.66-.39C662.13,189.8,658.52,202.24,657.12,207ZM732.78,213H665.25c.28-1,.59-2.08.94-3.31,4.18-14.39,6.89-25.79.84-30.84-3.63-3-7.56-2-10.16-1.27a22.45,22.45,0,0,1-2.31.52c-2.41.31-5.72.2-7.81-2.2-1.82-2.09-2.34-5.41-1.39-8.89,1.51-5.49,3.21-7.83,12.26-5.62,4.81,1.18,7.76-.5,9.4-2.11,4.7-4.64,3.54-13.83,1.31-24l1.83-.52c3.18-.94,10.38-3,12.88-2.53a6.5,6.5,0,0,1-.18,1.23c-1.66,7.36-.12,14.26,4.2,18.93a16.9,16.9,0,0,0,12.58,5.33,20.38,20.38,0,0,0,2.89-.21A17.55,17.55,0,0,0,717.37,143a18.17,18.17,0,0,0-.53-8.24,9.91,9.91,0,0,1-.44-2.56,2.11,2.11,0,0,1,.08-.6c2.16-1.33,11.47,1.47,16.3,3Zm.4-88.11c-8.29-2.56-16.93-4.61-22.19-.91a9.6,9.6,0,0,0-4,7.93,17.46,17.46,0,0,0,.72,5.2,9.34,9.34,0,0,1,.41,4.25,8.15,8.15,0,0,1-6.93,6.81A7.73,7.73,0,0,1,694,146c-2.19-2.35-2.89-6.16-1.92-10.43,1.23-5.47-.57-8.56-2.29-10.18-5-4.69-14.17-2-22.27.32-.52.16-1,.3-1.53.44-1.63-5.73-3-11.24-4.1-16.36-.16-.78-.39-1.66-.62-2.6a30.85,30.85,0,0,1-1.17-6.61,27.57,27.57,0,0,0,3.42.64c7.35.79,13.47-2,16.8-7.54,3.7-6.2,3.27-14.91-1-21.14a16.26,16.26,0,0,0-16.86-6.9,11.28,11.28,0,0,0-2.6.8,30.63,30.63,0,0,1,.47-3.86l.14-.79A148,148,0,0,1,665.82,42c.24-.75.52-1.58.83-2.49.14-.4.29-.85.43-1.27l31.06,27.24V41.92h27.1V89.21l40.65,35.66Z" style="fill:#0656a4"/></g></g></svg>