<?xml version="1.0" encoding="utf-8"?>
<!-- Generator: Adobe Illustrator 23.0.4, SVG Export Plug-In . SVG Version: 6.00 Build 0)  -->
<svg version="1.1" id="Layer_1" xmlns="http://www.w3.org/2000/svg" xmlns:xlink="http://www.w3.org/1999/xlink" x="0px" y="0px"
	 viewBox="0 0 1765.8 283.4" style="enable-background:new 0 0 1765.8 283.4;" xml:space="preserve">
<style type="text/css">
	.st0{fill:none;}
	.st1{fill:#171717;}
	.st2{fill:#0656A4;}
</style>
<title>dveloping-sized</title>
<g>
	<g id="Layer_1-2">
		<path class="st1" d="M0,242.1c9.1-0.6,15.7-1.9,19.8-3.9c7.1-3.7,10.7-10.4,10.7-20.1V38.3c0-9.4-3.4-15.9-10.1-19.6
			C16.4,16.5,9.6,15,0,14.2V5h111.4c45,0,79.3,12,102.9,36c21.5,21.8,32.2,51.1,32.2,87.9c0,33-10.8,61-32.4,83.9
			c-24.3,25.8-57.3,38.6-99,38.6H0V242.1z M93.6,234.1c2.4,3.3,7.6,5,15.6,5c21.6,0,39.3-7.6,53.2-22.9
			c13.9-15.3,20.8-44.5,20.8-87.8c0-25.8-3.7-47.9-11.2-66.4c-12.1-29.8-32.5-44.7-61.2-44.7c-9.5,0-15.7,2-18.5,6
			c-1.9,2.6-2.8,7.7-2.8,15.1v179.4C89.7,225.3,91.1,230.8,93.6,234.1L93.6,234.1z"/>
		<path class="st1" d="M250.7,242.1c9.7-0.5,16.6-1.8,20.7-4.1c6.8-3.8,10.1-11,10.1-21.5V39.9c0-10.3-3-17.2-9.1-20.9
			c-3.7-2.1-10.9-3.7-21.7-4.8V5H374v9.2c-10.7,0.6-18.1,2-22.2,4.2c-6.9,3.8-10.3,10.9-10.3,21.4v75.7h86.9V39.9
			c0-10.5-3.3-17.6-9.8-21.2c-4-2.2-11.5-3.7-22.6-4.4V5H520v9.2c-10.7,0.8-18,2.4-21.9,4.6c-6.5,3.6-9.8,10.6-9.8,21v176.6
			c0,10.7,3.6,17.9,10.9,21.7c4.1,2.3,11.1,3.6,20.8,3.9v9.3H395.9v-9.3c10.4-0.4,17.9-1.8,22.2-4.3c6.8-3.8,10.1-10.9,10.1-21.4
			v-84h-86.9v84c0,10.8,3.7,18.1,11,21.9c4.3,2.1,11.4,3.4,21.5,3.7v9.3H250.7V242.1z"/>
		<path class="st2" d="M843.5,117.6h-25V5.1c15.9-0.6,25.9-0.9,30-0.8c16.4,0,29.4,4.8,39,14.4S902,41,902,56.8
			C902,97.3,882.5,117.6,843.5,117.6z M838.5,22.6v76.8c3.2,0.3,6.7,0.5,10.5,0.5c10.1,0,18-3.7,23.7-11c5.7-7.3,8.6-17.6,8.6-30.7
			c0-24.1-11.2-36.1-33.6-36.1C845.5,22,842.5,22.1,838.5,22.6L838.5,22.6z"/>
		<path class="st2" d="M992.3,82.3h-58.8c0.4,6.6,2.6,11.7,6.8,15.3c4.1,3.6,9.7,5.4,16.7,5.4c8.8,0,15.4-2.3,20-6.8l7.4,14.7
			c-6.8,5.5-16.8,8.2-30.3,8.2c-12.5,0-22.5-3.7-29.8-11c-7.3-7.3-11-17.6-10.9-30.8c0-13,4-23.5,12-31.5c7.5-7.8,18-12.2,28.8-12.1
			c11.9,0,21.5,3.6,28.7,10.7c7.2,7.1,10.8,16.2,10.8,27.2C993.7,75.2,993.2,78.8,992.3,82.3z M934.2,67.8h40.4
			c-1.3-12-8-18-20-18.1C943.7,49.8,936.9,55.8,934.2,67.8z"/>
		<path class="st2" d="M1043.7,119.1h-6.9l-37.2-83.8h21l19.7,50.2l21.1-50.2h20.4L1043.7,119.1z"/>
		<path class="st2" d="M1166.3,82.3h-58.8c0.4,6.6,2.6,11.7,6.8,15.3c4.2,3.6,9.7,5.4,16.7,5.4c8.8,0,15.4-2.3,20-6.8l7.4,14.7
			c-6.8,5.5-16.8,8.2-30.3,8.2c-12.6,0-22.5-3.7-29.8-11c-7.3-7.3-11-17.6-11-30.8c0-13,4-23.5,12-31.5c7.5-7.8,18-12.2,28.8-12.1
			c11.9,0,21.5,3.6,28.8,10.7c7.2,7.1,10.8,16.2,10.8,27.2C1167.7,75.2,1167.2,78.8,1166.3,82.3z M1108.2,67.8h40.4
			c-1.3-12-8-18-20-18.1C1117.7,49.8,1110.9,55.8,1108.2,67.8L1108.2,67.8z"/>
		<path class="st2" d="M1186.9,4.6l19.2-4.6v92.5c0,10.2,3,16.2,9.1,18.1c-3,5.6-8,8.4-15.2,8.4c-8.7,0-13-6-13.1-18.1V4.6z"/>
		<path class="st2" d="M1225,76.2c0-12.5,3.6-22.8,10.9-30.7c7.2-7.9,16.8-11.8,28.7-11.8c12.5,0,22.2,3.8,29.1,11.4
			s10.3,18,10.3,31.1c0,13.1-3.5,23.5-10.6,31.3s-16.7,11.6-28.9,11.6c-12.5,0-22.2-3.9-29.2-11.7S1225,89.2,1225,76.2z M1245,76.2
			c0,18.1,6.5,27.2,19.6,27.2c5.6,0.2,11-2.5,14.2-7.1c3.5-4.7,5.3-11.4,5.3-20.1c0-17.9-6.5-26.8-19.5-26.8
			c-5.6-0.2-11,2.5-14.3,7.1C1246.7,61.2,1244.9,67.8,1245,76.2L1245,76.2z"/>
		<path class="st2" d="M1337.4,115.5v34.3h-19.2V35.3h19.2v5.5c4.7-4.7,11.1-7.2,17.7-7.1c26.2,0,39.3,14.4,39.3,43.3
			c0,13.5-3.6,23.8-10.9,31.1c-7.3,7.3-17.2,10.9-29.7,10.9C1348.2,119.2,1342.5,117.9,1337.4,115.5z M1337.4,55.4v43.3
			c3.4,2.8,7.8,4.3,12.2,4.2c8.9,0,15.2-2.1,19.1-6.3c3.9-4.2,5.8-10.9,5.8-20c0-9.7-1.9-16.6-5.8-20.5c-3.8-4-10.2-6-19-6
			C1345,50,1340.6,52,1337.4,55.4z"/>
		<path class="st2" d="M1416.8,117.6V51h-10.5V35.3h30v82.3H1416.8z M1426.7,3.4c3,0,5.8,1.1,7.9,3.3c2.1,2.1,3.3,4.9,3.3,7.9
			c0.1,3-1.1,5.8-3.3,7.9c-4.3,4.3-11.4,4.3-15.7,0c-2.1-2.1-3.3-4.9-3.3-7.9c0-3,1.1-5.8,3.3-7.9C1420.9,4.5,1423.8,3.3,1426.7,3.4
			L1426.7,3.4z"/>
		<path class="st2" d="M1511.8,117.6V70c0-7-1.3-12.1-4-15.4c-2.7-3.2-7.1-4.8-13.2-4.8c-3.1,0.1-6.2,0.9-9,2.4
			c-2.9,1.4-5.5,3.4-7.5,5.9v59.5H1459V35.3h13.8l3.5,7.7c5.2-6.2,12.9-9.2,23.1-9.2c9.8,0,17.5,2.9,23.2,8.8
			c5.7,5.9,8.5,14,8.5,24.5v50.5L1511.8,117.6z"/>
		<path class="st2" d="M1546,138.7l12.1-15c6.7,6.2,14.2,9.2,22.4,9.2c5.5,0,10.1-0.8,13.7-2.5c3.6-1.6,5.4-3.9,5.4-6.8
			c0-4.9-4-7.3-11.9-7.3c-3.2,0.1-6.4,0.3-9.6,0.8c-3.2,0.4-6.4,0.7-9.6,0.8c-13.2,0-19.8-4.7-19.8-14.2c0.1-3,1.3-5.8,3.3-8
			c2.1-2.5,4.7-4.5,7.7-5.8c-9.4-6.1-14.1-14.7-14.1-25.9c-0.2-8.4,3.4-16.4,9.7-21.9c6.5-5.8,14.4-8.7,23.8-8.7
			c7.4,0,13.6,1.4,18.5,4.2l7.5-8.8l13.3,12.1l-9.1,6.7c3.2,5.1,4.9,11,4.7,17.1c0,9.4-2.9,16.9-8.6,22.5
			c-5.7,5.6-12.9,8.4-21.6,8.4c-1.9,0-3.7-0.2-5.5-0.4l-3.1-0.5c-1.4,0.4-2.8,1-4.1,1.7c-2.4,1.1-3.6,2.2-3.6,3.4
			c0,2.1,1.8,3.1,5.3,3.1c2.7-0.2,5.4-0.5,8-1.2c3.2-0.7,6.4-1.1,9.6-1.2c18.7,0,28,7.5,28,22.5c0,8.3-3.7,14.8-11.2,19.6
			s-16.5,7.1-27,7.1C1567.8,149.9,1555.9,146,1546,138.7z M1565.2,64.1c0,4.9,1.3,8.8,4,11.7c2.7,2.9,6.3,4.4,10.9,4.4
			s8.1-1.4,10.5-4.3s3.7-6.8,3.7-11.8c0.1-3.9-1.3-7.7-4-10.5c-2.6-2.9-6.4-4.4-10.3-4.3c-7.8-0.4-14.5,5.7-14.9,13.5
			C1565.1,63.3,1565.1,63.7,1565.2,64.1L1565.2,64.1z"/>
		<path class="st2" d="M895.7,144.7l-8.2,16.5c-4.5-4.5-11.6-6.7-21.5-6.7c-9.4,0-17.1,3.9-23,11.8c-6,7.9-9,17.8-9,29.9
			c0,12,2.8,21.5,8.3,28.6c5.6,7.1,13,10.6,22.2,10.6c10.6,0,18.9-3.8,24.9-11.4l9.3,16.1c-8.1,8.7-20.1,13-35.8,13
			s-27.9-5.2-36.7-15.5c-8.7-10.3-13.1-24.4-13.1-42.3c0-16.7,4.8-30.6,14.5-41.8c9.7-11.2,22-16.8,37.1-16.8
			C877.6,136.8,888,139.4,895.7,144.7z"/>
		<path class="st2" d="M909.1,209.9c0-12.6,3.6-22.8,10.9-30.7c7.3-7.9,16.8-11.8,28.7-11.8c12.5,0,22.2,3.8,29.1,11.4
			s10.4,17.9,10.4,31.1c0,13.1-3.5,23.5-10.6,31.3c-7,7.7-16.7,11.6-28.9,11.6c-12.5,0-22.2-3.9-29.2-11.7
			C912.6,233.3,909.1,222.9,909.1,209.9z M929.1,209.9c0,18.1,6.5,27.2,19.6,27.2c5.6,0.2,11-2.5,14.2-7.1
			c3.5-4.7,5.3-11.4,5.3-20.1c0-17.9-6.5-26.8-19.5-26.8c-5.6-0.2-11,2.5-14.3,7.1C930.8,194.9,929.1,201.5,929.1,209.9L929.1,209.9
			z"/>
		<path class="st2" d="M1058.8,251.3v-47.6c0-7-1.3-12.1-4-15.4c-2.7-3.2-7.1-4.8-13.2-4.8c-3.1,0.1-6.2,0.9-9,2.4
			c-2.9,1.4-5.5,3.4-7.5,5.9v59.5h-19.2V169h13.8l3.5,7.7c5.2-6.1,12.9-9.2,23.1-9.2c9.8,0,17.5,2.9,23.2,8.8s8.5,14,8.4,24.5v50.5
			H1058.8z"/>
		<path class="st2" d="M1096,246l6.8-15.3c5.5,4.5,12.4,6.9,19.4,6.8c7.5,0,11.2-2.7,11.2-8c0.1-2.9-1.2-5.8-3.4-7.7
			c-2.2-2-6.6-4.4-13.1-7.1c-14.2-5.9-21.3-14.1-21.3-24.7c0-7.1,2.7-12.7,8.2-16.6s12.4-6,20.8-5.9c8.4,0,16.7,1.9,24.1,5.8
			l-5.5,14.9c-4.2-3.6-10-5.4-17.5-5.4c-6.7,0-10.1,2.7-10.1,8c0,2.1,1.1,4,3.3,5.7c2.2,1.7,6.9,4,14.1,6.8
			c7.2,2.8,12.4,6.3,15.6,10.3c3.2,4.2,4.9,9.4,4.8,14.7c0,7.6-2.8,13.6-8.5,18c-5.7,4.4-13.4,6.6-23.1,6.6
			c-4.4,0.1-8.9-0.3-13.2-1.4C1104.3,250.1,1100,248.3,1096,246z"/>
		<path class="st2" d="M1174.2,184.4h-9.5V169h9.5v-16.8l19.2-7.1V169h22.6v15.4h-22.6v36c0,5.9,0.9,10.1,2.8,12.5
			c1.8,2.4,5.1,3.6,9.7,3.6c4.6,0,9.1-1.3,12.9-3.8v17.7c-4.5,1.5-10.8,2.3-19,2.3c-8.2,0-14.5-2.3-18.9-6.9
			c-4.4-4.7-6.6-11.3-6.6-19.8L1174.2,184.4z"/>
		<path class="st2" d="M1283.5,186.9c-3.3-2.2-7.3-3.4-11.3-3.4c-4.5,0-8.4,2-11.9,6.1c-3.5,4.1-5.3,9.4-5.2,14.8v46.9H1236V169
			h19.2v7.5c5.4-6.1,12.5-9.1,21.4-9.1c6.6,0,11.6,1,15.1,3L1283.5,186.9z"/>
		<path class="st2" d="M1354.7,251.4v-6.9c-3.3,2.6-7.1,4.6-11.2,5.9c-4.2,1.5-8.7,2.4-13.1,2.5c-19.1,0-28.7-10.1-28.7-30.4V169
			h19.2v51.9c0,10.5,4.7,15.8,14.2,15.8c4.3,0,8.5-1.2,12.1-3.4c3.7-2.2,6.2-4.9,7.4-7.8V169h19.2v82.4L1354.7,251.4z"/>
		<path class="st2" d="M1461.5,175.5l-8.2,14.4c-4.5-4.3-10.6-6.4-18.1-6.4c-7.3,0-13,2.4-17.2,7.3s-6.3,11.5-6.3,20.1
			c0,17.3,8.2,25.9,24.7,25.9c6.9,0.1,13.7-2.5,18.8-7.1l7.1,15.1c-5.6,3.5-10.5,5.7-14.6,6.6c-4.9,1-9.8,1.4-14.8,1.4
			c-12.7,0-22.7-3.7-30.1-11.1c-7.3-7.4-11-17.7-11-30.9c0-13,4-23.4,12.1-31.4s19-12,32.9-12
			C1446.1,167.4,1454.4,170.1,1461.5,175.5z"/>
		<path class="st2" d="M1482.8,184.4h-9.5V169h9.5v-16.8l19.2-7.1V169h22.6v15.4H1502v36c0,5.9,0.9,10.1,2.8,12.5s5.1,3.6,9.7,3.6
			c4.6,0,9.1-1.3,12.9-3.8v17.7c-4.5,1.5-10.8,2.3-19.1,2.3c-8.2,0-14.6-2.3-18.9-6.9c-4.4-4.7-6.6-11.3-6.6-19.8L1482.8,184.4z"/>
		<path class="st2" d="M1549.7,251.3v-66.5h-10.5V169h30v82.3L1549.7,251.3z M1559.7,137.1c6.2,0,11.2,5,11.2,11.1
			c0,6.2-5,11.2-11.1,11.2s-11.2-5-11.2-11.1c0-3,1.2-5.8,3.3-7.9C1553.8,138.2,1556.7,137,1559.7,137.1z"/>
		<path class="st2" d="M1588.5,209.9c0-12.6,3.6-22.8,10.9-30.7c7.2-7.9,16.8-11.8,28.7-11.8c12.5,0,22.2,3.8,29.1,11.4
			s10.4,17.9,10.4,31.1c0,13.1-3.5,23.5-10.6,31.3c-7,7.7-16.7,11.6-28.9,11.6c-12.5,0-22.2-3.9-29.2-11.7
			C1592,233.3,1588.5,222.9,1588.5,209.9z M1608.5,209.9c0,18.1,6.5,27.2,19.6,27.2c5.6,0.2,11-2.5,14.2-7.1
			c3.5-4.7,5.3-11.4,5.3-20.1c0-17.9-6.5-26.8-19.5-26.8c-5.6-0.2-11,2.5-14.3,7.1C1610.3,194.9,1608.5,201.5,1608.5,209.9
			L1608.5,209.9z"/>
		<path class="st2" d="M1738.2,251.3v-47.6c0-7-1.3-12.1-4-15.4c-2.7-3.2-7.1-4.8-13.2-4.8c-3.1,0.1-6.2,0.9-9,2.4
			c-2.9,1.4-5.5,3.4-7.5,5.9v59.5h-19.2V169h13.8l3.5,7.7c5.2-6.1,12.9-9.2,23.1-9.2c9.8,0,17.5,2.9,23.2,8.8
			c5.7,5.9,8.5,14,8.5,24.6v50.5L1738.2,251.3z"/>
		<path class="st2" d="M1736,80.8c5-6.3,6.2-15.7,6.5-24.4h18c-0.6,14.3-4.9,27.6-13.2,38.4l18.5,22.5h-25.4l-6.9-10
			c-7.2,8-17.9,11.9-28.1,11.9c-20.4,0-36.8-11.6-36.8-32.6c0-13.5,5.3-23.3,21.7-30.8c-8-8.2-14.3-14.1-14.3-27
			c0-17,16.8-25.5,31.3-25.5s29.7,7.2,29.7,25.4c0,15.4-8.7,22.6-20,29.7L1736,80.8z M1701,68c-6.8,3.8-12.6,9.2-12.6,18
			c0,9.8,7.8,16.5,17.4,16.5c6.9,0,13.4-1.9,18-6.7L1701,68z M1719,30.6c0-7.9-5.5-11.6-11.4-11.6s-11.8,3.7-11.8,11.9
			c0,6.3,5.8,11.6,9.7,15.9C1710.8,43.9,1719,37.2,1719,30.6z"/>
		<path class="st2" d="M741.2,5H581.1C557.3,5,538,24.3,538,48.1v203.3h203.2c23.8,0,43.1-19.3,43.1-43.1V48.1l0,0
			C784.3,24.3,765,5,741.2,5z M657.8,36.2c0,0.1,0,0.1-0.1,0.2c-0.3,0.9-0.6,1.8-0.8,2.5c-2.4,7-4.3,14.1-5.8,21.3l-0.1,0.7
			c-0.6,3.2-1.5,8.6,1.4,12.3c1.5,1.9,3.8,3.1,6.2,3.2c1.5,0,3-0.3,4.3-1c0.3-0.2,0.7-0.3,1-0.4c2.9-0.7,5.9,0.5,7.5,3
			c2.2,3.1,2.5,8,0.7,11c-1.4,2.4-4,3.4-7.7,3c-0.8-0.1-1.5-0.2-2.3-0.4c-2.3-0.6-6.6-1.7-10,3.5c-2.8,4.2-1.3,10-0.2,14.6
			c0.2,0.8,0.4,1.6,0.5,2.2c1.1,5.3,2.5,11,4.2,16.9l-4.1,1.2c-4.9,1.6-10,3.2-13.5,3.6c-0.4,0.1-0.8,0.1-1.1,0.1
			c0.9-3.1,1-6.3,0.4-9.5c-1.8-8.7-9.8-14.3-19.8-13.9s-17.6,6.5-18.6,14.8c-0.2,2.4,0.1,4.9,0.8,7.2c0.2,0.6,0.4,1.5,0.5,2.1
			c-2.4,0.4-8.8-1.4-12-2.4v-7.3h-32.9L657.8,36.2z M657.1,207c-0.7,2.3-1.2,4.3-1.6,5.9h-66.1V142c3.6,1.1,7.3,1.8,11.1,2
			c3.1,0,5.9-0.8,8-2.9c3.4-3.6,2.3-8,1.6-10.9c-0.4-1.2-0.6-2.5-0.6-3.8c0.5-4.2,5.3-6.3,9.6-6.5c1.5-0.1,8.8-0.1,10.2,6.4
			c0.3,2,0.1,4-0.5,5.8c-0.6,2.5-1.4,6,1.1,8.7s6.5,2.7,10.5,2.2c4.5-0.6,10-2.3,15.3-4c1.2-0.4,2.4-0.8,3.6-1.1
			c1.7,7.9,2.1,12.8,1.3,14.5c-0.2,0-0.4,0-0.6-0.1c-8.1-2-19.4-2.9-23.6,12.3c-1.8,6.5-0.5,13.1,3.4,17.6c3.8,4.3,9.5,6.2,16.2,5.4
			c1.2-0.2,2.4-0.4,3.5-0.8c0.5-0.1,1.2-0.3,1.7-0.4C662.1,189.8,658.5,202.2,657.1,207z M732.8,213h-67.5c0.3-1,0.6-2.1,0.9-3.3
			c4.2-14.4,6.9-25.8,0.8-30.8c-3.6-3-7.6-2-10.2-1.3c-0.8,0.2-1.5,0.4-2.3,0.5c-2.4,0.3-5.7,0.2-7.8-2.2c-1.8-2.1-2.3-5.4-1.4-8.9
			c1.5-5.5,3.2-7.8,12.3-5.6c4.8,1.2,7.8-0.5,9.4-2.1c4.7-4.6,3.5-13.8,1.3-24l1.8-0.5c3.2-0.9,10.4-3,12.9-2.5
			c0,0.4-0.1,0.8-0.2,1.2c-1.7,7.4-0.1,14.3,4.2,18.9c3.3,3.5,7.8,5.4,12.6,5.3c1,0,1.9-0.1,2.9-0.2c7.6-1.1,13.6-7,14.8-14.5
			c0.5-2.8,0.3-5.6-0.5-8.2c-0.3-0.8-0.4-1.7-0.4-2.6c0-0.2,0-0.4,0.1-0.6c2.2-1.3,11.5,1.5,16.3,3L732.8,213z M733.2,124.9
			c-8.3-2.6-16.9-4.6-22.2-0.9c-2.5,1.8-4,4.8-4,7.9c0,1.8,0.2,3.5,0.7,5.2c0.5,1.4,0.6,2.8,0.4,4.2c-0.6,3.5-3.4,6.3-6.9,6.8
			c-2.6,0.6-5.3-0.3-7.2-2.2c-2.2-2.4-2.9-6.2-1.9-10.4c1.2-5.5-0.6-8.6-2.3-10.2c-5-4.7-14.2-2-22.3,0.3c-0.5,0.2-1,0.3-1.5,0.4
			c-1.6-5.7-3-11.2-4.1-16.4c-0.2-0.8-0.4-1.7-0.6-2.6c-0.6-2.2-1-4.4-1.2-6.6c1.1,0.3,2.3,0.5,3.4,0.6c7.3,0.8,13.5-2,16.8-7.5
			c3.7-6.2,3.3-14.9-1-21.1c-3.7-5.5-10.4-8.3-16.9-6.9c-0.9,0.2-1.8,0.4-2.6,0.8c0.1-1.3,0.2-2.6,0.5-3.9l0.1-0.8
			c1.3-6.7,3.1-13.3,5.3-19.8c0.2-0.8,0.5-1.6,0.8-2.5c0.1-0.4,0.3-0.8,0.4-1.3l31.1,27.2V41.9h27.1v47.3l40.7,35.7L733.2,124.9z"/>
	</g>
</g>
</svg>
