<svg xmlns="http://www.w3.org/2000/svg" viewBox="0 0 1765.82 283.38">
  <defs>
    <style>
      .a {
        fill: none;
      }

      .b {
        fill: #fdb913;
      }

      .c {
        fill: #060000;
      }
    </style>
  </defs>
  <title>finance-sized</title>
  <g>
    <polygon class="b" points="841.22 152.62 841.22 179.07 880.94 179.07 880.94 196.12 841.22 196.12 841.22 247.8 821.17 247.8 821.17 134.81 895.6 134.81 895.6 152.62 841.22 152.62"/>
    <path class="b" d="M921.77,133.18a11.2,11.2,0,1,1-7.91,3.28,10.75,10.75,0,0,1,7.91-3.28M911.82,247.8V181H901.26V165.19h30.08V247.8Z"/>
    <path class="b" d="M1009.29,247.8V200.06q0-10.58-4-15.43T992,179.77a20.65,20.65,0,0,0-9.06,2.39,20.88,20.88,0,0,0-7.53,5.94v59.7H956.15V165.19H970l3.54,7.72q7.86-9.25,23.22-9.26,14.73,0,23.25,8.84t8.52,24.64V247.8Z"/>
    <path class="b" d="M1095.89,208.93a41,41,0,0,0-7.41-1q-22.83,0-22.83,15,0,11.12,12.88,11.11,17.37,0,17.36-17.35Zm1.85,30.61q-2.62,4.32-9.15,7.06a34.56,34.56,0,0,1-13.61,2.75q-13.34,0-21-6.68t-7.64-18.93q0-14.36,10.75-22.45t30.59-8.1a33.81,33.81,0,0,1,8,1.15q0-14.57-18.43-14.57c-7.25,0-13.33,1.2-18.2,3.62l-4.18-15q10-4.77,23.69-4.78,18.9,0,27.68,8.6t8.8,32.58V222.5q0,16.51,6.63,20.75c-1.59,2.77-3.37,4.48-5.32,5.13a21.47,21.47,0,0,1-6.7,1,10.73,10.73,0,0,1-7.49-3.09,15.71,15.71,0,0,1-4.47-6.72"/>
    <path class="b" d="M1191.43,247.8V200.06q0-10.58-4-15.43t-13.23-4.86a20.65,20.65,0,0,0-9.06,2.39,20.88,20.88,0,0,0-7.53,5.94v59.7h-19.27V165.19h13.87l3.56,7.72q7.86-9.25,23.21-9.26,14.74,0,23.26,8.84t8.52,24.64V247.8Z"/>
    <path class="b" d="M1298.7,171.75l-8.26,14.43q-6.78-6.42-18.2-6.41-11,0-17.31,7.29t-6.37,20.17q0,26,24.76,26a28,28,0,0,0,18.9-7.1l7.09,15.2q-8.4,5.25-14.69,6.63a69.2,69.2,0,0,1-14.85,1.39q-19.12,0-30.2-11.15t-11.06-31q0-19.51,12.1-31.55t33-12a40.24,40.24,0,0,1,25.08,8.1"/>
    <path class="b" d="M1328.58,197.9h40.58q-2-18.14-20.06-18.12-16.5,0-20.52,18.12m58.32,14.5h-59q.54,9.87,6.79,15.34t16.82,5.48q13.18,0,20-6.87l7.48,14.74q-10.18,8.25-30.39,8.25-18.9,0-29.89-11.07t-11-30.89q0-19.5,12.07-31.63a39.41,39.41,0,0,1,29-12.1q18,0,28.85,10.72t10.88,27.3a54,54,0,0,1-1.62,10.73"/>
    <path class="c" d="M94.08,230.42q3.67,5,15.68,5,32.58,0,53.53-23t20.94-88.34q0-38.86-11.28-66.79Q154.7,12.37,111.37,12.36q-14.33,0-18.63,6.08-2.86,3.94-2.85,15.22V214.13c.35,7.54,1.74,13,4.19,16.29M0,238.48q13.79-.9,19.88-3.93Q30.62,229,30.62,214.31V33.49q0-14.15-10.21-19.7Q14.52,10.57,0,9.31V0H112.09q67.85,0,103.48,36.17Q248,69.11,248,124.61q0,49.77-32.59,84.34-36.71,38.84-99.55,38.85H0Z"/>
    <path class="c" d="M252.12,238.48q14.69-.71,20.77-4.11,10.2-5.73,10.21-21.67V35.09q0-15.47-9.14-21-5.55-3.21-21.84-4.8V0H376.19V9.31q-16.11.88-22.37,4.27-10.4,5.69-10.39,21.51v76.09H430.8V35.09q0-15.83-9.84-21.34c-4-2.24-11.63-3.74-22.74-4.44V0H523V9.31q-16.12,1.23-22,4.63-9.84,5.51-9.85,21.15V212.7q0,16.11,10.93,21.85,6.27,3.4,20.95,3.93v9.32H398.22v-9.32Q414,238,420.6,234.19q10.22-5.74,10.2-21.49V128.18H343.43V212.7q0,16.29,11.1,22c4.3,2.15,11.52,3.42,21.66,3.76v9.32H252.12Z"/>
    <path class="b" d="M747.65,0H582.45a41.3,41.3,0,0,0-41.3,41.29v206.5h206.5A41.3,41.3,0,0,0,789,206.54h0V41.29A41.3,41.3,0,0,0,747.69,0h0ZM604.87,168.06A103.08,103.08,0,0,1,648.51,29a106,106,0,0,1,9.94-4.54l50,40.18a81.33,81.33,0,0,0-.15,158.11A103,103,0,0,1,604.87,168.06Zm52.48-24.39a70.15,70.15,0,0,1,33.18-59.59l33.64,33.72a52.89,52.89,0,0,0-8.45,95A70.27,70.27,0,0,1,657.35,143.67Zm58.1,42.55a27.51,27.51,0,0,0,5.88,17A41.72,41.72,0,0,1,714,137.07l18.73,23.34A28.4,28.4,0,0,0,715.45,186.22Z"/>
  </g>
</svg>
