<svg xmlns="http://www.w3.org/2000/svg" viewBox="0 0 1765.82 283.38">
  <defs>
    <style>
      .a {
        fill: none;
      }

      .b {
        fill: #231f20;
      }

      .c {
        fill: #8dc63f;
      }
    </style>
  </defs>
  <title>landscape-sized</title>
  <g>
    <path class="b" d="M93.79,234.69q3.66,5,15.62,5,32.49,0,53.37-22.95t20.88-88.07q0-38.73-11.25-66.58Q154.22,17.31,111,17.31q-14.28,0-18.56,6.06-2.86,3.94-2.85,15.17V218.45c.34,7.52,1.74,12.91,4.18,16.24M0,242.73q13.76-.9,19.82-3.93,10.7-5.55,10.7-20.17V38.37q0-14.1-10.17-19.63Q14.46,15.52,0,14.27V5H111.74Q179.38,5,214.9,41.05q32.29,32.83,32.31,88.16,0,49.62-32.49,84.08Q178.14,252,115.48,252H0Z"/>
    <path class="b" d="M251.34,242.73Q266,242,272,238.63q10.17-5.72,10.18-21.6V40q0-15.42-9.11-20.92-5.54-3.19-21.77-4.78V5H375v9.28q-16,.88-22.3,4.25Q342.37,24.19,342.37,40v75.86h87.09V40q0-15.78-9.81-21.27c-4-2.24-11.6-3.74-22.67-4.43V5H521.39v9.28q-16.06,1.23-22,4.61-9.81,5.49-9.82,21.09V217q0,16,10.9,21.77,6.24,3.4,20.88,3.93V252H397v-9.29q15.72-.53,22.31-4.28Q429.5,232.7,429.48,217V132.77H342.37V217q0,16.23,11.06,21.95,6.42,3.21,21.59,3.75V252H251.34Z"/>
    <path class="c" d="M605.3,81.35c-.53-.5-.73.79-.24,1.55.3.47,1.26.61,1.37.35C606.68,82.58,606.16,82.15,605.3,81.35Z"/>
    <path class="c" d="M609,85c-1-.64-3.17.11-1.86,1.13.47.35.15-.57.55-.7C608.41,85.2,609.63,85.4,609,85Z"/>
    <path class="c" d="M613.8,175.92c-1-.53.17.91-.48,1.09-.32.08-1-1.67-1-.71,0,1.6-1-2.63-1.13.35S616.53,177.31,613.8,175.92Z"/>
    <path class="c" d="M610,80.41c.08.45.39-.13.51.09s-.59,1.46.45.29C611.72,79.92,609.93,80,610,80.41Z"/>
    <path class="c" d="M603.35,85.54c-.38.46.11.39,0,1.13s1.61-.06,1.13-.34S603.73,85.09,603.35,85.54Z"/>
    <path class="c" d="M600.37,175.61c-.91-.61-1-.83-1.53-.19S601.25,176.22,600.37,175.61Z"/>
    <path class="c" d="M600.54,83.09c.42-.72-.4-.34-.5-.49s.4-1-.24-1S599.58,84.73,600.54,83.09Z"/>
    <path class="c" d="M598.49,176.93c.37,1.29.67.08,1.51.39S598.11,175.66,598.49,176.93Z"/>
    <path class="c" d="M602.24,177.18c-.66.53-1.92.41-1.52,1.52.16.45,1.09-.07,1.52.4S602.9,176.67,602.24,177.18Z"/>
    <path class="c" d="M601.46,85.1c-.22-.21-.64-.54-.8-.21s-.51.57-.15.76.43-.64.67-.34c.71.92-2.84.65-1.63,1.3,1.08.31,1.51-.38,1.91-.38S601.68,85.31,601.46,85.1Z"/>
    <path class="c" d="M602.8,83.21c-.21-1-2.3,1.31,0,.78C604.07,83.7,602.91,83.8,602.8,83.21Z"/>
    <path class="c" d="M614.66,78c-.47.52-.93,1.54-.24,1.54S615.13,77.45,614.66,78Z"/>
    <path class="c" d="M627.72,66.56c-.25-.21-.69.33-1,.16s.39-3.07-.37-2.17,0,.57-.28,1.52-1,.2-.82-.09.48-1,0-.78-.58,1.25-.78,1.13-.82-1.83-.78-.74,1,2.33,1.17,3.76,2-1.41,1.13-1.51c-1.41-.15-1.3-1.37-.74-1.12s1.26,1.17,1.47.39.09.61.44.73S630.42,68.83,627.72,66.56Z"/>
    <path class="c" d="M630.83,65.6c-.22,1.08-.8.88-.36,1.52s1.21-.55,1.13.38-1.66,1.81-.77,2.25.68-1.41,1.55-1.51S631,64.53,630.83,65.6Z"/>
    <path class="c" d="M627.6,70.18c0,.27.61,2,.78,1.08S627.58,69.9,627.6,70.18Z"/>
    <path class="c" d="M636.12,172.56c-.63.8-2.23-1-2.64-.34s.75.29.83.88-2.45-.48-1.57,1c.26.44,1.72-.32,2.65,0C637.11,174.59,636.76,171.77,636.12,172.56Z"/>
    <path class="c" d="M636.24,176.76c-.9-.06-.56.52-.87.38s.48-1.53,0-1.16-.9.31-.73.78.42.15.53.83S637.14,176.82,636.24,176.76Z"/>
    <path class="c" d="M622.63,71.58a1.09,1.09,0,0,1-1-1c-.08-.72-3.56,1-3.41.35s-.34-2.37-1.14-1.91c-.4.23.25.21.13,1.38s-1,3.46-.13,4c1.85,1,1.4-.7,1.18-1.6s1.13.36,1.86.21,0-1.86.84-1.84.3,1.44,1.46,1C623,71.89,623,71.64,622.63,71.58Z"/>
    <path class="c" d="M596.52,79.9c-.15.15.48,2,1.17,1.55S596.67,79.74,596.52,79.9Z"/>
    <path class="c" d="M622.31,75.75c-.13,0,0,.75-.16,1.09s-1,0-.81.55,1,.23,1.25-.45S622.67,75.62,622.31,75.75Z"/>
    <path class="c" d="M640.35,174.86c-.06,0-.09.5-.24.68s-1.1.24-1.09.37c.07.46,1.19.66,1.42,0S640.73,174.58,640.35,174.86Z"/>
    <path class="c" d="M614.73,71.78c-1.33-.33,0-2.45-1.18-1.94-.46.2.09,1-.06,1.38-.22.65-1,1-.68,1.65C613.28,73.88,616.06,72.1,614.73,71.78Z"/>
    <path class="c" d="M615.49,76.63c0,.61,1.4-.2,1.12.39s-.34,1.08,0,.78a1,1,0,0,0,.39-1.17C616.81,76.21,615.5,76,615.49,76.63Z"/>
    <path class="c" d="M619.73,67.54c.52.23.75,1.82,1,.7.38-1.48,2-1,.78-1.51s-.19-1.9-1.16-1.52.31.92.38,1.52-2.47-.51-2.09.73C618.84,68,619.25,67.32,619.73,67.54Z"/>
    <path class="c" d="M612.76,172.94c.59.64-.25,1,.22,1s.21-1,.56-.61.78.77.73.35-.49-.49-.34-.75,1.06-.06.73-.38S612.16,172.32,612.76,172.94Z"/>
    <path class="c" d="M577,113.47c-.15.5.23,1.67.44,1.17s.65.09.69-.21S577.14,113,577,113.47Z"/>
    <path class="c" d="M574.38,112.46c.49,0,.07.6.49.37s.2-.58,0-.73a.56.56,0,0,0-.73,0C574,112.27,573.89,112.47,574.38,112.46Z"/>
    <path class="c" d="M574.05,117c-2.64.12-.16,1.34-.31.74S576.68,116.92,574.05,117Z"/>
    <path class="c" d="M595.42,94.18c-.55-.09-.77.5-1.12.52s-.62-.6-.67-.07c-.18,1.68,1.69.52,1.9.79s.66.32.31-.17S596.36,94.35,595.42,94.18Z"/>
    <path class="c" d="M566.42,143.38c-1.09,0-.38-.78-.9-.55a1.09,1.09,0,0,0-.36,1.5v0c.37.31.85-.71,1.13-.39s-.45.73.07.8.62-.51.8-.18.32.22.54.16S567.51,143.4,566.42,143.38Z"/>
    <path class="c" d="M573.46,148.5c-.3.05-.58.24-.78,0s.13-.51-.53-.42a.86.86,0,0,0-.35,1.51c.55.58.78-.6,1.13-.39s0,.85.35.78.43-.3.52-.16-.1.42.25.16S573.75,148.46,573.46,148.5Z"/>
    <path class="c" d="M567.31,148.07c.21-.06-.54-.53-.26-.74s.52.07.37-.28C566.74,145.47,566.17,148.37,567.31,148.07Z"/>
    <path class="c" d="M588.23,87.91c.72.55,1.39-1.25,1.13-1.51S587.51,87.37,588.23,87.91Z"/>
    <path class="c" d="M588.51,89.78c-.23-.2-.28-.93-.78-.31s1.51.89,1.13.34C588.77,89.67,588.59,89.85,588.51,89.78Z"/>
    <path class="c" d="M571.66,103.17c.34.23.87.5.58-.17s.74-.25.59-.57-1.51,0-.78-.39-1.69-1.22-1.12-.4S571.33,102.93,571.66,103.17Z"/>
    <path class="c" d="M589.75,81.7c0-.29.58-.61-.12-.49s.24,1.91.42,1.19S589.7,82,589.75,81.7Z"/>
    <path class="c" d="M570.9,111.5c.18.15.38-.21.73-.14.55.11,1.24.54,1.17.14-.12-.65-.38,0-.39-.39s1.09-.17.78-.39S570.45,111.11,570.9,111.5Z"/>
    <path class="c" d="M565.24,145.74c-1.39-1-.87,2.41,0,1.41.26-.3-.58-.36-.49-.78S566.2,146.39,565.24,145.74Z"/>
    <path class="c" d="M591.07,107.55c.34-.34-.28-1.6-.74-1.12s-.4.89,0,.78S590.73,107.9,591.07,107.55Z"/>
    <path class="c" d="M591.87,112.83c.11-.72-.48-.65-.27-.87s.11-.52-.22-.39-.25.52-.39.39,0-.79-.34-.39S591.78,113.56,591.87,112.83Z"/>
    <path class="c" d="M592,163.93c-.17,0-1,.68-.84.19s.33-.83-.17-.65c-.9.33.21,2.34.39,1.53S592.86,164.21,592,163.93Z"/>
    <path class="c" d="M587.93,102.26c.49.18.29-.28.66-.35.54-.11,1.52.38,1.19-.43S586.69,101.82,587.93,102.26Z"/>
    <path class="c" d="M593.3,167.28c.81,1-.1.78-.79.39s1.53,2.4,2.3,1.48C595.91,167.81,592.47,166.32,593.3,167.28Z"/>
    <path class="c" d="M587.77,110.14c-.52-.91.12-1.9-.8-1.39s-.28,1.61-1,1.54-1.33-1.7-2-2.39-1.71,3-.38,2.24.93,1.36,1.51,1.52,1.82-1.77,2.29-1.1,1.24,1,.78,0,1.51.46,1.12-.74S588.29,110.23,587.77,110.14Z"/>
    <path class="c" d="M580.08,163c.46-.06,1.27-.35,1.08-.74S579.16,163.11,580.08,163Z"/>
    <path class="c" d="M582.8,114.09c-.38.29-.8,2.09-.34,2s.06-.63.47-.79S583.18,113.8,582.8,114.09Z"/>
    <path class="c" d="M580.08,159.57c.37.56-.12,2.21,1.12,1.17C581.79,160.26,579.63,158.93,580.08,159.57Z"/>
    <path class="c" d="M587.12,143.76c-1.54-.83-2.89-1.95-2.61-.88s4.07,1.24,2.59,2.43-3.41,1.12-2.76,1.93.29-.56,1.19-.59.77-.9,1.59-1S588.67,144.58,587.12,143.76Z"/>
    <path class="c" d="M584.27,144.18c-.09-.2-.78.28-.84.48s.07.38-.26.27-4.66,1.62.63.49c.32-.08,0-.25.11-.56S584.35,144.38,584.27,144.18Z"/>
    <path class="c" d="M588.76,98.22c.48.29.25-.28.56-.28s1.51.06,1.3-.5S587.65,97.52,588.76,98.22Z"/>
    <path class="c" d="M717.74,180.46c-2-.4-.25,1.68.34,1.17S719.73,180.86,717.74,180.46Z"/>
    <path class="c" d="M716.35,184.57c-.06.69,1.37,1.71,1.52,1.16.1-.39-.2-1.15.39-1.56S716.4,184,716.35,184.57Z"/>
    <path class="c" d="M722,193.34a.93.93,0,0,0,.34-1.11c-.07-.27-.63-.82-.82-.33s.29.56,0,.84-1.31-.47-.94.19a1,1,0,0,0,1.34.45Z"/>
    <path class="c" d="M714.24,181.61c0-.24.5-.73.13-.89s-.69,1-1.25.5-.7,2.87.18,2.45-.09-1.13.27-1.2,1.11,2.41,1.4,1.51a2.57,2.57,0,0,0,0-2.2C714.63,181.27,714.22,181.85,714.24,181.61Z"/>
    <path class="c" d="M733.69,101.59c-.75.76-1.13.89-.73,1.51C733.53,104,734.39,100.89,733.69,101.59Z"/>
    <path class="c" d="M729.7,102.4c-.17.08-.39.27-.3.48s.55.33.86.34C731,103.24,730.08,102.19,729.7,102.4Z"/>
    <path class="c" d="M706.84,191.56c0,.45.29.07.25.32s.34.16.36.38-1.06.7-.38,1,.23-.37.45-.5,1,.26,1.23,0a1.18,1.18,0,0,0,0-1.18C708.56,191.09,706.84,191.11,706.84,191.56Z"/>
    <path class="c" d="M706.49,184.37c-.66-.93-1-1.66-1.16-.78S707.15,185.29,706.49,184.37Z"/>
    <path class="c" d="M711.69,77.45c-.63.42-.42,3,.39,2.25C713.08,78.73,712.83,76.68,711.69,77.45Z"/>
    <path class="c" d="M706.94,188.49c0-.64.52-1.26-.39-1.86s.42-.27-.39-.68-.21.92-.78,1,.29,1.82.78,1.51S707,189.14,706.94,188.49Z"/>
    <path class="c" d="M713.94,83.53a.75.75,0,0,0,0-.74.81.81,0,0,0-.74,0,.52.52,0,0,0,.74.74Z"/>
    <path class="c" d="M733.63,138.89c-.2-.52-1.19,2.75-.09,2.47s.22-.56.06-1.1S733.83,139.38,733.63,138.89Z"/>
    <path class="c" d="M742.76,125.09c.19-.65.08-1.26-1.1-1.15-.54,0-.23,1.35-1.62,1.39s-1.09,1.27-.15,1.29,1.71-2,2.08-1.35.28.71-.26.87-.83.49-.73.78.39.2.52-.18.14-.12.65-.27.37-.73.65-.6.46.45.82.22S742.69,125.34,742.76,125.09Z"/>
    <path class="c" d="M754.09,156.55c-.35-.25-.12.41,0,.78s.55.54.69.26.33-.33.44-.66S754.44,156.77,754.09,156.55Z"/>
    <path class="c" d="M752.4,158.15c-.37.27-.27,1.16.09.91S752.77,157.88,752.4,158.15Z"/>
    <path class="c" d="M758.79,166.18h-.25c-.31.07-1.26.21-.92.35a5.57,5.57,0,0,0,1.35.08c.43,0,.68-.23,1-.51S759.27,166.15,758.79,166.18Z"/>
    <path class="c" d="M749.44,145.48c-.38.2-1-.2-1.45.21s-2.49-2.38-3.21-1.89.19,2.74.74,2.06,2.56.46,2.86.17.63.28,1.08.09.51,1.34,1.09.31S749.82,145.31,749.44,145.48Z"/>
    <path class="c" d="M745.33,5H580.64a41.16,41.16,0,0,0-41.17,41.15h0V252H745.33a41.17,41.17,0,0,0,41.17-41.17h0V46.16A41.16,41.16,0,0,0,745.34,5Zm24.95,155.11a27.47,27.47,0,0,0-1.26,2.48c-.27.9-1-1.4-1.32-.62s-1.17.19-1.18.6,1.38.24,1.5,1-1,.15-1.29.36-.22,1.74-.56,1.14-1.1-.14-1.63-.25.62-.84.29-1.18-1.37.67-1.69.56.3-.82,0-1.12-.37.16-.69.07.09-.85-.49-.54-.91.16-.46.81.75.71.81,1.43-1.26-.85-1.38-.09,2.08,1.2,2.86,1,.55.86-.22.87.69,2.37-.57,1.74c-.23-.12-.13-.61-.5-.67s-.33.42-.69.45a6.56,6.56,0,0,0-.88-.09c-.28,0-.4.8-.68.87s-.41-1-1-.73c-.27.15-1,.17-1,.46,0,.46-.5.75-.68.9s.12.47,0,.65-.75.35-.69.61a1.16,1.16,0,0,0,.38.61c.21.2.71.13.94.17.63.14.13.9.29,1.1.42.52.15,1.24-.3.48-.11-.2-.44-.24-.92-.15s-.4-.64-.64-.56a1.07,1.07,0,0,0-.84,1.09c0,.3-1.07,0-.88.28a1.14,1.14,0,0,1,.18,1.11c-.19.31-.39.38-.65,0-.41-.65-1-.68-.75.12.07.26-.18.3-.61.69-.26.21.42.63.59.71.37.2-.34.41-1,.14a1.47,1.47,0,0,1-.88-.88c-.16-.39-1.13,0-.89.89s-.89.71-.83,1.75c0,.31-1.09-.45-1.23-.14s.22,1.51-.31,1.44.3.78-.42.84c-.47.05.46,1.08.27,1.33s-.56.56-.75.3c-.46-.66-.59.63-.82.29s-.69.08-.66.43c.07.52-.85.19-1,.4s.12.74-.06.9a.56.56,0,0,1-.87-.12c-.93-1.55-.39.44-.78,0-.09-.11-.72-.1-.85-.53-.08-.27-.82.08-1.13.52s-.49-.37-.8-.36c-.63,0-.92.15-.24.37s.61.8-.06.79c-.27,0-.06.52-.31.76s0,.48-.14.68-.55.25-.62.45c-.17.52.29.9,1,.7.28-.07.07-.89.91-.69.33.08,1,.46,1.06.16a1.09,1.09,0,0,1,.5-.72c.56-.18.9-.2.73.16s-.4.81-.14.85c.55.1-.5.65-.29.72.9.32.78,1.1.41,1.06a.83.83,0,0,0-.82.31c-.15.17,0,1.13-.16.94s-.64.09-.77.33a.58.58,0,0,0,0,.78c.2.31-.58.52-.55.74s.87,1.11,1.1.64c.35-.72.59-.4.81-.28s.69.79.33,1c-.63.31-.07.72.06.9.38.53.85-.39,1.12.07s1.48,0,1.13.5,0,1,.29.81,1.43-1.45.54.45c-.22.5-.51.8-.9.7s-.18-1-.72-.78a1.39,1.39,0,0,1-1-.11c-.22-.15-.06-.58-.26-.71-.5-.34-.89-.56-.93-.34a1.05,1.05,0,0,1-.58.76c-.34.11-.7-.65-1.06-.57s-.52,1.12-.7,1c-.67-.59-1.24-.11-1,.12s.36,1.09,0,.93c-.68-.39-.67.32-1.18.12-1.08-.38-.21,1.31-.92.48-.46-.53-1.16-.79-.87.11.09.24-.45.33-.62.61s-.75.16-.75-.7c0-.33-.9.09-.82-.24.14-.61-.66-.66-.66-.3,0,.89-1-.27-1.62.54-.4.54-.56-.37-1.27-.43-.4,0-.87.25-1.28.13-.62-.17-.34-.58-.74-.83s-.64-.12-.63-.38.28-.17.46-.46,0-.62.16-.7.56.83.8.58.68-.09.66.21c0,.82-1.31,0-1.16.38s.78.56,1.83.39,0-.59.46-1.16c.18-.22.85-.35,1,.08.15.64.56-.14.79-.06.43.16.71.57.85.15s-.33-.49-.28-1.25c0-.23-.65.26-.9.17s-.31-.58-.54-.66-.75.21-.83.08.39-.36.15-.8c-.1-.18.67-.06.8-.23.29-.37.16-1,.25-.69a1.55,1.55,0,0,0,.39.52c.17.16,0,.87.2,1s.8-.22,1-.1c.39.23.67.27.55-.09s.82-.37.94-.58-.57-.54-.43-.72.39-.53-.08-.61c-.24,0-1.61.43-1.58.08s.08-.62-.24-.73-.74.1-1,0-.24-.62-.48-.61-.4.34-.54.44-.56-.25-.15-.74c.12-.15-.29-.17-.28-.4s.55-.53.41-.65-.27-1.22-.36-.85c-.23.83-2.07-1.21-1.91-.4.08.44-.53.1-.63.54-.21.9-.92.84-.89.58.1-.64-.78-.52-.11-1,.18-.11.11-.41.11-.53s-.63-.11-1.08.08a.87.87,0,0,0-.43.3c-.09.2-.2-.27-.37-.62-.08-.17-.76.22-.71,0,.12-.45.3-.73.3-.91s-.26-.24-.65-.21-.67,1-1,.75-.59-.61-.89-.52-.68.7-.85.49c-.43-.57-.66.11-.8.27-.64.73-.76,0-1.24.09s-.74.24-.65.64c0,.15.48,0,.29.42-.1.21.45.55.68.39.62-.41.59.24.85.34.48.18.78.3.47.38-.77.15-.75.94-1.39.18-.37-.48-.38.36-.61.94-.09.2.74.3.8.51s0,.57.12.69c.37.54.37-1.75.68-1.2.06.1.58.11.52.41-.11.63.49,0,.91.22.24.13.32.8.59.69.7-.32.5.29.73.45s.24.48.3.7c.15.52,1,.36.89.61-.29.84,1.41.91.77,1.17-.2.07-.63,0-.81.43s-.56-.46-.78-.3,0,.83-.34.77-.64.61-.13.55c1.23-.14.59.67.1.72s-.81-.3-1.32-.16c-.3.09,0-.59-.2-.79s-.52-.14-.83.23-1-.28-.35-.7c.24-.17,0-.36,0-.68s-.28-.72-.47-.57-.3-.38-.53-.34-.68.22-.57,0a.82.82,0,0,0-.56-.91c-.23,0,.11-.49-.11-.71s-.6.1-.83-.08-.39-.53-.8-.4-.48-.58-.72-.56-.13.5-.41.5-.78.23-.79.61a.36.36,0,0,1-.71,0,1.38,1.38,0,0,0-.87-1c-.38-.09-.39.66-1-.11-.26-.29-.58.38.09.89.35.28-.31.81-.48.64-.39-.39-1.11-2-1.21-1.26-.12,1,.53.64.4.94-.06.12-.17.5-.52.32-.62-.29-.93-.91-.92-.39,0,.93.47,1.32.62.84,0-.14.5.85.79.43s.77.06,1.23-.5c.16-.19.42-.13.66.25s.45-.29.65-.16,0,.71.15.92.5.11.65.24-.26.68-.1.84c.32.31,0,.69-.41.77s-.85-.62-1.27-.55c-.24,0-.17.6-.33.72s-.7-.18-.74-.66c0-.16.48-.53.48-.71,0-.62-.41-.68-.65-.25-.51.89-.45.34-.92-.19-.19-.2-.53.31-.6.76,0,.15.21.56.19.72-.06.62-.2.75-.4.73-.84-.13-.14-.85-.13-1.45s-.05-.89-.26-.85a1,1,0,0,0-.52,1.28.59.59,0,0,1-.41.73l-.18,0c-.63-.12.53-1,0-.9-.18,0-.54.43-.66.31-.63-.56,0,.73-.76.76-.19,0,.28-1-.11-1s-.54-.5-.18-1-.9,0-.78-.36c.26-.9-.35-1.4-.54-1-.07.17-.54.66-.25,1.05.15.23-1.06.1-.88.38a1.26,1.26,0,0,1,.23.94c-.13.32-.48.26-.46.52.06.77-.41,1.22-.53.88s.15-.81-.29-.77c-.25,0-.19-1.07-.58-.58s-1,0-.65-.16a1.66,1.66,0,0,0,.6-1.38c0-.22-.45.09-.51-.13s.3-.7.3-.86-.23-.28,0-.53c.36-.48.73-1,0-.75a.55.55,0,0,1-.57-.87c.24-.46-.79-.59-.92,0-.18.8-.45-.35-1.08-.26a1.09,1.09,0,0,0-.83.26c-.69.68-.22-.59-.22-1.34,0-.44-.69-.22-.51-.58s1.74-.6,1.52-.23,1.11.77.84.14,2.18.42,2.57.09c.23-.17.43-.9-.23-.82s-1-.21-.72-.66-.72-.79.18-.76c.19,0,.78.4.5-.12s.15-.55.49-1.06.5-.86,0-.87-.9-.15-.2-.94-.51-1.14-.6-.64-.55.62-.88,0c-.19-.34-1.23.66-1,0s-.14-1.11.2-1.33c1.09-.71,2.06-2.3.32-1.9-.39.09-.41.8-.89.26-.64-.74-1-1.83-.95-.65,0,1.53-2-.42-1.85.39s-1.38,2.21-.78,2.25c.31,0,.64-.41.88.23.11.28,1.18.17,1.19.48,0,.47-.22.73-.11,1,.24.57.25,1.19-.24.88s-1.49-.08-1.33-.68,1.47-.1.39-.73c-.68-.4-1.17.28-2,.76l-.1.06c-.49-.4-.49-.4-.9.32h-.13a2.24,2.24,0,0,1-.73,0c-.79-.13,0,1.16.34,1.17s.67.65.78.34.5-1.23.78-1.11c.09,0,.72.72.25.72s-.38.51.3.53c.43,0,0,1.22.19,1s1.09-.54,1.24-.86.16.44.52.44-.07.45.23.55c.7.23.21,1.19-.44.75-.11-.07-.45-.26-.63.06s-.67-.28-.92.19c-.08.14,0,.42.33.71s-.14.6,0,1,.44.27.61.48.26,1.05.48,1c.45,0,1.47.39,1,.74-1.14.95,1.74,1.93.71,1.75s-.44,1.61-1.15,1.29-.53-2.15-1.17-1.26-.23-1.06-1.16-.09,1.88,1.89,1.37,2.5-.9-.61-1.29-.56c-.22,0,0,.61-.21.75s-.53.15-.43.54c.29,1.07-1,.45-1.07-.13s.91-.3.75-1.23c-.14-.76-.57-.92-.89.19-.13.4-.36,0-.66-.21s-.55-.08-.61-.32.48-.57.67-.69c.51-.35-1.39-1.37.34-1.12.43,0,.26-.63.45-1.08.13-.28.5-.16.57-.42s-.37-.79-.36-1.17.21-.74.12-1.14-.68,0-.91-.36c-.37-.51-.22-1-1-.77s-.59,2.15-.9,1.47-2.11-.14-1.54.84,2.19-.78,2.74-.06-.2.75-.1,1.29c.06.28-.59.21-.61.48,0,.7-.9,1.17-.71.51.34-1.13-1.84-1.64-1.51-1.16s-.12.42-.21.72.41.51.21.85c-.1.16-.59,0-1-.38-.21-.19-.59.31-.94.2s-.11-.76-.43-.69-1.27-.15-1-.31c.64-.39,1.59-.66.74-1.14-.34-.17-.49.49-.86.35s-.64.82-1,.4,1.13-2.06.39-1.51c-1,.72-1.33-.12-1.17.39.35,1.13-1,.87-.74,1.9s0,.49-.22.63-.63.39-.86.13-.31,0-.56-.29-.4.19-1.13.76-1.21,1.75-2.55,1.92c-.62.08-2.19-.29-3,.32s-1.23,3-.64,5a2.89,2.89,0,0,1,.22.91,20.21,20.21,0,0,0,.46,2.89c.14.49,1,6.27,1.09,6.67a3,3,0,0,1,.34,1.41c.11,1.09,1.6,2.28,1.82,2.78a3.69,3.69,0,0,0,1.34,1.51c.68.53,1.14,1.29,1.62,1.6,1.32.83,16.1,1.05,17,1.12a.53.53,0,0,1,.13,1.05h-67c-.66,0-1-.27-1.06-.52s.32-.53,1.1-.53,5.58-.08,10.58-.46,10.19-1.09,11.79-2.3a21.42,21.42,0,0,0,2.49-2.55,8.66,8.66,0,0,0,2-3.33,2.74,2.74,0,0,1,.24-.8c.11-.24.24-.45.37-.69a3.77,3.77,0,0,0,.31-.85,5.79,5.79,0,0,1,.27-.8,9.42,9.42,0,0,0,.4-2.74c.06-1.1.07-2.14.14-2.39.11-.48.29-1.83.45-3.17s.29-2.65.29-3V196a2.76,2.76,0,0,1,.1-.63,2.36,2.36,0,0,0,.1-.46,2.41,2.41,0,0,0,0-.38,2.69,2.69,0,0,1-1-.22,1.21,1.21,0,0,1-.6-.56c0-.29-.67.61-.74.78s-.18-.09-.34-.23-.36-.25-.49-.09a.65.65,0,0,1-.53.18c-.21,0-.39-.09-.39-.25a.62.62,0,0,1,.09-.27,2.83,2.83,0,0,1,.2-.28,1.21,1.21,0,0,1,.47-.23c.19-.05.37-.11.42-.23s0-.14-.09-.18a1,1,0,0,1-.38-.19c-.4-.35-.52-.2-.63,0s-.24.58-.62.6c-.13,0-.15-.14-.15-.31a1.51,1.51,0,0,0,0-.52c0-.13-.33-.08-.56-.05s-.39.05-.23-.12a.66.66,0,0,0,0-.48,1,1,0,0,0-.21-.41c-.42-.33-.34-.49-.1-.58a6.69,6.69,0,0,1,1-.14c.1,0,0-.2,0-.38a2.34,2.34,0,0,0-.29-.41,2.54,2.54,0,0,0-.5-.36.42.42,0,0,0-.38,0c-.29.17-.1.25.12.33s.44.18.22.41-.34,0-.5-.1-.32-.24-.62.1c-.09.1,0,.23.13.37s.28.27.29.39-.1.21-.22.24a.34.34,0,0,0-.3.27,4.84,4.84,0,0,0,.19.65c.06.25,0,.45-.48.37s-.55-.59-.48-.92.16-.58-.3-.21-.5.24-.55.1-.11-.32-.57-.1c-.18.09,0,.24.24.43s.4.36.18.49a.92.92,0,0,0-.43.68c0,.17-.12.2-.56-.2-.16-.12-.31,0-.45.17s-.25.33-.36.29a4.25,4.25,0,0,1-.46-.27.27.27,0,0,0-.34,0c-.12.11-.15-.14-.2-.39s-.12-.51-.3-.42-.39.26-.54.31-.29,0-.45-.29-.12-.49,0-.59.26-.16.22-.37a2,2,0,0,0-.19-.67c-.12-.14-.29-.14-.58.21-.12.16-.27,0-.41-.21s-.28-.41-.4-.33a1.24,1.24,0,0,0-.41.44.52.52,0,0,0,.13.6c.19.22,0,.57-.32.78s-.65.31-.72,0-.47-.47-.75-.59-.44-.21-.09-.58a1.53,1.53,0,0,1,.9-.43c.25-.07.42-.14.37-.51s-.36-.26-.63-.27-.46-.12-.23-.62,0-.66-.2-.56a1,1,0,0,0-.54.93,1.44,1.44,0,0,1-.1.74c-.08.09-.19.07-.33,0a.74.74,0,0,1-.43-.8,3.17,3.17,0,0,1,.28-1c.13-.25.52-.34.68-.46s0-.22-.79-.62c-.08,0,0-.07.06-.13a.21.21,0,0,0,0-.31c-.11-.15-.22,0-.34.05s-.22.21-.33.13a1.12,1.12,0,0,1-.28-.54c-.06-.16-.13-.24-.35-.06a1,1,0,0,0-.32.81,2,2,0,0,1,0,.61c-.06.12-.35.15-.62.16a1.42,1.42,0,0,0-.67.14c-.3.23-.34.46-.27.64a.35.35,0,0,0,.39.23c.49-.16.56-.12.57,0a1,1,0,0,0,.2.73c.26.31.26,0,.3-.27s.13-.62.56-.36.36.26.31.37a1.57,1.57,0,0,0-.25.63.6.6,0,0,0,.26.44c.14.12.28.27.22.44a.62.62,0,0,1-.75.45l-.06,0c-.3-.09-.51-.36-.3-.63s0-.37-.22-.42a1.09,1.09,0,0,0-.84.19c-.16.13-.26-.18-.37-.48s-.2-.6-.34-.49a1,1,0,0,1-.74.27,3.45,3.45,0,0,1-.46-.12,1.24,1.24,0,0,0-.6.09c-.1,0-.14-.05-.17-.42,0-.12.23-.19.44-.31s.42-.28.31-.53a.38.38,0,0,1,.24-.55,4.88,4.88,0,0,1,.75-.12,1.19,1.19,0,0,0,.78-.62c.15-.25.24-.44.42-.3a.29.29,0,0,0,.48-.2,2.62,2.62,0,0,0,0-.79c0-.66-.44-.3-.89.14s-1.07,1-1.19.55.24-.28.51-.5.5-.45.29-.65a.59.59,0,0,1-.21-.54,1.74,1.74,0,0,1,.19-.54c.22-.49,0-.48-.2-.42s-.57.19-.63-.06a1.1,1.1,0,0,0-.37-.72c-.15-.11-.31,0-.46.33s-.12.64-.23,1-.3.54-.7.21c-.21-.17-.39.25-.6.63s-.43.72-.75.38c-.17-.17-.32,0-.46.19a5.5,5.5,0,0,0-.37.81c-.11.24-.32.18-.51.07a.55.55,0,0,1-.29-.62c.09-.42-.09-.51-.3-.58s-.46-.11-.5-.48c0-.15-.21,0-.43.15s-.46.33-.56.24-.07-.26,0-.44a3.76,3.76,0,0,0,.23-.55.36.36,0,0,0-.15-.29c-.09-.09-.17-.17-.16-.29s-.32-.1-.62-.09-.58,0-.46-.37-.16-.25-.43-.25h-.61a.68.68,0,0,1-.09-.76c.11-.2.28-.36.34-.5a.59.59,0,0,0-.1-.48c-.06-.14-.11-.27.06-.36s.24.06.4.13.33.1.42,0,.21-.31.33-.46.25-.22.32-.1a.38.38,0,0,0,.43.16,1,1,0,0,0,.37-.14c.11-.07.07-.22,0-.38a2,2,0,0,0-.53-.43.75.75,0,0,0-.36-.1c-.1,0-.18,0-.18-.13a.49.49,0,0,0-.22-.38,1.15,1.15,0,0,0-.52-.06c-.11,0-.21.15-.32.3s-.21.33-.36.38a.39.39,0,0,1-.4-.11.38.38,0,0,0-.41-.07,1.57,1.57,0,0,0-.44.28.68.68,0,0,0-.15.58c0,.27-.12.26-.35.19a1.73,1.73,0,0,0-.81-.16c-.15,0-.18.16-.26.31a.72.72,0,0,1-.59.37,1.22,1.22,0,0,1-.75-.09.55.55,0,0,1-.34-.69h0c.07-.22-.11-.37-.28-.51s-.34-.28-.27-.43a.22.22,0,0,1,.32-.12,2.87,2.87,0,0,0,.49.26c.14,0,.22-.09.31-.24s.19-.29.36-.25a4.35,4.35,0,0,1,.59.25.64.64,0,0,0,.57.1c.12-.07,0-.21,0-.38a1.12,1.12,0,0,1-.18-.42c0-.12.17-.19.3-.25s.24-.12.21-.25a2.9,2.9,0,0,1-.14-.65.29.29,0,0,1,.22-.35h0c.38-.08.44-.21.32-.35a1.82,1.82,0,0,0-.71-.38c-.17-.06-.27,0-.35.19a1.68,1.68,0,0,1-.27.42.4.4,0,0,1-.37,0,5,5,0,0,1-.48-.21c-.19-.07-.27,0-.31.16s0,.41,0,.62,0,.23-.08.25a2,2,0,0,1-.35,0c-.18,0-.3.25-.42.42s-.2.33-.24.19a1.52,1.52,0,0,1,.06-.6c0-.16,0-.25-.31-.26-.12,0-.12.21-.12.41s0,.38-.06.29a.34.34,0,0,0-.48,0l0,0c-.13.1-.24.21-.33,0a.47.47,0,0,1,.21-.56.51.51,0,0,0,.19-.61c-.07-.15-.16-.15-.26-.09a3.84,3.84,0,0,1-.39.22c-.13.05-.26-.21-.4-.37s-.28-.22-.47.24c-.06.15,0,.19.09.24a1.43,1.43,0,0,1,.45.26c.1.11.1.16,0,.21a1.51,1.51,0,0,0-.23.21.49.49,0,0,0-.06.29c0,.08,0,.12-.13.07a3.55,3.55,0,0,0-.47-.09.93.93,0,0,1-.46-.18c-.07-.08,0-.2.16-.34s.24-.26.2-.36a2.43,2.43,0,0,0-.13-.38.49.49,0,0,0-.23-.28c-.26-.1-.29,0-.29.11a1,1,0,0,1-.15.65c0,.08-.23.07-.41.07s-.36,0-.42.11,0,.29.13.48.21.37.14.48-.29.09-.48,0-.4-.09-.49,0,0,.19.09.24.27.18.21.57c0,.12-.33.19-.58.28s-.42.2-.17.42a.56.56,0,0,0,.36,0,3.14,3.14,0,0,0,.61-.12c.14,0,.39.25.55.2s.24-.42.41-.47.46-.51.65-.56.29.31.47.28.56-.38.72-.39.16.31.29.33,0,.41.11.5.36-.11.38.05.35.49.27.63-.58.05-.72.22-.67.12-.79.24.21.32.07.44.5.64-.38.81c-.17,0-.27.52-.42.61s-.27-.6-.4-.51-.65-.09-.8,0-.3.48-.52.62-.09.78-.32.91c-.55.31-.46-.24-.91,0-.26.13-.4.82-.66.93s-.64-.34-.88-.25-.6.55-.81.59-.4-.3-.58-.33.42-.43.38-.57-.73,0-.67-.15.57-.32.72-.46-.16-.22,0-.33.94,0,1.09-.11.49-.25.64-.35-.57-.32-.41-.41.8-.09,1-.22.77-.18,1-.29.2-.6.36-.76-.14-.3-.22-.43-.38.32-.52.32,0,.15-.38-.36-.13.67-.54.88-.44-.42-.63-.34-.31.59-.48.59,0-.67-.06-.85c-.12-.49-.63-.29-.71,0s.23.63.28,1.1c0,.25-.38.64-.5.75s-.11-.46-.28-.49-.44.55-.53.43-.6-.33-.62-.56.46-.22.53-.39-.18-.66-.05-.87.59,0,.71-.19-.22-.66-.1-.82.64.08.72,0a4.17,4.17,0,0,0,0-1c0-.15.41.32.5.16s.8-.31.87-.46-.49-.34-.46-.49.43-.71.37-.83-.57.16-.69.07-.64.44-.8.37-.4-.36-.62-.41,0-.49-.28-.5-.47-.77-.66-.76-.7.57-.86.62,0,.41-.12.54.65.3.65.49-.16.32-.09.44-.44.53-.32.61c.3.21.68,0,.89.1s.47.75,0,.93c-.1,0-.43-.49-.51-.42s-.06,1.11-.14,1.21-.36-.67-.48-.49-.65-.14-.78,0,.17.86,0,1,.29.62.16.77-.85.05-1,.16-.29-.22-.47-.18-.39.42-.59.35-.34-.6-.56-.79c-1-.92-1-.07-.6.72.08.17.63.27.72.47s-.24.62-.19.85,0,.61-.34.64c-.74.06-.78-.14-.77-.39s.1-.57-.39-.74-.12.49-.85.66a3,3,0,0,1-.77-.23,1.06,1.06,0,0,0-.63-.08c-.58.11-.1.46.33.86s-1,0-.56.7-.64.55-.89.34a2.08,2.08,0,0,1-.44-1.12c0-.25-.19-.85.11-1.07s.75.09,1,0,.32-.63.56-.58a1.39,1.39,0,0,0,1.14-.2c.55-.27.53-.45.55-.72,0-.43-.28-.3-.9-.12s-1.1.29-.57-.3c.23-.26-.25-.54-.24-.76a1.33,1.33,0,0,1,.45-.69c.44-.42-.71-.71-.43-1s1.09.41,1.44.25c1-.45.1-1-.49-1s-1,.11-1.08-.25.47-.35.9-.38.75-.14.23-.76c-.25-.28-.62-.88-.87-.82s0,.79-.29,1.08-1-.18-1.25,0,0,1.26-.33,1.2c-.67-.1-1.38,0-1.17.37s.9.48,1.1.9-.66.47-.57.84.13.84-.45.86c-.35,0-.55-.86-1-1s-.87.68-1.2.59c-.6-.17-1.22,1.1-1.38.22-.08-.48-.53-1.55-.87-1.33-1.27.82-1.16-.49-1.18-.73,0-.5-.3-.28-.57,0s-1,.48-1,0,.61-.54.82-.69,0-.41-.06-.6-.45.27-.83.09-.26-.84-.62-.7c-.28.75-.74.31-.71.63s.37,1-.18,1.14c-.22.05-.41-.38-.74-.68s.18-.84-.1-1.23-1.72.31-1.33-.69-1-.39-1.1-.63.55-.86.62-1.11c.19-.87.33,0,.91.15.31.05.6-.5.88-.45.86.13.5-.52,1.24-.42.35,0,.61.66.91.67s.81-.62,1.1-.67.53.44.8.27.91-.46,1-.69-.46-.47-.46-.76c0-.54.61-.54.41-1.07-.15-.37-1.12-.43-1.49-.17-1,.69-1.31-1-1.74-.74s0,1.18-.22,1.52-.93.3-1,.11-.37-.59-.12-.78.82-.8.07-.9-.58.72-1.07.48c-.26-.12-.1,1-.66.74s.37-1.51-.07-1.47-1.21-.45-1.61-.18c-.2.14.56.38.47.84s.19,1,.49.92,0,.27.09.6.7.51.34.7-.62-.39-1.09-.4-.47.42-.83.36-.83.54-1,.49-.62-.74-.71-.8c-.33-.25,1.34,0,1.37-.48s-.5-.24-.61-.74.5-.76.45-1.14c-.09-.67-.48-.29-.73-1.29-.15-.63-.71.77-1.08.81s-.69-.25-.75.27.49.54.73.51.69.12.44.62-1-.45-1.46-.43-.84.6-1.24.49,0-.52-.06-.93c0-.22-1.18-.05-1-.34.36-.67-.09-.79-.63-.51-.16.09-.43.52-.94.2-.35-.23,0-.76-.1-1s-.75,0-.93-.17c-.32-.34.36-1.32-.42-1.41-.35,0-.52.72-1.27.62-.23,0-.5-.43-1.21,0-.31.2.37-1.22.09-1.42s-.32.43-.6.55-1-.47-1.11-.22.61,1.21.34,1.27a6,6,0,0,1-1-.74c-.07-.07-.8.49-.82-.44,0-.44,1-.47,1.24-.86s1.07-.27.85-.68c-.3-.57-1.05.17-1.38-.13s0-1.26-.71-1.14c-.44.08-1.06.54-.75,1.08.2.35-1,1.11-1.32.77s.09-.85.2-1.09.13-.59-.46-.3c-.25.15-.37.13-.55.31s.36,1.5-.32,1.52-.1-.82-.35-1.07-.48.33-.72,0,.8-.52.87-.79-.25-.51-.58-.34-.55,1.09-.92,1.1c-.1,0-.2-.64-.3-.69a9.29,9.29,0,0,1-1.06-.12c-.1-.14.78-.52.78-.68s-.27-.54-.22-.71c.15-.45.58.23.76.18.4-.09-.23-.62.2-.56,1.08.12,1.8.34,2.45-.15s.52-2.23,1.35-2.11c.11,0,0,.22.06.29s.2.2.29.07c.51-.74-.57-.87-1.11-.56s-1.09,1.44-1.4,1.2c-.16-.12-.15-.26-.42-.19s-.11.5-.49.71c-.93.55-1.88-.71-2.85-.43s-1.59,1.36-2.55,1.68a.37.37,0,0,1-.33-.06c-.11-.06-.29,0-.33-.07s.13-.12.2-.19.11-.16.19-.19a3.54,3.54,0,0,0,1.35-.62c.35-.37.53-.95.17-.9s-.48,0-.63-.34-.92-.57-.89-1.16c0-.31.77,0,1.18,0s1-.12.72-.43c-.51-.54-.64-.47-.54-.89s0-1.49-.57-1c-.35.31,0,.83-.17,1.15a1.09,1.09,0,0,1-1,.48c-.85-.23-.57-.49-1.22-.29s-1.54,1-2.51.51c-.72-.34-.54-1.26-.71-1.81s-.88-.33-1.58-1.21c-.57-.71-.18-1.49-.34-2s-.64-1.47,0-1.43c.16,0,0,.36.1.5s.15.39.29.28c.56-.46-.22-.91-.63-1.08s-1.26-.43-.89-.82c.17-.17.33-.17.41-.35s.19-.56.37-.43,0,.63.06.87a.41.41,0,0,0,.68.25c.17-.14.15-.43.29-.69s.88-.23.83-.77-.86-.69-1-1.31.51-1.16.3-1.73c-.11-.28-.64,0-.88-.1a.45.45,0,0,1-.31-.54.31.31,0,0,1,.06-.13c.19-.41.62-.64.92-1s1-.88.6-1.33c-.17-.18-.47,0-.62-.12s.19-.75-.16-.61-.78.11-1,.4-.36.54-.51,0a1,1,0,0,1,.15-.76,1.21,1.21,0,0,0-.11-1,.73.73,0,0,0-.76-.37c-.27.09-.57.46-.77.4s-1.82.27-1.27-1.3-.87-1-.82-1.41a5.83,5.83,0,0,1,.62-2.27c.19-.27,1.32,1.16,1.53,1.41s-.64,1.73-.3,2c.06.05.44-.64,1.25-.53.31.05.13.69.51.74s.91-.63,1.37-.56.87-1,1.33-.88c1.25.42,1.52-.86,2-.77,1.77.29.37,1.89,2.06,2.35.39.1.61-.48,1-.44s.63-1.66.9-1.62S570.61,141,571,141s-.59,1.23-.22,1.3,1.49.19,1.77.27c.53.16,1.05.29,1.55.39s1-.33,1.43-.26a5.08,5.08,0,0,1,1.87.75c.73.18-2.27-2.76-1.82-2.86s0-2.63.84-2.45a3.11,3.11,0,0,1,2.09,1.15c.39.58-.57,2.47-.23,3s1.68.56,1.74.53,0-.31,0-.56-.2-1,.06-1,.65.54.76.46a.66.66,0,0,0,.2-.34,1,1,0,0,0,0-.59.66.66,0,0,0-.47-.47c-.2-.06,0-.17.25-.29s.54-.29.54-.42a1.06,1.06,0,0,0-.19-.71,2.41,2.41,0,0,0-.37-.41c-.2-.2,1.3.13,1.56,0s-.12-1.06-1-1.11c-.17,0-.78-.45-.79-.73s-.46-1.4-.25-1.62.47-.46.37-.48c-.42-.1.47-.8-.81-.9a1.21,1.21,0,0,1-.74-.3,1.07,1.07,0,0,1-.28-.63c0-.16.19-.2.4-.26s.43-.11.46-.31-.32-.24-.58-.43-.43-.45,0-1c.2-.27,0-.37-.21-.47a1.29,1.29,0,0,1-.74-.53c-.29-.57.25-.69,0-1.17s-1.72.63-1.83.17c-.08-.3.43-.39.62-.77s0-.52-.22-.92-.18-3.16.22-3.26c.12,0,.74,2.74,1.2,3.12s.2-.29,1-.29c.44,0,1.43.71,1.44,0s1.78,0,2.52,0c1-.07,1.45-.18,1.5-.5s-.41-1-1.43-1.28c-.81-.25-2,.77-3.12.49-.93-.23-.8.22-1-.06s-.58-.55-.27-.65.53-.16.42-.4-.41-.7-.31-1,.38-.38.48-.57-.35-.46-.77-.73-.14-1.09-1-.31-1-.14-.71-.47a3,3,0,0,1,2.49-.71c.44.15,1.22-1.48,1.93-1.5,1,0,.84-1.78.15-2-1.41-.55-2,1.86-2.31,1.47-.15-.18-1-.34-1.09-.68-.17-.65-1.26-.49-1.48-.37-.4.24.6,1.74-.27,1.46s-.28,2.11-.35,2.09-.68,0-.86,0c-.56-.11.19-.78,0-1.14s-.44-.06-.6,0a.44.44,0,0,0-.33.19c-.22.38-.4.39-.47.23s-.51-.44-.31-.69-.32-.87-.34-1.1-1.64.14-2,.07a.8.8,0,0,0-.85.59c0,.29,1.81.28,1.81.83s-.58,1.06-1,.91-.54.92-.84.47-.61,2.26-.76,2.17,0-1.5-.83-1.68-1.87-.42-1.89-.71.53-.67.33-1.27,1.08,1,1.54.45c.12-.14.65-.81.15-1.08s-1.51-.28-.84-1.61c.08-.14,1.45-.37,2-1.12.15-.22.54.6,1.24.53,1-.09,2.31-1,2.27-1.28-.26-1.47-3.4-.08-3.43-.35-.16-1.29-1.79,1.22-2.18.94s2-2.41,1.72-3.26-1.49.34-1.63.26-.67,1.28-.8,1.52a5.88,5.88,0,0,1-2.11.46c-.14,0-.24-.25-.34-.45s-.2-.4-.34-.42-.36.17-.45,0c-.56-.92,3.37-1.79,2-3.13a.49.49,0,0,1-.38-.24c-.1-.12-.18-.23-.32-.2a.45.45,0,0,0-.29.31c0,.14-.08.3-.19.36-.4.2-.52,0-.53-.21a4.55,4.55,0,0,1,.13-.81,4.12,4.12,0,0,1,.09-.86.62.62,0,0,1,.7-.55.83.83,0,0,1,.21.06c.56.19.92.1,1-.18a1.65,1.65,0,0,0-.43-1.33c-.16-.23-2-.38-1.73-.69s.44-1.7.65-1.3.91-.34,1-.59c.15-.58-1.5-1-2.07-1a.81.81,0,0,1-.94-.63v0c-.06-.35.14-.66.59-.45a3.58,3.58,0,0,0,2,.1c.68-.13,1.22-.44,1.1-.92s-.48-.26-.83,0-.67.44-.69,0a1.39,1.39,0,0,1,.18-.89,2.58,2.58,0,0,1,.53-.77c.33-.31.51-.29.65-.23.33.17.37-.11.43-.48a1.16,1.16,0,0,1,.56-1c.42-.19.51.26.59.69s.19.85.62.8c.76-.1.64-.12.89-.38s-.17-.71.24-.84.74.6,1.2.6.68-1.08,1.07-.81c.18.12.16.48.4.43.49-.11.74-.78,1.25-.78s.57.76.6,1.08-.2,1.25.3,1.58.59.57,1.23.43a4.67,4.67,0,0,1,1.49-.15c.11,0,.06.31,0,.56s0,.49.18.47a.62.62,0,0,1,.51.09.78.78,0,0,1,.18.35,1.06,1.06,0,0,1,0,.56c0,.21-.39.25-.34.46s1.83.29,3.24.3c1,0,.48,1.75,1.22,2s1.05-.66,1.42-.68.89.18.92-.29.82.82,1.12.48c.6-.69-.65-1.65-.61-1.73,1.14-2.07-4.44-2-4.36-2.6s.17-.68.41-.64,1.09-.43.61-.52.34-.56.56-1,.45,1.43,1.5,1.3,1.75.15,2-.42-2.17-.76-2.16-1.08.23-.27,0-.64,1.79,0,1.57-.46-1.86-.74-1.24-1.41,1.48.81,2.15.4.22-1.3,1.5-1.69a3.87,3.87,0,0,1,2.38,0c.3,0,.62.09.75,0s-.06-.45-.2-.76-.25-.59-.1-.57a1.14,1.14,0,0,0,1.21-.3c.35-.37.88-2.12.11-2.23s-1.09,1.41-1.77,1.59c-.32.08-.52-.79-.91-.69s-1.73-.19-2.12-.09c-.21,0,1,1.06.73,1.12-.57.15-.91.83-1.48,1-.37.09-.76,1.15-1.09,1.23s-.45-.35-.68-.29c-.87.2-1.55.69-1.88.29-.21-.2-.75-1.06-.53-1.07,1.31-.18,1.09-.92,1.12-1.1s1,0,1.31-.11c.63-.13.38-.48.13-.74s-.48-.44.2-.26a1.7,1.7,0,0,0,1,0c.19-.1.12-.31-.42-.66-.14-.08-.12-.23-.08-.41s1.29-.42.82-.8c-.14-.11-.49.27-1.36-.39-.49-.38-1.06.89-1.64.45s0-3.18-.46-3.5-2.73.31-2.58-.1c.3-.8.64-1.48.63-1.52s-1.93-1-1.47-1.18a1.64,1.64,0,0,0,.49-.1c.16-.07.25-.21.08-.51-.07-.13.08-.22.27-.3a1.68,1.68,0,0,0,.52-.3.53.53,0,0,0,0-.46c0-.18-.57-.35-.18-.56.89-.44.69,2,1.62,1.51.6-.33,2.29,1.31,2.44,1.28s.55-.14.61-.26a1.12,1.12,0,0,0,.17-.44c0-.12,0-.2-.1-.24a1.09,1.09,0,0,0-.36,0,5.81,5.81,0,0,1-.59,0c-.1,0,0-.14.12-.28s.24-.29.18-.36l-.39-.41c-.1-.11-.15-.18,0-.18a.49.49,0,0,0,.21-.08l.24-.19a2.36,2.36,0,0,1,.62-.47.6.6,0,0,1,.89.24c.23.43.4.42.58.29s.82-1.71,1-1.73a3.93,3.93,0,0,1,.93.37c.31.12.51.11.26-.44s-.07-.57.23-.45a3.32,3.32,0,0,0,.89.38c.19,0,.69,0,.69-.51s-1.61-2.79-1-3.31.26.63.49.45.49-.5.68-.51.49.35.73.51.21-.25.26-.54a.33.33,0,0,1,.32-.29c.46-.21,1.87.86,2,.91s.42.19.42.41A.54.54,0,0,0,595,78a1.37,1.37,0,0,0,.75-.12.78.78,0,0,0,.46-.54c0-.16,0-.3.16-.36a1.75,1.75,0,0,1,.82-.08c.25,0,.81,2.06,1.46,2s0,.46.29.7c.09.07.36,0,.61-.12s.48-.12.47.11.26.32.55.22a3.47,3.47,0,0,0,1.16-.64c.16-.21.31-.4.36-.27.15.34.39.32.63.33s-.46-1.26,0-1.48.23.46.45.51.45,0,.48-.21.23-.63.13-.88c-.44-1.09.18-.44.39-.31.39.23.32-.7.61-.58s1,2.74,1.25,2.83c.48.2.6,0,.62-.39s-.09-.78-.06-1c0-.38.08-.5.39-.46s3.16,1.3,3.72.73-.15-.59.25-1-.18-.45-.29-.61a1.65,1.65,0,0,1-.3-.86c0-.22.08-.32.21-.17a2.46,2.46,0,0,0,.41.38c.17.12.36.19.43,0a4.48,4.48,0,0,1,.26-.57c.07-.12.63-.32.57-.62s-1.47-.67-1-1.43c.33-.57-1.74-.49-1.78-.69-.09-.46-.21-.25-.58-.38s-.33-.17-.34-.27a.44.44,0,0,1,.18-.34.72.72,0,0,1,.46-.18c.19,0,.75,0,.7-.28s-.1-.5,0-.55c.4-.12.69,0,.81-.14a1.67,1.67,0,0,0,.15-.54c0-.13-.7-.3-.7-.5a1.67,1.67,0,0,0-.36-.88c-.42-.13-.47-.3-.33-.41s1.74-.23,1.87,0a2.42,2.42,0,0,1,.13.46,2.77,2.77,0,0,0,.93.66c.14,0,.19-.15.24-.32a1.24,1.24,0,0,1,.2-.49c.07-.07-.36-.61-.25-.76s-.24-1.85,0-1.85-.08-1.31.24-.89,1.35,1.31,1.28-.27c0-.29.47-.15.55-.16a7.06,7.06,0,0,0,.23-1.09c0-.15-.15-.42-.4-.51s-.54-.12-.53-.26.19-.28.36-.42.36-.16.34-.43-.22-1.35.32-1.66,1.19-.3,1.21-.58,0-.66.38-.83c.13-.06.38.66.48.76s.36,0,.57-.15.36-.2.27,0-.44,1.29-.21,1.55.77-.18,1,.19-.09.72-.24,1-.15.46.34.54.75-.36.81-.72.06-.63.36-.1.41.44.51.32,1.76-2.71,2.13-2.31a4.83,4.83,0,0,1-.82,2.26c-.28.1-.38,1.08-.2,1.3s1.27.68,1.7.36-.48-2.27.1-2.48c.2-.08.25,1.17.38,1.17s.26-.34.35-.17.21-.09.35-.31.72.09.86.2.26.12.55-.13.29-.44.21-.58a1.83,1.83,0,0,1,.37-1c.16-.1,0,1.45.16,1.3s.75.22.76.42a.56.56,0,0,1-.35.54c-.27.15.54,1.45.72,1.17s1.45-.35,1.24-.85-1.06-1.06-.89-1.4,1.21,0,1.18-.57.2-.67.4-.49,0,1.79,0,1.91.14.13.31.14c.36,0,.84-1.45.81-1.77s-.38-.53-.49-.69.77-.88,1-.5a.73.73,0,0,0,.66.35c.22.07.35.3.47.44s.47-.73.37-1,.54-.06.59.22a3.1,3.1,0,0,0,.25.8c.29.63.54.13.82-.47s1,.72,1,.91a2,2,0,0,1,0,.6c0,.58.12.5.35.34s1.07.38,1.25.42.32-.11.33-.52c0-.21-.13-.67-.14-1s.11-.64.61-.47c.28.09.4-.14.46-.6s.46.52.9.74c.07,0,.36.93.84.65s.77-.83,1-.49c.54.68.3-.49.87-.41s.13.79.24,1.12,1,.35,1.18-.14.46.89.76.77.3.65.9,0,.75.37,1,.27a1.33,1.33,0,0,1,.79,0c.33.23,1.1,1.06,1.5.73s-.72-1.9-.47-1.91.4-.69,1-.55.26,1.48.59,1.26c.17-.1.32.13.6.16s.27-.33.72-.17.1-1.13.32-1.05.28-1.15.17-1.21,0-3,.81-.93,2.24,2.24,2.73,1.83.26-1.41.26-2.1-.72.7-1,.74-1-.86-.9-1-.71-.44.08-1c.16-.09.08-.6.19-.76s.48.49.57.35.67-.16.77-.3.12-.58.29-.8,1.58.91,1.47,1.74,0,.55.63,1c1.23.77,1.48-.72,1.5-.77s.59.52.64.3.57-3.75-.26-3.11-1.23,2-.42-1c.06-.22-.51-.5-.43-.69s.8-.36.92-.53,1.43,2.11,1.59,2,1.66-.36,1.5-.53,0-.7-.12-.91-.24-.6.08-.75c.7-.35.82-.17.89.09s.13.61.66.59-.06-.54.59-1c.16-.11.89,1.09.65,1.36-.44.47-.35.65-.27.93s.38.18.92-.21,1-.71.67.07c-.13.36.29.58.5.68,1.43.65,3.78-1.23,3.78-1.23.41,0,.87,2.1,1,1.43s1-.39,1.47-.47.59-1,.95-1c.64-.06.78-1.54,1.26-.73.26.44,1.09,1.33,1.34,1,.93-1.28.62-2.16.94-2.12s.39.16.56-.18.78-.84,1-.41-.38.76-.53,1,.18.41.27.58.35-.44.78-.4.56.73.85.46c0-.85.62-.58.47-.88s-.74-.89-.25-1.21c.2-.13.54.22,1,.39s.15.91.56,1.19,1.56-1,1.55.19,1.13,0,1.3.22-2,1.32-2.33,1.38c-.89.18.94,1.44.18,1.62-.36.1.54.31.83.41s.56.92.82,1.08,1-1.94,1.23-1.67a7.67,7.67,0,0,1,.31,2.13c0,.29,1.51-.45,1.57-.15.1.55,1,1.17-.37,2.26s-.38.87-.06,1.12-.37.31-.38.66.63,1.31.93,1,.51.14.83,0c.58-.33-.6,1.25.2.83.64-.33.51-1.1,1.48-.54.2.11.14,1.27.39,1.51s.26-.62.58-.66-.44,1.49,0,2.3a17,17,0,0,0,.91,2c.56.08,1.12-2.53,1.78-2.53.14,0,1.92-1.63,2.32-1.1.21.28.37,2.53.62,2.89s.42,1.91.75,2.39c.95,1.37,1.37,2.34,1.65,2.3.58-.08.11-2.59,1-1.75.27.24,0,1.59.06,1.85.15.64,1.68-1,1.29-1.13s-.31-1,.32-1.38.86-.39,1.09.15-.42,1.9.73,1.25c.54-.32-.84-3,.68-3.27s1.82.5,1.65.78c-.42.68-.87,1.75-.41,1.42a1.91,1.91,0,0,1,1.63-.35c1,.14.57.48.27.69-.12.08-1.56.88-1,1.35s.72-.28,1.52.16-.23.45-.15.59a.68.68,0,0,0,.73.24,9.89,9.89,0,0,0,2.2-1.34q.15-.09.15,0c0,.37-.28.63-.46.92-.43.66.69.17,1,.32.67.34.71.24,1.52,0a1.07,1.07,0,0,1,.79.2c.29.31-.34,1-.48,1.17-.47.69.67-.29.85.1s-.37.91-.39,1c-.1.49-.1.35-.19.85s.61-.09.84-.18c.4-.16.13.23.35.42s.78.09,1.07,0c.56-.29.2.5.67.68.2.07,1-.81,1,0s-1.11,1-1.38,1.34.51,1,0,1.26-1,0-1.21.47c-.14.3.32,1.14.44.87s.58-.12,1-.12.23.58.59,0c.22-.37.4-.72.75-.67s.64.07.66.48-.27.43-.57.61c-.1.06.42,1-.49.76s.47.63.77.88.3,1.8.72,1,1,.18,1,.51a.09.09,0,0,1,0,.07c-.35.84,1.45-.91,2.24-.91s0-.84.46-.7,1.09.21.82-.19c-.13-.18-.88-.5-.84-.7s.82-.25,1-.35c1-.43.56-.15.19-1-.19-.42,0-.18.26-.55s.35-.85.51-.51c.27.6.18.2.49.28s1.23-.37,1.42-.17c1,1-.31,1.1,0,1.57s1.55-.66,1.81-.31.75,0,.85.36.66,0,.76-.65c0-.29-.06-1.67,0-1.91.25-1,.43-2.1,1.68-2s.21,1.41.34,1.51c.77.47-.1.41-.14,1.26,0,.34-.33,1.27.26.53.34-.42,1.24-.54,1.07-.1s-1,.59-.35.88c.88.4-1.35.93-1.56,1.09-.39.31.29.75.62.91s1.35-.72,1.53-.68v.11a7.84,7.84,0,0,1,.33,1.67c0,.53-.91,0-1.38.9-.14.26,0,.69-.1,1-.34.78.87,0,1,.08.5.22.82-.62,1.06-.53.41.18-.56,1.61-.64,1.86-.21.63.79-.41,1.35-.19.31.12-.94,2.12-.4,1.89s-.44.56-.51,1,1.74-1,1.6-.19.5.93.18,1.6-1,.17-1.61.61,2.34.78,2,1.46-1.48.1-1.43.89,1.33-.37,1.51.51c.11.51-.61.6-.94,1-.17.19.36.62,0,1.08s-1.5.82-1.37,1.08c.36.76.48-.13.74.13s0,.68,0,.89-.43.53-.72.7-.52.52-.09.48.2.81.68.71.26-.57.65-.55c.59,0,.63-.13.79.42.2.72-.77,1.07-.42,1.4a.68.68,0,0,0,1-.13c.14-.57.43-1.5,1.36-1.65s.38-.82,1.1-.73.61-.8,1-1.28,1-.34,1.21-.72,1.2-.12,1.7.1.69-.08.35,1-1.51.62-1.52.89.8.7.94,1.36,1.57-1.35,1.56-.88,1.06.56.74.67-.22.47-.65.73-.07,1,.07,1.24-.18.59-.43,1.15c-.08.21,1.18.18,2.24-.63.36-.29.75.18,1.24.1s1.47.06,1.94-.51c.72-.86,2.46.23,1.77.26a2.21,2.21,0,0,0-1.34.67c-.07.11-1.17.18-1,.37s1.9.73,1.72.82-.67,0-.71.15a.86.86,0,0,0,0,.39,1.33,1.33,0,0,0,.26.5c.14.16.46,0,.54.21s-.56.61-1.32,1.15c-.4.28-.29-2.16-.69-1.89a2.67,2.67,0,0,0-.72,1.12.75.75,0,0,1-.76.46c-.46,0,.9,1.29.09,1.2-.51-.06-.42.82-.65.87-.69.15-.73-.36-1-.33a.46.46,0,0,0-.44.48v0c0,.12.12.25.25.37a1.23,1.23,0,0,1,.31.37.53.53,0,0,1-.06.37c-.06.12-.11.23,0,.35a.64.64,0,0,1,0,.54c-.05.16-.09.28.08.34.41.17.62.42.59.59s-.3.28-.84.21-.6,0-.55.05a2.15,2.15,0,0,0,.7.41c.18.09.42,0,.64,0s.39-.09.47.13a2.35,2.35,0,0,0,.58.84c.23.23.48.36.58.25s.16.07.13.36-.09.63,0,.6c.33-.12.13.24.06.5s-1.13,1.08-1.13,1.7c0,.34.14.34.35.31a.82.82,0,0,1,.73.11c.45.35-.06.49-.62.62s-1.14.26-.85.6a1.78,1.78,0,0,0,.55.51.71.71,0,0,0,.7-.11.77.77,0,0,1,1,0,.59.59,0,0,1,.16.68c-.16.35.23.37.68.34a4.23,4.23,0,0,1,1-.07c.06.07.19-2.25,1-2,.34.12,1,.9,1.31,1s.13.45,0,.75-.33.53-.57.27c-.47-.46-.51-.13-.6.3s-.21,1-.83.87c-.38-.06-1-.18-.81.41a1.67,1.67,0,0,0,2.06-.09,1.69,1.69,0,0,1,2-.44c.09.14-.29.54-.8,1-.33.3-.21.9-1,.91-.59,0-.79.71-.76.81a4.22,4.22,0,0,1,.07.79c0,.18.44.23.84.28s.77.07.71.22c-.36.7-.48.87-.16,1a2.61,2.61,0,0,0,1.18,0c.36-.07.65-.15.68,0a.66.66,0,0,1-.11.49,1.21,1.21,0,0,1-.55.45c-.17.08.09.19.39.32s-.17.5.56.43.7-2.2,1.37-1.85.5-.1.65,0,.27,0,.44-.14.51-1.63.74-1.5.35,1.72.55,1.79a.61.61,0,0,0,.46,0c.43-.24.65-.15.68,0s-1,.7-1.22.81-.32.64-.4.94.54,1.25.13,1.15a.75.75,0,0,0-.53.08,5.75,5.75,0,0,1-.41.87c-.35.51-1.23-.73-1.64-.62s-.58,1-1.65.88c-.47,0-.11,1.08-.62,1-1.46-.11-.19-1.48-1.74-.62s0,.26-.55,1.12-.39.68.18.68c1.14,0,.05,1.14-.37.93s-2.23,0-2.08.55-.11.48-.17,1.16c0,.23-1.77-.47-1.91,1.18-.09.89,1.27-.6,1.73-.2s.29.21.29.49-.51,1.53-.38,1.67.87-.21.86.22,0,.81.12.91.47-.07.79-.24.63-.37.79-.28.24.52.34.94.19.87.33.93.36-.19.5-.47.29-.61.47-.57a.46.46,0,0,0,.49-.16c.12-.1.21-.23.39-.22.55,0,.32.35,0,.8s-.87,1-.88,1.28.48.41,1,.46,1.08.07,1.2.31-.18.24-.45.32-.52.17-.4.35a2.14,2.14,0,0,0,.6.6,2,2,0,0,1,.57.54,6.71,6.71,0,0,1,.47.71c.08.16.09.25,0,.35-.2.33-.47,0-.84-.25s-.79-.59-1.29-.32a1.26,1.26,0,0,0-.56.72c-.07.28,0,.54.51.59,1.58.18,2.1.45,2.32.69s.15.49.58.61.29.41.07.68a1,1,0,0,1-1.22.25c-.56-.23-.61-.4-.62-.57a.54.54,0,0,0-.3-.58.5.5,0,0,0-.71,0l0,.07a.77.77,0,0,0,.32.92c.23.2.11.29-.1.38s-.49.17-.6.38,0,.41.18.66.25.5.16.63c-.22.31.06.38.42.49s.77.26.85.69-.33.47-.76.5-.88,0-.89.49a1,1,0,0,0,.7,1.08c.32.13.59.22.34.77-.09.22-.26.09-.5,0a1.06,1.06,0,0,0-.89-.21c-.21.06-.25.25-.28.46s-.06.42-.23.52a2.22,2.22,0,0,0-.48.44c-.07.14,0,.29.14.5.47.57.8.46,1.08.32s.47-.29.63.22.39.31.63,0,.56-.77,1-.48a1,1,0,0,0,1,0c.26-.13.45-.29.62-.1s-.12.43-.4.71-.54.63-.31,1,.51.29.8.09.56-.45.78-.43a3.38,3.38,0,0,1,1,.68c.35.28.58.46.5.08s.16-.55.48-.68a3.25,3.25,0,0,0,.94-.4c.21-.18-.12-.3-.48-.43s-.8-.3-.78-.54.5-.28,1-.27,2.21,1.58,1.72,1.67-.48.46-.23.72,2,1,1.79,1.37-.58,0-1-.27-.56.09-.56.48.16.85.42,1c.68.22,1,.55,1.12.84s-.19.58-.75.75,1.12.49,1.27.41,1.11.27,1.22.15.15-.87.26-.92a3.51,3.51,0,0,1,1.33.13c.19.1.66-.9.79-1C769,159.37,770.55,159.45,770.28,160.11Z"/>
    <path class="c" d="M739.91,107.26c.26,2.39,4,0,3.06-1.75-.49-1-.49.74-2,.19-1-.35-4.2.86-3.51,1.71S739.79,106.11,739.91,107.26Z"/>
    <path class="c" d="M746.44,125.73c.52.13,0,.78.52.52s.09-2.13-.22-2S746.11,125.64,746.44,125.73Z"/>
    <path class="c" d="M746.29,123.25c.35,0,.14-.88,0-.56s-.7-1.16-.27-1.48-.74-1.77-1.24-1.55.56,2.55,1.08,3S746,123.3,746.29,123.25Z"/>
    <path class="c" d="M708.58,183.59a1.26,1.26,0,0,0-.34-1.74,1.36,1.36,0,0,0-.39-.17C707,181.43,708.08,184.12,708.58,183.59Z"/>
    <path class="c" d="M747.11,142.42c.08.37.54.53.69.25s.33-.32.43-.62-.73-.16-1.08-.41S747,142.06,747.11,142.42Z"/>
    <path class="c" d="M744.37,138.61c-1.24.72,0-.53-.34-.87s-4.5-.34-4.07.31,2-.42,2.25,0-.68.3-.83.83-2-.63-2,.26-1.61.91-2.07.5.44-1.56-.09-1.64-.13.53-.56.52.06.92-.08,1.35-.73.09-.57.43,1.13.48.57,1.12.69,1.23,1,.52,2.36-1.2,3.42-2.21.86,2,1.55,1.85,1.07-1.86,1.26-1.33.29.5.47.09S745.62,137.89,744.37,138.61Z"/>
    <path class="c" d="M650.49,181.35c1.2.17,0-.28.49-1.39s-1.17.28-1.66-.91c-.2-.5-.75-.62-.77.27,0,.17.79.87.79,1s-.89.8-.79.92c.61.79.05,1.23.43,1.19C649.87,182.39,649.3,181.17,650.49,181.35Z"/>
    <path class="c" d="M659.46,61.56c-.07-.81-.71.27-1-.76s-.24.08-.54,0-.4-1.17-.92-.69S659.6,63.15,659.46,61.56Z"/>
    <path class="c" d="M661.23,184.59c-.72.87-.78-1.8-1.13-1.17s-.21,2.34.26,1.83.41.7.66.4S661.94,183.73,661.23,184.59Z"/>
    <path class="c" d="M651.28,186.53c-.22,0-.43.05-.35.35.48,0,.74,2,1.13.78-.61-.08-.26-.83,0-1.13Z"/>
    <path class="c" d="M658.75,188.64c-.43-.08-.73-.77-1-.5s.38,1.22.83,1.31,1.66-.71,1.42-.92S659.1,188.7,658.75,188.64Z"/>
    <path class="c" d="M657.16,191.15a1,1,0,0,0,.73,1.14A1.12,1.12,0,0,0,657.16,191.15Z"/>
    <path class="c" d="M653.22,183.25c0,.17.9,1.06.83,1.81-.2,1.63-1.12,3.3-.29,3.23,1.24-.08.9-2,.69-3.59S653.31,182.83,653.22,183.25Z"/>
    <path class="c" d="M651.48,189.19c-1,.4-1.39-1.39-1.51-.36s.64.77.39,1.14-.52.64.36.27C651.38,190,652.46,188.8,651.48,189.19Z"/>
    <path class="c" d="M644.29,65.86c-.17.53-.73-.08-.48.56.43,1.16.8-.16,1.11-.27C645.56,65.91,644.48,65.33,644.29,65.86Z"/>
    <path class="c" d="M695.19,178.72c-1.36.1-.8,2.65-.38,2.29S696.55,178.62,695.19,178.72Z"/>
    <path class="c" d="M647.84,184.59c-1.09-1-.71,3.82.78,1.9.25-.33-1-.07-.78-.38s.65-.11,1.09-.37S648.38,185.12,647.84,184.59Z"/>
    <path class="c" d="M639.55,173c-.11.58-.47,1.45,0,1.12s.44-1,.77-.73,1,1.6,1.13.73S639.65,172.38,639.55,173Z"/>
    <path class="c" d="M642.58,63.2c-.41.12-.48,1,0,.91s.59.52.73.13S643,63.08,642.58,63.2Z"/>
    <path class="c" d="M683.71,181.89c-1.08.1-1.49,2.77-.13,1.85s-.18-.7-.18-.82c0-.28.69-.34.81-.56S684.29,181.84,683.71,181.89Z"/>
    <path class="c" d="M681.42,191.9c-.36.1-1.23.38-.85-.45.14-.3-.67.1-.87-.4-.35-.81,1.23-.78.88-.94-.86-.41.52-.8,0-.94-.33-.09-1.59,1-3.09,1.07a8.16,8.16,0,0,1-2.58-.6c-.32-.11-.37,0-.38.26-.17,5,2.24,4.14,4.15,4.34,1.1.1,2.5-1.44,2.83-1.86C681.69,192.13,682,191.71,681.42,191.9Z"/>
    <path class="c" d="M685.25,64c-.34-.41-1.1.68-1.91.37s-1.9-.5-2.08.62,1.92.24,3.13-.29C685.1,64.33,685.84,64.67,685.25,64Z"/>
    <path class="c" d="M690.54,182.9c-.23-.65-.11-.71,0-1.34s-.89-.13-1.23-.19c-.81-.14-.94-.4-.53-1s-.5-.7-1.12-.39,1.05,1.92,0,1.52c-.22-.08-1.58-2-1.13-.78.67,1.79-.57,1.36-.39,1.91s1.84,1.87.78,2.28c-.56.23-.49-2-.78-1.12s-1.54,0-1.12,1.12a1.63,1.63,0,0,0,1.66.7c.43-.07.33-.4.88-.51.38-.06.63.41,1,.39s.68-.73,1.63-.61-.25-1-.26-1.31S690.61,183.11,690.54,182.9Z"/>
    <path class="c" d="M686.81,187.91c-.49-.13-.17-.59-.91-.25s0,.44,0,1.12c0,.37.62.46,1.12,0S687.32,188.05,686.81,187.91Z"/>
    <path class="c" d="M677.3,61.72c.36-.23,1.35-.37,0-1.38-1.09-.83,3-3.5.88-3.62S678.05,58.43,677,59s-2.45,1.42-1.1,3C677.09,63.38,677,61.94,677.3,61.72Z"/>
    <path class="c" d="M681,182.73a.7.7,0,0,0,.53-.56c.06-.24-.2-.49-.29-.72s-.19-.5-.61-.35-.46.23-.37.69S680.07,182.89,681,182.73Z"/>
    <path class="c" d="M684.15,62.25c0-.14-.67-.52-.91-.26S684.09,63,684.15,62.25Z"/>
    <path class="c" d="M663.26,55c-.53.63-.3,3.81,0,3.41s.08-.65.73-.38S663.78,54.39,663.26,55Z"/>
    <path class="c" d="M678.28,186.92c-.18-.18,0-.61-.35-.39s-.25.45,0,.74.5.61.79.39.34-1.17,0-1.13S678.47,187.11,678.28,186.92Z"/>
    <path class="c" d="M675.6,184.23c.37.28.76.45.78,0s.13-.69,0-.86-.52.18-.87,0a.38.38,0,0,0-.56.43C675.06,184.07,675.35,184,675.6,184.23Z"/>
    <path class="c" d="M818.62,117.64V5h20V99.88h50.91v17.76Z"/>
    <path class="c" d="M950.34,109.41c-1.74,2.87-4.76,5.23-9.1,7a34.82,34.82,0,0,1-13.58,2.73q-13.3,0-20.92-6.65c-5.07-4.43-7.6-10.74-7.6-18.88q0-14.31,10.72-22.37t30.5-8.08a34.86,34.86,0,0,1,8,1.14q0-14.52-18.39-14.52-10.85,0-18.14,3.61l-4.15-14.92q9.92-4.74,23.6-4.75,18.86,0,27.61,8.56t8.76,32.49v17.6q0,16.45,6.61,20.69c-1.57,2.77-3.36,4.48-5.29,5.12a21.18,21.18,0,0,1-6.7,1,10.77,10.77,0,0,1-7.46-3.07A15.88,15.88,0,0,1,950.34,109.41ZM948.5,78.9a39.83,39.83,0,0,0-7.38-1q-22.75,0-22.76,14.93,0,11.07,12.84,11.07,17.29,0,17.3-17.29Z"/>
    <path class="c" d="M1041.38,117.64V70c0-7-1.33-12.14-4-15.38s-7.09-4.84-13.18-4.84a20.4,20.4,0,0,0-9,2.39,20.77,20.77,0,0,0-7.49,5.91V117.6h-19.3V35.29h13.83l3.55,7.69q7.82-9.24,23.13-9.22,14.68,0,23.18,8.79t8.52,24.57v50.52Z"/>
    <path class="c" d="M1134.33,117.64v-5c-1.59,1.73-4.27,3.26-8.06,4.56a36,36,0,0,1-11.76,2q-17.23,0-27.1-10.92t-9.89-30.45q0-19.55,11.34-31.8t28.41-12.25a37.34,37.34,0,0,1,17.06,3.84v-33L1153.57,0V117.64Zm0-62.67a20.19,20.19,0,0,0-12.83-4.92q-11.54,0-17.76,7t-6.22,20.19q0,25.7,24.75,25.68a18.35,18.35,0,0,0,6.79-1.65c2.7-1.1,4.46-2.22,5.27-3.34Z"/>
    <path class="c" d="M1167.72,112.33,1174.56,97a30.47,30.47,0,0,0,19.45,6.84q11.23,0,11.23-8a9.81,9.81,0,0,0-3.39-7.69q-3.37-3-13.15-7.07-21.27-8.83-21.3-24.76,0-10.68,8.17-16.64t20.82-6a52.37,52.37,0,0,1,24.15,5.76l-5.54,15c-4.23-3.58-10.06-5.38-17.54-5.38q-10.1,0-10.08,8c0,2.1,1.11,4,3.31,5.69s6.91,4,14.16,6.8,12.43,6.31,15.61,10.34a23.08,23.08,0,0,1,4.77,14.7c0,7.62-2.85,13.64-8.5,18s-13.38,6.58-23.11,6.58a51,51,0,0,1-13.2-1.36A63.15,63.15,0,0,1,1167.72,112.33Z"/>
    <path class="c" d="M1305.19,41.83,1297,56.21q-6.76-6.39-18.15-6.39c-7.28,0-13,2.42-17.24,7.26s-6.35,11.56-6.35,20.12q0,25.9,24.67,25.9a27.93,27.93,0,0,0,18.81-7.1l7,15.14q-8.35,5.22-14.63,6.62a69.28,69.28,0,0,1-14.79,1.38q-19.08,0-30.11-11.11t-11-30.87q0-19.44,12.06-31.45t32.91-12A40.12,40.12,0,0,1,1305.19,41.83Z"/>
    <path class="c" d="M1367,109.41c-1.74,2.87-4.78,5.23-9.11,7a34.83,34.83,0,0,1-13.59,2.73q-13.27,0-20.89-6.65c-5.08-4.43-7.62-10.74-7.62-18.88q0-14.31,10.72-22.37c7.14-5.39,17.33-8.08,30.5-8.08a34.86,34.86,0,0,1,8,1.14q0-14.52-18.38-14.52-10.85,0-18.14,3.61l-4.15-14.92c6.6-3.16,14.49-4.75,23.59-4.75q18.84,0,27.61,8.56t8.76,32.49v17.6q0,16.45,6.62,20.69c-1.58,2.77-3.37,4.48-5.3,5.12a21.18,21.18,0,0,1-6.7,1,10.75,10.75,0,0,1-7.45-3.07A15.88,15.88,0,0,1,1367,109.41Zm-1.84-30.51a40,40,0,0,0-7.39-1Q1335,77.9,1335,92.83q0,11.07,12.83,11.07,17.3,0,17.31-17.29Z"/>
    <path class="c" d="M1422.76,115.56v34.37h-19.22V35.29h19.22v5.54a24.36,24.36,0,0,1,17.78-7.07q39.38,0,39.36,43.36,0,20.22-10.87,31.14t-29.72,10.92A37.57,37.57,0,0,1,1422.76,115.56Zm0-60.12V98.72A18.88,18.88,0,0,0,1435,103q13.32,0,19.12-6.34t5.81-20c0-9.73-1.94-16.58-5.76-20.55s-10.22-6-19.08-6A17,17,0,0,0,1422.76,55.44Z"/>
    <path class="c" d="M1570.33,82.35H1511.5c.35,6.57,2.61,11.65,6.76,15.31s9.75,5.44,16.77,5.44q13.14,0,20-6.84l7.45,14.7q-10.14,8.24-30.29,8.22-18.84,0-29.79-11t-11-30.79q0-19.45,12-31.53a39.38,39.38,0,0,1,28.88-12.06q17.92,0,28.75,10.68t10.84,27.21A54,54,0,0,1,1570.33,82.35ZM1512.2,67.9h40.42q-2-18.09-20-18.08Q1516.2,49.82,1512.2,67.9Z"/>
    <path class="c" d="M818.62,252V139.38h20V252Z"/>
    <path class="c" d="M913.91,252V204.44c0-7-1.36-12.15-4-15.38s-7.08-4.84-13.19-4.84a20.39,20.39,0,0,0-9,2.38,20.77,20.77,0,0,0-7.49,5.91V252H860.91V169.68h13.86l3.52,7.69q7.85-9.24,23.15-9.22c9.81,0,17.52,2.93,23.2,8.79s8.48,14.07,8.48,24.58V252Z"/>
    <path class="c" d="M988,253.59h-6.93l-37.2-83.91H965L984.66,220l21.14-50.29h20.39Z"/>
    <path class="c" d="M1110.46,216.75h-58.81c.33,6.57,2.6,11.65,6.76,15.3s9.73,5.45,16.74,5.45c8.78,0,15.45-2.26,20-6.85l7.45,14.71q-10.14,8.23-30.3,8.23-18.84,0-29.78-11.05t-11-30.8q0-19.45,12-31.53a39.3,39.3,0,0,1,28.86-12.06q17.92,0,28.76,10.68T1112,206.05A53,53,0,0,1,1110.46,216.75Zm-58.14-14.45h40.45q-2-18.11-20-18.08Q1056.32,184.22,1052.32,202.3Z"/>
    <path class="c" d="M1122.38,246.73l6.85-15.3a30.43,30.43,0,0,0,19.46,6.85q11.22,0,11.22-8a9.83,9.83,0,0,0-3.38-7.69c-2.26-2-6.64-4.34-13.14-7.08q-21.32-8.82-21.32-24.75c0-7.12,2.74-12.68,8.17-16.65s12.37-6,20.82-6a52.37,52.37,0,0,1,24.15,5.76l-5.52,14.91c-4.22-3.58-10-5.37-17.54-5.37q-10.08,0-10.09,8c0,2.09,1.11,4,3.33,5.67s6.91,4,14.14,6.8,12.43,6.31,15.61,10.35a23.08,23.08,0,0,1,4.77,14.7q0,11.45-8.5,18t-23.11,6.59a51.42,51.42,0,0,1-13.2-1.36A64.77,64.77,0,0,1,1122.38,246.73Z"/>
    <path class="c" d="M1198.21,185.13h-9.53V169.68h9.53V152.91l19.23-7.07v23.84H1240v15.45h-22.6v36.08q0,8.85,2.76,12.49c1.85,2.43,5.07,3.65,9.71,3.65a23.84,23.84,0,0,0,12.89-3.76v17.68q-6.67,2.31-19.06,2.32c-8.2,0-14.49-2.32-18.93-7s-6.6-11.25-6.6-19.82Z"/>
  </g>
</svg>
