<svg xmlns="http://www.w3.org/2000/svg" viewBox="0 0 1294.37 283.46"><title>Asset 4</title><g id="Layer_2" data-name="Layer 2"><g id="Layer_1-2" data-name="Layer 1"><path d="M0,242q13.7-.9,19.75-3.92,10.68-5.52,10.68-20.11V38.24q0-14.05-10.14-19.57Q14.41,15.46,0,14.21V5H111.39q67.43,0,102.84,35.94,32.21,32.73,32.21,87.89,0,49.47-32.39,83.81-36.48,38.61-98.93,38.61H0Zm93.5-8q3.65,5,15.57,5,32.38,0,53.2-22.88t20.82-87.8q0-38.61-11.21-66.37-18.15-44.65-61.2-44.66-14.25,0-18.51,6.05-2.85,3.91-2.85,15.12V217.76Q89.86,229,93.5,234Z"/><path d="M250.56,242q14.58-.71,20.64-4.1,10.14-5.69,10.14-21.53V39.84q0-15.38-9.07-20.86-5.53-3.18-21.71-4.77V5h123.3v9.24q-16,.88-22.24,4.24Q341.3,24.1,341.3,39.84v75.62h86.83V39.84q0-15.74-9.79-21.21-6-3.36-22.59-4.42V5h124v9.24q-16,1.23-21.89,4.6-9.78,5.48-9.79,21v176.5q0,16,10.86,21.71,6.23,3.39,20.82,3.92v9.25h-124V242q15.66-.54,22.24-4.27,10.14-5.7,10.14-21.36v-84H341.3v84q0,16.18,11,21.89,6.41,3.21,21.53,3.74v9.25H250.56Z"/><path d="M809.31,110.82,816.65,93q11.77,8.25,23.18,8.26,17.52,0,17.51-12.24a17.36,17.36,0,0,0-4.13-10.93q-4.12-5.2-17-11.66T818.83,55.8A28.42,28.42,0,0,1,812,45.89a32.41,32.41,0,0,1-2.41-12.7,27.78,27.78,0,0,1,9.52-21.57q9.53-8.56,24.44-8.56,19.43,0,28.52,7.27l-6,17.12Q855.5,20,843.88,20,837,20,833.21,23.6A12.51,12.51,0,0,0,829.42,33q0,9.65,21.34,20Q862,58.59,867,63.21A31.16,31.16,0,0,1,874.55,74a35.07,35.07,0,0,1,2.6,13.73,27.7,27.7,0,0,1-10.74,22.41q-10.75,8.79-28.8,8.8A51.18,51.18,0,0,1,809.31,110.82Z" style="fill:#ed1c24"/><path d="M888.23,75.87q0-18.73,10.83-30.52t28.57-11.77q18.64,0,29,11.32t10.32,31q0,19.57-10.51,31.13t-28.79,11.54q-18.68,0-29-11.66T888.23,75.87Zm19.89,0q0,27.07,19.51,27.07a16.73,16.73,0,0,0,14.18-7q5.25-7,5.24-20,0-26.69-19.42-26.7a16.9,16.9,0,0,0-14.23,7Q908.12,63.25,908.12,75.87Z" style="fill:#ed1c24"/><path d="M982.46,4.59,1001.58,0V92.09q0,15.14,9,18-4.44,8.41-15.14,8.41-13,0-13-18Z" style="fill:#ed1c24"/><path d="M1068.49,108.83q-2.6,4.28-9.06,7a34.51,34.51,0,0,1-13.49,2.71q-13.25,0-20.81-6.61t-7.57-18.77q0-14.23,10.67-22.27t30.32-8a33.83,33.83,0,0,1,8,1.15q0-14.45-18.29-14.44c-7.19,0-13.19,1.19-18,3.58l-4.13-14.83q9.85-4.74,23.48-4.74,18.73,0,27.45,8.52t8.72,32.32v17.5q0,16.36,6.58,20.57-2.37,4.14-5.28,5.1a21.18,21.18,0,0,1-6.65,1,10.57,10.57,0,0,1-7.42-3.06A15.6,15.6,0,0,1,1068.49,108.83Zm-1.83-30.35a39.2,39.2,0,0,0-7.34-1q-22.65,0-22.64,14.83,0,11,12.77,11,17.21,0,17.21-17.2Z" style="fill:#ed1c24"/><path d="M1152.46,52.93a20,20,0,0,0-11.24-3.36c-4.44,0-8.37,2-11.81,6a22,22,0,0,0-5.17,14.76V117h-19.11V35.11h19.11V42.6q8-9,21.34-9,9.8,0,15,3Z" style="fill:#ed1c24"/><path d="M836.19,156.49v26.32h37.16v17H836.19v33.7h51v17.74H816.24V138.74H888v17.75Z" style="fill:#ed1c24"/><path d="M953.48,251.22V203.69q0-10.5-4-15.34t-13.17-4.85a20.5,20.5,0,0,0-9,2.38,20.83,20.83,0,0,0-7.48,5.92v59.42H900.59V169h13.82l3.53,7.67q7.83-9.21,23.11-9.21,14.66,0,23.14,8.79t8.49,24.53v50.44Z" style="fill:#ed1c24"/><path d="M1064.58,216h-58.72q.52,9.84,6.76,15.29t16.73,5.45q13.13,0,20-6.83l7.46,14.66q-10.14,8.21-30.26,8.22-18.79,0-29.74-11T985.82,211q0-19.41,12-31.47a39.27,39.27,0,0,1,28.82-12q17.89,0,28.72,10.67t10.83,27.17A53.21,53.21,0,0,1,1064.58,216Zm-58-14.42h40.37q-2-18-20-18.05Q1010.55,183.5,1006.55,201.55Z" style="fill:#ed1c24"/><path d="M1126.82,186.88a20.15,20.15,0,0,0-11.28-3.38q-6.68,0-11.86,6.07a22,22,0,0,0-5.19,14.81v46.84H1079.3V169h19.19v7.52q8.05-9.06,21.42-9.06,9.84,0,15,3Z" style="fill:#ed1c24"/><path d="M1135,272.33l12.13-15q10,9.21,22.42,9.21,8.28,0,13.66-2.46t5.38-6.75q0-7.29-11.91-7.3a90.69,90.69,0,0,0-9.59.77,85.68,85.68,0,0,1-9.6.77q-19.8,0-19.8-14.2a12.33,12.33,0,0,1,3.3-8,20.2,20.2,0,0,1,7.67-5.75q-14-9.14-14.05-25.88a28,28,0,0,1,9.68-21.83q9.68-8.64,23.8-8.64,11.06,0,18.49,4.14l7.53-8.75,13.29,12.06-9.14,6.68a30.23,30.23,0,0,1,4.76,17q0,14-8.57,22.45t-21.61,8.4a51.21,51.21,0,0,1-5.52-.38l-3.15-.46a21.21,21.21,0,0,0-4.11,1.66q-3.57,1.64-3.57,3.41,0,3.08,5.3,3.07a45.48,45.48,0,0,0,8-1.15,48.81,48.81,0,0,1,9.6-1.16q28,0,28,22.51,0,12.41-11.21,19.54t-27,7.09A56.61,56.61,0,0,1,1135,272.33Zm19.19-74.47q0,7.29,4,11.71t10.86,4.41q6.84,0,10.52-4.3c2.46-2.87,3.69-6.8,3.69-11.82a15,15,0,0,0-4-10.51,13.24,13.24,0,0,0-10.25-4.3,14.19,14.19,0,0,0-14.89,14.81Z" style="fill:#ed1c24"/><path d="M1258.37,264.42q-3.07,8.22-13.17,13.63t-23.54,5.41v-17q22.2,0,22.2-11.13,0-7.37-6.15-22.56L1212,169h19.89l22.41,56.8,20.2-56.8h19.88Z" style="fill:#ed1c24"/><path d="M742.93,251.21a41,41,0,0,0,41-41.05V46a41,41,0,0,0-41-41H578.76a41,41,0,0,0-41,41V251.21Z" style="fill:#ed1c24"/><path d="M641,162.47a145.87,145.87,0,0,0,19.65,1.18,144.18,144.18,0,0,0,19.86-1.22,46,46,0,1,0-39.51,0Z" style="fill:#fff"/><path d="M660.69,236.68a69.78,69.78,0,0,1-10-.72l-.68-.11a1,1,0,0,1-.74-.53l-.34-.69c-2.18-4.34-4.41-7.49-6.46-9.09-.26-.2-.61-.44-1-.74l-.14-.09a42.11,42.11,0,0,1-7.49-6.25,1.35,1.35,0,0,1-.21-.2.53.53,0,0,1-.11-.14,21.17,21.17,0,0,1-4.4-7.33,6.54,6.54,0,0,0-.88-1,6,6,0,0,1-2.14-4.22,7.87,7.87,0,0,1,1.41-4.22,3.37,3.37,0,0,0,.66-1.5c0-.26-.08-.42-.58-1.08a6,6,0,0,1-1.49-3.78,7.91,7.91,0,0,1,1.41-4.23,3.37,3.37,0,0,0,.66-1.5c0-.25-.09-.42-.58-1.08a6,6,0,0,1-1.49-3.79,7.87,7.87,0,0,1,1.41-4.22,3.37,3.37,0,0,0,.66-1.5h0a6.72,6.72,0,0,0-.68-1.19,5.91,5.91,0,0,1-1.39-3.66v-8.88a1,1,0,0,1,.59-.91,1.13,1.13,0,0,1,.39-.08,1,1,0,0,1,.69.28c1.65,1.59,11.88,4.88,32.93,4.88s31.32-3.31,33-4.91a1,1,0,0,1,.69-.28,1,1,0,0,1,1,1v13.31a8.1,8.1,0,0,1-1.45,4.36,3.81,3.81,0,0,0-.63,1.29c.08.14.31.44.4.58a6.76,6.76,0,0,1,1.68,4.36,8,8,0,0,1-1.45,4.35,3.91,3.91,0,0,0-.63,1.3c.08.14.31.45.4.57a6.84,6.84,0,0,1,1.68,4.37,8,8,0,0,1-1.45,4.35,3.38,3.38,0,0,0-.64,1.38c0,10.65-9.21,16.94-13.15,19.64l-.24.16c-.39.27-.71.49-.94.67-2.07,1.61-4.3,4.76-6.47,9.09l-.35.69a.94.94,0,0,1-.73.53l-.68.11A67.76,67.76,0,0,1,660.69,236.68ZM652.53,231a62.54,62.54,0,0,0,8.17.52,61.9,61.9,0,0,0,8.15-.52,43.53,43.53,0,0,1,3-4.87,60.08,60.08,0,0,1-22.26,0A43.53,43.53,0,0,1,652.53,231Zm-15.7-16.48a.61.61,0,0,1,.17.15c4.17,4.66,12.8,7.34,23.68,7.34s19.61-2.68,23.71-7.33a14.83,14.83,0,0,0,4.05-8.49c-5.4,1.77-15.92,3-27.69,3.1h-2.3c-3.16,0-6.27-.08-9.25-.24a1,1,0,0,1-.93-1,1,1,0,0,1,1-1c3.68-.1,7.63-.35,11.74-.75,19-1.83,29.21-5.47,29.57-7v-.12a2.57,2.57,0,0,0-.56-.92,7.75,7.75,0,0,1-1-1.68c-6.34,3.37-19.71,3.89-27.41,3.89h-1c-1.64,0-2.92-.06-4.67-.15a1,1,0,0,1,0-2c1.73-.08,3.51-.21,5.28-.38,15.44-1.49,27.15-4.92,29.16-8.53a1.7,1.7,0,0,0,.23-.7c0-.25-.1-.42-.59-1.07a7.86,7.86,0,0,1-1-1.67c-5.28,2.91-15.9,4.75-27.79,4.75h-.61c-1.64,0-2.92-.06-4.67-.15a1,1,0,0,1,0-2c1.71-.08,3.49-.21,5.28-.38,16.43-1.59,27.29-6,29.16-9.4a1.65,1.65,0,0,0,.23-.7V171c-10.23,3.13-27.85,3.22-29.9,3.22S641,174.14,630.81,171v2.66s0,0,0,0l.3.41.37.53c2,2.11,7,3.67,13.88,4.3a1,1,0,0,1,.06,2,44.58,44.58,0,0,1-7,.61,18.67,18.67,0,0,1-5.93-.8,10.57,10.57,0,0,1-1.08,2.26,4.33,4.33,0,0,0-.63,1.26v0c1,2.1,7.18,4.32,18.54,4.51a1,1,0,0,1,1,.93,1,1,0,0,1-.85,1,66.7,66.7,0,0,1-8.93.69,22.85,22.85,0,0,1-7.76-1.06,8.82,8.82,0,0,1-1.33,3.17,4.6,4.6,0,0,0-.64,1.29v0c1.1,2.23,7.34,3.45,18.54,3.64a1,1,0,0,1,1,.93,1,1,0,0,1-.85,1,92.73,92.73,0,0,1-11.65,1.07,16.35,16.35,0,0,1-5-.61,9.29,9.29,0,0,1-1.34,3.22,6.45,6.45,0,0,0-.6,1.13c.51.4,2.71,1.57,11.23,1.82a1,1,0,0,1,.15,1.95,45.32,45.32,0,0,1-7.56.83l-.87,0A16.52,16.52,0,0,0,636.83,214.51Z" style="fill:#fff"/><path d="M719.25,124.46l41.93-10.9-43-5.08,37.43-21.81L712.8,93.38,743,62.28l-39.4,18L724.2,42.2l-33.07,28,9.61-42.24L676.43,63.79l-2.14-43.27L660.56,61.61,646.82,20.52l-2.14,43.27-24.3-35.86L630,70.17l-33.1-28,20.65,38.09-39.39-18,30.16,31.1-42.8-6.71L603,108.48l-43,5.08,41.93,10.9L561.81,141l43.31-.82L571,166.85l41.48-12.47-25.64,34.9,40.23-25.46a54.58,54.58,0,1,1,67.22.07l40,25.39-25.64-34.9,41.47,12.47L716,140.14l43.32.82Z" style="fill:#fff"/></g></g></svg>