<svg xmlns="http://www.w3.org/2000/svg" xmlns:xlink="http://www.w3.org/1999/xlink" viewBox="0 0 1380.76 496.58">
    <defs>
        <clipPath id="clip-path">
            <path d="M542.23,372.44h53.69v-53.7H542.23Zm64.86,0h53.7v-53.7h-53.7Zm64.86,0h53.7v-53.7H672Zm64.88-53.7v53.7h12.3a41.39,41.39,0,0,0,41.39-41.39V318.74Zm-194.6-11.17h53.69v-53.7H542.23Zm64.86,0h53.7v-53.7h-53.7Zm118.56-53.7H672v53.7h53.7Zm11.18,53.7h53.69v-53.7H736.83ZM542.23,242.7h53.69V189H542.23Zm64.86,0h53.7V189h-53.7Zm64.86,0h53.7V189H672Zm64.88,0h53.69V189H736.83ZM583.61,124.15a41.38,41.38,0,0,0-41.38,41.38v12.31h53.69V124.15Zm23.48,53.69h53.7V124.15h-53.7Zm64.86,0h53.7V124.15H672Zm64.88-53.69v53.69h53.69V165.53a41.38,41.38,0,0,0-41.39-41.38Z"/>
        </clipPath>
    </defs>
    <path fill="black" d="M94.27,355q3.67,5,15.7,5,32.66,0,53.64-23.06t21-88.52q0-38.93-11.31-66.91-18.3-45-61.7-45-14.36,0-18.66,6.09c-1.92,2.64-2.86,7.72-2.86,15.26V338.7c.34,7.55,1.74,13,4.2,16.32M0,363.1c9.22-.61,15.84-1.92,19.92-4q10.75-5.58,10.76-20.28V157.69q0-14.17-10.22-19.73Q14.52,134.74,0,133.47v-9.33H112.31q68,0,103.69,36.25,32.46,33,32.47,88.6,0,49.89-32.66,84.51Q179,372.41,116.07,372.43H0Z" />
    <path fill="black" d="M252.62,363.1q14.72-.72,20.82-4.12,10.21-5.76,10.22-21.72v-178q0-15.51-9.15-21c-3.72-2.15-11-3.74-21.89-4.81v-9.33H376.93v9.33q-16.12.9-22.4,4.27-10.42,5.72-10.41,21.56v76.24h87.54V159.3q0-15.87-9.87-21.38c-4.05-2.24-11.65-3.75-22.78-4.45v-9.33h125v9.33c-10.77.82-18.12,2.38-22.08,4.63q-9.86,5.53-9.86,21.2v178q0,16.14,10.95,21.89,6.27,3.42,21,4v9.33H399V363.1q15.8-.53,22.42-4.31,10.23-5.76,10.23-21.53V252.58H344.12v84.68q0,16.32,11.12,22.07,6.45,3.23,21.69,3.77v9.33H252.62" />
    <g style="clip-path:url(#clip-path)">
        <rect fill="black" x="490.81" y="72.72" width="351.14" height="351.14" transform="translate(19.61 543.92) rotate(-45)"/>
    </g>
    <path fill="black" d="M906.52,268.44l-8.41,16.14c-2.39-2.11-6-4.2-11-6.3s-9.2-3.13-12.75-3.13q-16.68,0-26.35,11.33t-9.65,30.32q0,18.07,9.47,28.89T873.6,356.5q10.75,0,17.69-5.86V328.38H875.61V311.23h35.78v50.69q-7.18,5.86-18.51,9.16a80.81,80.81,0,0,1-22.52,3.29q-24.35,0-38.59-16t-14.25-42.14q0-26.19,15.54-42.57t41.78-16.38q18.61,0,31.68,11.13" />
    <path fill="black" d="M976.47,307.69a20.32,20.32,0,0,0-11.34-3.41q-6.74,0-12,6.11A22.2,22.2,0,0,0,948,325.3v47.14H928.65V289.69H948v7.56q8.12-9.12,21.56-9.11,9.88,0,15.15,3" />
    <path fill="black" d="M985.81,330.86q0-18.92,10.93-30.83t28.86-11.89q18.86,0,29.27,11.43t10.44,31.29q0,19.78-10.62,31.44T1025.6,374q-18.85,0-29.32-11.8t-10.47-31.33m20.09,0q0,27.34,19.7,27.36a16.91,16.91,0,0,0,14.33-7.12q5.28-7.1,5.29-20.24,0-27-19.62-27a17,17,0,0,0-14.37,7.1q-5.34,7.13-5.33,19.86" />
    <path fill="black" d="M1132.52,372.51v-7a34.53,34.53,0,0,1-11.28,5.95A40.87,40.87,0,0,1,1108,374q-28.83,0-28.82-30.61V289.69h19.32v52.22q0,15.93,14.29,15.91a23.15,23.15,0,0,0,12.2-3.39c3.77-2.26,6.27-4.9,7.5-7.89V289.69h19.32v82.82" />
    <path fill="black" d="M1189.17,370.35v34.54h-19.31V289.69h19.31v5.56a24.53,24.53,0,0,1,17.85-7.11q39.56,0,39.55,43.58,0,20.31-10.93,31.29t-29.86,11a37.61,37.61,0,0,1-16.61-3.64m0-60.42v43.5a19,19,0,0,0,12.29,4.25q13.35,0,19.19-6.38t5.84-20.12q0-14.69-5.79-20.68c-3.88-4-10.25-6-19.16-6a17,17,0,0,0-12.37,5.41" />
    <path fill="black" d="M906.52,268.44l-8.41,16.14c-2.39-2.11-6-4.2-11-6.3s-9.2-3.13-12.75-3.13q-16.68,0-26.35,11.33t-9.65,30.32q0,18.07,9.47,28.89T873.6,356.5q10.75,0,17.69-5.86V328.38H875.61V311.23h35.78v50.69q-7.18,5.86-18.51,9.16a80.81,80.81,0,0,1-22.52,3.29q-24.35,0-38.59-16t-14.25-42.14q0-26.19,15.54-42.57t41.78-16.38q18.61,0,31.68,11.13" />
    <path fill="black" d="M976.47,307.69a20.32,20.32,0,0,0-11.34-3.41q-6.74,0-12,6.11A22.2,22.2,0,0,0,948,325.3v47.14H928.65V289.69H948v7.56q8.12-9.12,21.56-9.11,9.88,0,15.15,3" />
    <path fill="black" d="M985.81,330.86q0-18.92,10.93-30.83t28.86-11.89q18.86,0,29.27,11.43t10.44,31.29q0,19.78-10.62,31.44T1025.6,374q-18.85,0-29.32-11.8t-10.47-31.33m20.09,0q0,27.34,19.7,27.36a16.91,16.91,0,0,0,14.33-7.12q5.28-7.1,5.29-20.24,0-27-19.62-27a17,17,0,0,0-14.37,7.1q-5.34,7.13-5.33,19.86" />
    <path fill="black" d="M1132.52,372.51v-7a34.53,34.53,0,0,1-11.28,5.95A40.87,40.87,0,0,1,1108,374q-28.83,0-28.82-30.61V289.69h19.32v52.22q0,15.93,14.29,15.91a23.15,23.15,0,0,0,12.2-3.39c3.77-2.26,6.27-4.9,7.5-7.89V289.69h19.32v82.82" />
    <path fill="black" d="M1189.17,370.35v34.54h-19.31V289.69h19.31v5.56a24.53,24.53,0,0,1,17.85-7.11q39.56,0,39.55,43.58,0,20.31-10.93,31.29t-29.86,11a37.61,37.61,0,0,1-16.61-3.64m0-60.42v43.5a19,19,0,0,0,12.29,4.25q13.35,0,19.19-6.38t5.84-20.12q0-14.69-5.79-20.68c-3.88-4-10.25-6-19.16-6a17,17,0,0,0-12.37,5.41" />
    <path fill="black" d="M1287.61,368.38a9.28,9.28,0,0,1-4.58,3.53,17.27,17.27,0,0,1-6.81,1.38q-6.67,0-10.5-3.34t-3.83-9.48a13.25,13.25,0,0,1,5.39-11.23q5.38-4.07,15.32-4.06a16.3,16.3,0,0,1,4,.58c0-4.88-3.08-7.3-9.23-7.3a20.42,20.42,0,0,0-9.11,1.82l-2.09-7.5a27.06,27.06,0,0,1,11.85-2.39q9.46,0,13.87,4.3t4.4,16.32v8.84q0,8.26,3.32,10.39a5.22,5.22,0,0,1-2.67,2.56,10.45,10.45,0,0,1-3.35.49,5.41,5.41,0,0,1-3.75-1.54,8,8,0,0,1-2.24-3.37m-.93-15.33a20.92,20.92,0,0,0-3.7-.5q-11.43,0-11.43,7.49,0,5.56,6.44,5.57,8.68,0,8.69-8.7Z" />
    <path fill="black" d="M1307.23,367.45a7,7,0,0,1,13.91,0,6.77,6.77,0,0,1-2,4.95,7,7,0,0,1-9.84,0,6.76,6.76,0,0,1-2-4.95" />
    <path fill="black" d="M1330.06,369.85l3.42-7.69a15.33,15.33,0,0,0,9.78,3.45c3.75,0,5.63-1.35,5.63-4a4.92,4.92,0,0,0-1.69-3.86,26.17,26.17,0,0,0-6.61-3.55q-10.69-4.44-10.69-12.44a9.78,9.78,0,0,1,4.09-8.36,17.27,17.27,0,0,1,10.46-3,26.27,26.27,0,0,1,12.12,2.89l-2.77,7.49c-2.11-1.79-5-2.7-8.81-2.7q-5.06,0-5.06,4a3.63,3.63,0,0,0,1.67,2.86,34.54,34.54,0,0,0,7.1,3.42q5.44,2.14,7.84,5.19a11.61,11.61,0,0,1,2.4,7.38,10.82,10.82,0,0,1-4.28,9.05q-4.26,3.3-11.6,3.31a25.64,25.64,0,0,1-6.62-.69,31.44,31.44,0,0,1-6.38-2.75" />
    <path fill="black" d="M1366.85,367.45a7,7,0,1,1,13.91,0,6.8,6.8,0,0,1-2,4.95,7,7,0,0,1-9.84,0,6.77,6.77,0,0,1-2-4.95"/>
</svg>