<?xml version="1.0" encoding="utf-8"?>
<!-- Generator: Adobe Illustrator 23.0.4, SVG Export Plug-In . SVG Version: 6.00 Build 0)  -->
<svg version="1.1" id="Layer_1" xmlns="http://www.w3.org/2000/svg" xmlns:xlink="http://www.w3.org/1999/xlink" x="0px" y="0px"
	 viewBox="0 0 1380.8 280.8" style="enable-background:new 0 0 1380.8 280.8;" xml:space="preserve">
<style type="text/css">
	.st0{fill:#231F20;}
	.st1{fill:url(#SVGID_1_);}
	.st2{fill:url(#SVGID_2_);}
	.st3{fill:url(#SVGID_3_);}
	.st4{fill:url(#SVGID_4_);}
	.st5{fill:url(#SVGID_5_);}
	.st6{fill:url(#SVGID_6_);}
	.st7{fill:url(#SVGID_7_);}
	.st8{fill:url(#SVGID_8_);}
	.st9{fill:url(#SVGID_9_);}
	.st10{fill:url(#SVGID_10_);}
	.st11{fill:url(#SVGID_11_);}
	.st12{fill:url(#SVGID_12_);}
	.st13{fill:url(#SVGID_13_);}
	.st14{fill:url(#SVGID_14_);}
	.st15{fill:url(#SVGID_15_);}
	.st16{fill:url(#SVGID_16_);}
</style>
<title>Asset 25</title>
<g>
	<g id="Layer_1-2">
		<path class="st0" d="M94.3,230.9c2.4,3.3,7.7,5,15.7,5c21.8,0,39.7-7.7,53.6-23.1c14-15.4,21-44.9,21-88.5
			c0-26-3.8-48.3-11.3-66.9c-12.2-30-32.8-45-61.7-45c-9.6,0-15.8,2-18.7,6.1c-1.9,2.6-2.9,7.7-2.9,15.3v180.8
			C90.4,222.1,91.8,227.6,94.3,230.9 M0,239c9.2-0.6,15.8-1.9,19.9-4c7.2-3.7,10.8-10.5,10.8-20.3V33.6c0-9.4-3.4-16-10.2-19.7
			c-4-2.1-10.8-3.6-20.5-4.5V0h112.3c45.3,0,79.9,12.1,103.7,36.2c21.6,22,32.5,51.5,32.5,88.6c0,33.3-10.9,61.4-32.7,84.5
			c-24.5,25.9-57.8,38.9-99.7,38.9H0V239z"/>
		<path class="st0" d="M252.6,239c9.8-0.5,16.8-1.9,20.8-4.1c6.8-3.8,10.2-11.1,10.2-21.7v-178c0-10.3-3-17.3-9.1-21
			c-3.7-2.1-11-3.7-21.9-4.8V0h124.3v9.3c-10.7,0.6-18.2,2-22.4,4.3c-6.9,3.8-10.4,11-10.4,21.6v76.2h87.5V35.2
			c0-10.6-3.3-17.7-9.9-21.4c-4-2.2-11.6-3.8-22.8-4.4V0h125v9.3c-10.8,0.8-18.1,2.4-22.1,4.6c-6.6,3.7-9.9,10.8-9.9,21.2v178
			c0,10.8,3.7,18.1,11,21.9c4.2,2.3,11.2,3.6,21,4v9.3H399V239c10.5-0.4,18-1.8,22.4-4.3c6.8-3.8,10.2-11,10.2-21.5v-84.7h-87.5
			v84.7c0,10.9,3.7,18.2,11.1,22.1c4.3,2.2,11.5,3.4,21.7,3.8v9.3H252.6"/>
		<path class="st0" d="M906.5,144.3l-8.4,16.1c-2.4-2.1-6-4.2-11-6.3s-9.2-3.1-12.8-3.1c-11.1,0-19.9,3.8-26.3,11.3
			c-6.4,7.6-9.7,17.7-9.7,30.3c0,12,3.2,21.7,9.5,28.9c6.3,7.2,14.9,10.8,25.8,10.8c7.2,0,13.1-2,17.7-5.9v-22.3h-15.7v-17.1h35.8
			v50.7c-4.8,3.9-11,7-18.5,9.2c-7.3,2.2-14.9,3.3-22.5,3.3c-16.2,0-29.1-5.3-38.6-16c-9.5-10.7-14.2-24.7-14.2-42.1
			c0-17.5,5.2-31.6,15.5-42.6s24.3-16.4,41.8-16.4C887.2,133.2,897.8,136.9,906.5,144.3"/>
		<path class="st0" d="M976.5,183.6c-3.4-2.2-7.3-3.4-11.3-3.4c-4.5,0-8.5,2-12,6.1c-3.5,4.2-5.3,9.5-5.1,14.9v47.1h-19.3v-82.8H948
			v7.6c5.4-6.1,12.6-9.1,21.6-9.1c6.6,0,11.6,1,15.2,3"/>
		<path class="st0" d="M985.8,206.7c0-12.6,3.6-22.9,10.9-30.8c7.3-7.9,16.9-11.9,28.9-11.9c12.6,0,22.3,3.8,29.3,11.4
			c6.9,7.6,10.4,18,10.4,31.3c0,13.2-3.5,23.7-10.6,31.4s-16.8,11.7-29.1,11.7c-12.6,0-22.3-3.9-29.3-11.8
			C989.3,230.2,985.8,219.8,985.8,206.7 M1005.9,206.8c0,18.2,6.6,27.3,19.7,27.4c5.7,0.2,11-2.5,14.3-7.1
			c3.5-4.7,5.3-11.5,5.3-20.2c0-18-6.5-27-19.6-27c-5.7-0.2-11.1,2.5-14.4,7.1C1007.7,191.6,1005.9,198.2,1005.9,206.8"/>
		<path class="st0" d="M1132.5,248.4v-7c-3.4,2.7-7.2,4.7-11.3,6c-4.2,1.6-8.7,2.4-13.2,2.5c-19.2,0-28.8-10.2-28.8-30.6v-53.7h19.3
			v52.2c0,10.6,4.8,15.9,14.3,15.9c4.3,0,8.5-1.1,12.2-3.4c3.8-2.3,6.3-4.9,7.5-7.9v-56.8h19.3v82.8"/>
		<path class="st0" d="M1189.2,246.2v34.5h-19.3V165.6h19.3v5.6c4.7-4.7,11.2-7.3,17.8-7.1c26.4,0,39.6,14.5,39.6,43.6
			c0,13.5-3.6,24-10.9,31.3c-7.3,7.3-17.2,11-29.9,11C1200,250,1194.4,248.7,1189.2,246.2 M1189.2,185.8v43.5
			c3.5,2.8,7.8,4.3,12.3,4.2c8.9,0,15.3-2.1,19.2-6.4c3.9-4.3,5.8-11,5.8-20.1c0-9.8-1.9-16.7-5.8-20.7c-3.9-4-10.2-6-19.2-6
			C1196.8,180.4,1192.4,182.4,1189.2,185.8"/>
		<path class="st0" d="M906.5,144.3l-8.4,16.1c-2.4-2.1-6-4.2-11-6.3s-9.2-3.1-12.8-3.1c-11.1,0-19.9,3.8-26.3,11.3
			c-6.4,7.6-9.7,17.7-9.7,30.3c0,12,3.2,21.7,9.5,28.9c6.3,7.2,14.9,10.8,25.8,10.8c7.2,0,13.1-2,17.7-5.9v-22.3h-15.7v-17.1h35.8
			v50.7c-4.8,3.9-11,7-18.5,9.2c-7.3,2.2-14.9,3.3-22.5,3.3c-16.2,0-29.1-5.3-38.6-16c-9.5-10.7-14.2-24.7-14.2-42.1
			c0-17.5,5.2-31.6,15.5-42.6s24.3-16.4,41.8-16.4C887.2,133.2,897.8,136.9,906.5,144.3"/>
		<path class="st0" d="M976.5,183.6c-3.4-2.2-7.3-3.4-11.3-3.4c-4.5,0-8.5,2-12,6.1c-3.5,4.2-5.3,9.5-5.1,14.9v47.1h-19.3v-82.8H948
			v7.6c5.4-6.1,12.6-9.1,21.6-9.1c6.6,0,11.6,1,15.2,3"/>
		<path class="st0" d="M985.8,206.7c0-12.6,3.6-22.9,10.9-30.8c7.3-7.9,16.9-11.9,28.9-11.9c12.6,0,22.3,3.8,29.3,11.4
			c6.9,7.6,10.4,18,10.4,31.3c0,13.2-3.5,23.7-10.6,31.4s-16.8,11.7-29.1,11.7c-12.6,0-22.3-3.9-29.3-11.8
			C989.3,230.2,985.8,219.8,985.8,206.7 M1005.9,206.8c0,18.2,6.6,27.3,19.7,27.4c5.7,0.2,11-2.5,14.3-7.1
			c3.5-4.7,5.3-11.5,5.3-20.2c0-18-6.5-27-19.6-27c-5.7-0.2-11.1,2.5-14.4,7.1C1007.7,191.6,1005.9,198.2,1005.9,206.8"/>
		<path class="st0" d="M1132.5,248.4v-7c-3.4,2.7-7.2,4.7-11.3,6c-4.2,1.6-8.7,2.4-13.2,2.5c-19.2,0-28.8-10.2-28.8-30.6v-53.7h19.3
			v52.2c0,10.6,4.8,15.9,14.3,15.9c4.3,0,8.5-1.1,12.2-3.4c3.8-2.3,6.3-4.9,7.5-7.9v-56.8h19.3v82.8"/>
		<path class="st0" d="M1189.2,246.2v34.5h-19.3V165.6h19.3v5.6c4.7-4.7,11.2-7.3,17.8-7.1c26.4,0,39.6,14.5,39.6,43.6
			c0,13.5-3.6,24-10.9,31.3c-7.3,7.3-17.2,11-29.9,11C1200,250,1194.4,248.7,1189.2,246.2 M1189.2,185.8v43.5
			c3.5,2.8,7.8,4.3,12.3,4.2c8.9,0,15.3-2.1,19.2-6.4c3.9-4.3,5.8-11,5.8-20.1c0-9.8-1.9-16.7-5.8-20.7c-3.9-4-10.2-6-19.2-6
			C1196.8,180.4,1192.4,182.4,1189.2,185.8"/>
		<path class="st0" d="M1287.6,244.3c-1.1,1.6-2.7,2.9-4.6,3.5c-2.2,0.9-4.5,1.4-6.8,1.4c-4.4,0-7.9-1.1-10.5-3.3s-3.8-5.4-3.8-9.5
			c-0.2-4.4,1.8-8.6,5.4-11.2c3.6-2.7,8.7-4.1,15.3-4.1c1.4,0,2.7,0.2,4,0.6c0-4.9-3.1-7.3-9.2-7.3c-3.1-0.1-6.3,0.5-9.1,1.8
			l-2.1-7.5c3.7-1.7,7.8-2.5,11.8-2.4c6.3,0,10.9,1.4,13.9,4.3c2.9,2.9,4.4,8.3,4.4,16.3v8.8c0,5.5,1.1,9,3.3,10.4
			c-0.5,1.2-1.5,2.1-2.7,2.6c-1.1,0.3-2.2,0.5-3.3,0.5c-1.4,0-2.7-0.6-3.8-1.5C1288.8,246.7,1288,245.6,1287.6,244.3 M1286.7,228.9
			c-1.2-0.3-2.5-0.4-3.7-0.5c-7.6,0-11.4,2.5-11.4,7.5c0,3.7,2.1,5.6,6.4,5.6c5.8,0,8.7-2.9,8.7-8.7L1286.7,228.9z"/>
		<path class="st0" d="M1307.2,243.3c0.4-3.8,3.9-6.6,7.7-6.2c3.2,0.4,5.8,2.9,6.2,6.2c0,1.9-0.7,3.6-2,5c-2.7,2.7-7.1,2.7-9.8,0
			C1308,247,1307.3,245.2,1307.2,243.3"/>
		<path class="st0" d="M1330.1,245.7l3.4-7.7c2.8,2.3,6.2,3.5,9.8,3.5c3.8,0,5.6-1.4,5.6-4c0-1.5-0.6-2.9-1.7-3.9
			c-2-1.5-4.2-2.7-6.6-3.5c-7.1-3-10.7-7.1-10.7-12.4c-0.1-3.3,1.4-6.4,4.1-8.4c3.1-2.1,6.7-3.2,10.5-3c4.2,0,8.4,1,12.1,2.9
			l-2.8,7.5c-2.1-1.8-5-2.7-8.8-2.7c-3.4,0-5.1,1.3-5.1,4c0.1,1.2,0.7,2.2,1.7,2.9c2.2,1.4,4.6,2.6,7.1,3.4c3.6,1.4,6.2,3.2,7.8,5.2
			c1.6,2.1,2.5,4.7,2.4,7.4c0.1,3.5-1.5,6.9-4.3,9c-2.8,2.2-6.7,3.3-11.6,3.3c-2.2,0.1-4.5-0.2-6.6-0.7
			C1334.2,247.8,1332.1,246.9,1330.1,245.7"/>
		<path class="st0" d="M1366.8,243.3c-0.4-3.8,2.3-7.3,6.2-7.7s7.3,2.3,7.7,6.2c0.1,0.5,0.1,1.1,0,1.6c0,1.9-0.7,3.6-2,5
			c-2.7,2.7-7.1,2.7-9.8,0C1367.6,247,1366.9,245.2,1366.8,243.3"/>
	</g>
</g>
<g>
	
		<radialGradient id="SVGID_1_" cx="1128.7781" cy="302.9617" r="164.6765" gradientTransform="matrix(-0.7071 -0.7071 0.7071 -0.7071 1306.6107 1189.0151)" gradientUnits="userSpaceOnUse">
		<stop  offset="0" style="stop-color:#29AAE1"/>
		<stop  offset="1" style="stop-color:#085DA9"/>
	</radialGradient>
	<polygon class="st1" points="725.7,118.6 725.7,64.9 672,64.9 672,118.6 	"/>
	
		<radialGradient id="SVGID_2_" cx="1128.7781" cy="302.9617" r="164.6765" gradientTransform="matrix(-0.7071 -0.7071 0.7071 -0.7071 1306.6107 1189.0151)" gradientUnits="userSpaceOnUse">
		<stop  offset="0" style="stop-color:#29AAE1"/>
		<stop  offset="1" style="stop-color:#085DA9"/>
	</radialGradient>
	<rect x="736.8" y="64.9" class="st2" width="53.7" height="53.7"/>
	
		<radialGradient id="SVGID_3_" cx="1128.7781" cy="302.9617" r="164.6765" gradientTransform="matrix(-0.7071 -0.7071 0.7071 -0.7071 1306.6107 1189.0151)" gradientUnits="userSpaceOnUse">
		<stop  offset="0" style="stop-color:#29AAE1"/>
		<stop  offset="1" style="stop-color:#085DA9"/>
	</radialGradient>
	<path class="st3" d="M790.5,41.4c0-22.9-18.5-41.4-41.4-41.4c0,0,0,0,0,0h-12.3v53.7h53.7V41.4z"/>
	
		<radialGradient id="SVGID_4_" cx="1128.7781" cy="302.9617" r="164.6765" gradientTransform="matrix(-0.7071 -0.7071 0.7071 -0.7071 1306.6107 1189.0151)" gradientUnits="userSpaceOnUse">
		<stop  offset="0" style="stop-color:#29AAE1"/>
		<stop  offset="1" style="stop-color:#085DA9"/>
	</radialGradient>
	<path class="st4" d="M736.8,248.3h12.3c22.9,0,41.4-18.5,41.4-41.4v-12.3h-53.7V248.3z"/>
	
		<radialGradient id="SVGID_5_" cx="1128.7781" cy="302.9617" r="164.6765" gradientTransform="matrix(-0.7071 -0.7071 0.7071 -0.7071 1306.6107 1189.0151)" gradientUnits="userSpaceOnUse">
		<stop  offset="0" style="stop-color:#29AAE1"/>
		<stop  offset="1" style="stop-color:#085DA9"/>
	</radialGradient>
	<polygon class="st5" points="725.7,194.6 672,194.6 672,248.3 725.7,248.3 	"/>
	
		<radialGradient id="SVGID_6_" cx="1128.7781" cy="302.9617" r="164.6765" gradientTransform="matrix(-0.7071 -0.7071 0.7071 -0.7071 1306.6107 1189.0151)" gradientUnits="userSpaceOnUse">
		<stop  offset="0" style="stop-color:#29AAE1"/>
		<stop  offset="1" style="stop-color:#085DA9"/>
	</radialGradient>
	<rect x="736.8" y="129.8" class="st6" width="53.7" height="53.7"/>
	
		<radialGradient id="SVGID_7_" cx="1128.7781" cy="302.9617" r="164.6765" gradientTransform="matrix(-0.7071 -0.7071 0.7071 -0.7071 1306.6107 1189.0151)" gradientUnits="userSpaceOnUse">
		<stop  offset="0" style="stop-color:#29AAE1"/>
		<stop  offset="1" style="stop-color:#085DA9"/>
	</radialGradient>
	<polygon class="st7" points="725.7,129.8 672,129.8 672,183.5 725.7,183.5 	"/>
	
		<radialGradient id="SVGID_8_" cx="1128.7781" cy="302.9617" r="164.6765" gradientTransform="matrix(-0.7071 -0.7071 0.7071 -0.7071 1306.6107 1189.0151)" gradientUnits="userSpaceOnUse">
		<stop  offset="0" style="stop-color:#29AAE1"/>
		<stop  offset="1" style="stop-color:#085DA9"/>
	</radialGradient>
	<polygon class="st8" points="725.7,0.1 672,0.1 672,53.7 725.7,53.7 	"/>
	
		<radialGradient id="SVGID_9_" cx="1128.7781" cy="302.9617" r="164.6765" gradientTransform="matrix(-0.7071 -0.7071 0.7071 -0.7071 1306.6107 1189.0151)" gradientUnits="userSpaceOnUse">
		<stop  offset="0" style="stop-color:#29AAE1"/>
		<stop  offset="1" style="stop-color:#085DA9"/>
	</radialGradient>
	<rect x="607.1" y="0.1" class="st9" width="53.7" height="53.7"/>
	
		<radialGradient id="SVGID_10_" cx="1128.7781" cy="302.9617" r="164.6765" gradientTransform="matrix(-0.7071 -0.7071 0.7071 -0.7071 1306.6107 1189.0151)" gradientUnits="userSpaceOnUse">
		<stop  offset="0" style="stop-color:#29AAE1"/>
		<stop  offset="1" style="stop-color:#085DA9"/>
	</radialGradient>
	<rect x="607.1" y="64.9" class="st10" width="53.7" height="53.7"/>
	
		<radialGradient id="SVGID_11_" cx="1128.7781" cy="302.9617" r="164.6765" gradientTransform="matrix(-0.7071 -0.7071 0.7071 -0.7071 1306.6107 1189.0151)" gradientUnits="userSpaceOnUse">
		<stop  offset="0" style="stop-color:#29AAE1"/>
		<stop  offset="1" style="stop-color:#085DA9"/>
	</radialGradient>
	<rect x="542.2" y="64.9" class="st11" width="53.7" height="53.7"/>
	
		<radialGradient id="SVGID_12_" cx="1128.7781" cy="302.9617" r="164.6765" gradientTransform="matrix(-0.7071 -0.7071 0.7071 -0.7071 1306.6107 1189.0151)" gradientUnits="userSpaceOnUse">
		<stop  offset="0" style="stop-color:#29AAE1"/>
		<stop  offset="1" style="stop-color:#085DA9"/>
	</radialGradient>
	<rect x="607.1" y="129.8" class="st12" width="53.7" height="53.7"/>
	
		<radialGradient id="SVGID_13_" cx="1128.7781" cy="302.9617" r="164.6765" gradientTransform="matrix(-0.7071 -0.7071 0.7071 -0.7071 1306.6107 1189.0151)" gradientUnits="userSpaceOnUse">
		<stop  offset="0" style="stop-color:#29AAE1"/>
		<stop  offset="1" style="stop-color:#085DA9"/>
	</radialGradient>
	<rect x="542.2" y="129.8" class="st13" width="53.7" height="53.7"/>
	
		<radialGradient id="SVGID_14_" cx="1128.7781" cy="302.9617" r="164.6765" gradientTransform="matrix(-0.7071 -0.7071 0.7071 -0.7071 1306.6107 1189.0151)" gradientUnits="userSpaceOnUse">
		<stop  offset="0" style="stop-color:#29AAE1"/>
		<stop  offset="1" style="stop-color:#085DA9"/>
	</radialGradient>
	<rect x="542.2" y="194.6" class="st14" width="53.7" height="53.7"/>
	
		<radialGradient id="SVGID_15_" cx="1128.7781" cy="302.9617" r="164.6765" gradientTransform="matrix(-0.7071 -0.7071 0.7071 -0.7071 1306.6107 1189.0151)" gradientUnits="userSpaceOnUse">
		<stop  offset="0" style="stop-color:#29AAE1"/>
		<stop  offset="1" style="stop-color:#085DA9"/>
	</radialGradient>
	<rect x="607.1" y="194.6" class="st15" width="53.7" height="53.7"/>
	<g>
		
			<radialGradient id="SVGID_16_" cx="1128.7781" cy="302.9617" r="164.6765" gradientTransform="matrix(-0.7071 -0.7071 0.7071 -0.7071 1306.6107 1189.0151)" gradientUnits="userSpaceOnUse">
			<stop  offset="0" style="stop-color:#29AAE1"/>
			<stop  offset="1" style="stop-color:#085DA9"/>
		</radialGradient>
		<path class="st16" d="M595.9,0.1h-12.3c-22.9,0-41.4,18.5-41.4,41.4v12.3h53.7V0.1z"/>
	</g>
</g>
</svg>
