<svg xmlns="http://www.w3.org/2000/svg" xmlns:xlink="http://www.w3.org/1999/xlink" viewBox="0 0 1765.8 280.7">
    <defs>
        <style>
            .a {
            fill: none;
            }

            .b {
            fill: #231f20;
            }

            .c {
            fill: url(#a);
            }
        </style>
        <radialGradient id="a" cx="1700.87" cy="934.01" r="164.68" gradientTransform="matrix(-0.71, -0.71, -0.71, 0.71, 2585.81, 718.88)" gradientUnits="userSpaceOnUse">
            <stop offset="0" stop-color="#29aae1"/>
            <stop offset="1" stop-color="#085da9"/>
        </radialGradient>
    </defs>
    <title>group-sized</title>
    <rect class="a" width="1765.8" height="280.7"/>
    <g>
        <path class="b" d="M94.3,230.9c2.4,3.3,7.7,5,15.7,5q32.7,0,53.6-23.1t21-88.5q0-39-11.3-66.9-18.3-45-61.7-45c-9.6,0-15.8,2-18.7,6.1C91,21.1,90,26.2,90,33.8V214.6c.4,7.5,1.8,13,4.3,16.3M0,239c9.2-.6,15.8-1.9,19.9-4,7.2-3.7,10.8-10.5,10.8-20.3V33.6c0-9.4-3.4-16-10.2-19.7C16.5,11.8,9.7,10.3,0,9.4V0H112.3q68,0,103.7,36.2,32.4,33,32.5,88.6c0,33.3-10.9,61.4-32.7,84.5q-36.75,38.85-99.7,38.9H0Z"/>
        <path class="b" d="M252.6,239c9.8-.5,16.8-1.9,20.8-4.1,6.8-3.8,10.2-11.1,10.2-21.7V35.2c0-10.3-3-17.3-9.1-21Q269,11.05,252.6,9.4V0H376.9V9.3c-10.7.6-18.2,2-22.4,4.3-6.9,3.8-10.4,11-10.4,21.6v76.2h87.5V35.2c0-10.6-3.3-17.7-9.9-21.4-4-2.2-11.6-3.8-22.8-4.4V0h125V9.3c-10.8.8-18.1,2.4-22.1,4.6-6.6,3.7-9.9,10.8-9.9,21.2v178c0,10.8,3.7,18.1,11,21.9,4.2,2.3,11.2,3.6,21,4v9.3H399V239c10.5-.4,18-1.8,22.4-4.3,6.8-3.8,10.2-11,10.2-21.5V128.5H344.1v84.7c0,10.9,3.7,18.2,11.1,22.1,4.3,2.2,11.5,3.4,21.7,3.8v9.3H252.6"/>
        <path class="b" d="M906.5,144.3l-8.4,16.1a41,41,0,0,0-11-6.3c-5-2.1-9.2-3.1-12.8-3.1-11.1,0-19.9,3.8-26.3,11.3s-9.7,17.7-9.7,30.3c0,12,3.2,21.7,9.5,28.9s14.9,10.8,25.8,10.8c7.2,0,13.1-2,17.7-5.9V204.1H875.6V187h35.8v50.7a52.55,52.55,0,0,1-18.5,9.2,78.06,78.06,0,0,1-22.5,3.3c-16.2,0-29.1-5.3-38.6-16s-14.2-24.7-14.2-42.1,5.2-31.6,15.5-42.6,24.3-16.4,41.8-16.4c12.3.1,22.9,3.8,31.6,11.2"/>
        <path class="b" d="M976.5,183.6a20.79,20.79,0,0,0-11.3-3.4c-4.5,0-8.5,2-12,6.1a22,22,0,0,0-5.1,14.9v47.1H928.8V165.5H948v7.6c5.4-6.1,12.6-9.1,21.6-9.1,6.6,0,11.6,1,15.2,3"/>
        <path class="b" d="M985.8,206.7c0-12.6,3.6-22.9,10.9-30.8s16.9-11.9,28.9-11.9c12.6,0,22.3,3.8,29.3,11.4s10.4,18,10.4,31.3-3.5,23.7-10.6,31.4-16.8,11.7-29.1,11.7c-12.6,0-22.3-3.9-29.3-11.8s-10.5-18.2-10.5-31.3m20.1.1c0,18.2,6.6,27.3,19.7,27.4a16.84,16.84,0,0,0,14.3-7.1c3.5-4.7,5.3-11.5,5.3-20.2,0-18-6.5-27-19.6-27a17,17,0,0,0-14.4,7.1c-3.5,4.6-5.3,11.2-5.3,19.8"/>
        <path class="b" d="M1132.5,248.4v-7a35.16,35.16,0,0,1-11.3,6,39.62,39.62,0,0,1-13.2,2.5q-28.8,0-28.8-30.6V165.6h19.3v52.2c0,10.6,4.8,15.9,14.3,15.9a22.94,22.94,0,0,0,12.2-3.4c3.8-2.3,6.3-4.9,7.5-7.9V165.6h19.3v82.8"/>
        <path class="b" d="M1189.2,246.2v34.5h-19.3V165.6h19.3v5.6a24.28,24.28,0,0,1,17.8-7.1q39.6,0,39.6,43.6c0,13.5-3.6,24-10.9,31.3s-17.2,11-29.9,11a38.08,38.08,0,0,1-16.6-3.8m0-60.4v43.5a18.93,18.93,0,0,0,12.3,4.2c8.9,0,15.3-2.1,19.2-6.4s5.8-11,5.8-20.1c0-9.8-1.9-16.7-5.8-20.7s-10.2-6-19.2-6a17.37,17.37,0,0,0-12.3,5.5"/>
        <path class="b" d="M906.5,144.3l-8.4,16.1a41,41,0,0,0-11-6.3c-5-2.1-9.2-3.1-12.8-3.1-11.1,0-19.9,3.8-26.3,11.3s-9.7,17.7-9.7,30.3c0,12,3.2,21.7,9.5,28.9s14.9,10.8,25.8,10.8c7.2,0,13.1-2,17.7-5.9V204.1H875.6V187h35.8v50.7a52.55,52.55,0,0,1-18.5,9.2,78.06,78.06,0,0,1-22.5,3.3c-16.2,0-29.1-5.3-38.6-16s-14.2-24.7-14.2-42.1,5.2-31.6,15.5-42.6,24.3-16.4,41.8-16.4c12.3.1,22.9,3.8,31.6,11.2"/>
        <path class="b" d="M976.5,183.6a20.79,20.79,0,0,0-11.3-3.4c-4.5,0-8.5,2-12,6.1a22,22,0,0,0-5.1,14.9v47.1H928.8V165.5H948v7.6c5.4-6.1,12.6-9.1,21.6-9.1,6.6,0,11.6,1,15.2,3"/>
        <path class="b" d="M985.8,206.7c0-12.6,3.6-22.9,10.9-30.8s16.9-11.9,28.9-11.9c12.6,0,22.3,3.8,29.3,11.4s10.4,18,10.4,31.3-3.5,23.7-10.6,31.4-16.8,11.7-29.1,11.7c-12.6,0-22.3-3.9-29.3-11.8s-10.5-18.2-10.5-31.3m20.1.1c0,18.2,6.6,27.3,19.7,27.4a16.84,16.84,0,0,0,14.3-7.1c3.5-4.7,5.3-11.5,5.3-20.2,0-18-6.5-27-19.6-27a17,17,0,0,0-14.4,7.1c-3.5,4.6-5.3,11.2-5.3,19.8"/>
        <path class="b" d="M1132.5,248.4v-7a35.16,35.16,0,0,1-11.3,6,39.62,39.62,0,0,1-13.2,2.5q-28.8,0-28.8-30.6V165.6h19.3v52.2c0,10.6,4.8,15.9,14.3,15.9a22.94,22.94,0,0,0,12.2-3.4c3.8-2.3,6.3-4.9,7.5-7.9V165.6h19.3v82.8"/>
        <path class="b" d="M1189.2,246.2v34.5h-19.3V165.6h19.3v5.6a24.28,24.28,0,0,1,17.8-7.1q39.6,0,39.6,43.6c0,13.5-3.6,24-10.9,31.3s-17.2,11-29.9,11a38.08,38.08,0,0,1-16.6-3.8m0-60.4v43.5a18.93,18.93,0,0,0,12.3,4.2c8.9,0,15.3-2.1,19.2-6.4s5.8-11,5.8-20.1c0-9.8-1.9-16.7-5.8-20.7s-10.2-6-19.2-6a17.37,17.37,0,0,0-12.3,5.5"/>
        <path class="b" d="M1287.6,244.3a8.94,8.94,0,0,1-4.6,3.5,18,18,0,0,1-6.8,1.4q-6.6,0-10.5-3.3c-2.6-2.2-3.8-5.4-3.8-9.5a13,13,0,0,1,5.4-11.2c3.6-2.7,8.7-4.1,15.3-4.1a13.36,13.36,0,0,1,4,.6c0-4.9-3.1-7.3-9.2-7.3a20.3,20.3,0,0,0-9.1,1.8l-2.1-7.5a26.84,26.84,0,0,1,11.8-2.4c6.3,0,10.9,1.4,13.9,4.3s4.4,8.3,4.4,16.3v8.8c0,5.5,1.1,9,3.3,10.4a4.92,4.92,0,0,1-2.7,2.6,12.57,12.57,0,0,1-3.3.5,6.05,6.05,0,0,1-3.8-1.5,8.32,8.32,0,0,1-2.2-3.4m-.9-15.4a23.48,23.48,0,0,0-3.7-.5q-11.4,0-11.4,7.5c0,3.7,2.1,5.6,6.4,5.6q8.7,0,8.7-8.7Z"/>
        <path class="b" d="M1307.2,243.3a7,7,0,0,1,7.7-6.2,7.11,7.11,0,0,1,6.2,6.2,7.2,7.2,0,0,1-2,5,6.94,6.94,0,0,1-9.8,0,7.57,7.57,0,0,1-2.1-5"/>
        <path class="b" d="M1330.1,245.7l3.4-7.7a15.28,15.28,0,0,0,9.8,3.5c3.8,0,5.6-1.4,5.6-4a5.22,5.22,0,0,0-1.7-3.9,23.24,23.24,0,0,0-6.6-3.5c-7.1-3-10.7-7.1-10.7-12.4a10,10,0,0,1,4.1-8.4,17,17,0,0,1,10.5-3,26.64,26.64,0,0,1,12.1,2.9l-2.8,7.5c-2.1-1.8-5-2.7-8.8-2.7-3.4,0-5.1,1.3-5.1,4a3.85,3.85,0,0,0,1.7,2.9,30.92,30.92,0,0,0,7.1,3.4,18.31,18.31,0,0,1,7.8,5.2,11.53,11.53,0,0,1,2.4,7.4,10.9,10.9,0,0,1-4.3,9c-2.8,2.2-6.7,3.3-11.6,3.3a24.3,24.3,0,0,1-6.6-.7,29.54,29.54,0,0,1-6.3-2.8"/>
        <path class="b" d="M1366.8,243.3a7,7,0,1,1,13.9-1.5,4.3,4.3,0,0,1,0,1.6,7.2,7.2,0,0,1-2,5,6.94,6.94,0,0,1-9.8,0,8,8,0,0,1-2.1-5.1"/>
    </g>
    <g>
        <polygon class="c" points="725.7 118.6 725.7 64.9 672 64.9 672 118.6 725.7 118.6"/>
        <rect class="c" x="736.8" y="64.9" width="53.7" height="53.7"/>
        <path class="c" d="M790.5,41.4A41.35,41.35,0,0,0,749.1,0H736.8V53.7h53.7Z"/>
        <path class="c" d="M736.8,248.3h12.3a41.35,41.35,0,0,0,41.4-41.4V194.6H736.8Z"/>
        <polygon class="c" points="725.7 194.6 672 194.6 672 248.3 725.7 248.3 725.7 194.6"/>
        <rect class="c" x="736.8" y="129.8" width="53.7" height="53.7"/>
        <polygon class="c" points="725.7 129.8 672 129.8 672 183.5 725.7 183.5 725.7 129.8"/>
        <polygon class="c" points="725.7 0.1 672 0.1 672 53.7 725.7 53.7 725.7 0.1"/>
        <rect class="c" x="607.1" y="0.1" width="53.7" height="53.7"/>
        <rect class="c" x="607.1" y="64.9" width="53.7" height="53.7"/>
        <rect class="c" x="542.2" y="64.9" width="53.7" height="53.7"/>
        <rect class="c" x="607.1" y="129.8" width="53.7" height="53.7"/>
        <rect class="c" x="542.2" y="129.8" width="53.7" height="53.7"/>
        <rect class="c" x="542.2" y="194.6" width="53.7" height="53.7"/>
        <rect class="c" x="607.1" y="194.6" width="53.7" height="53.7"/>
        <path class="c" d="M595.9.1H583.6a41.35,41.35,0,0,0-41.4,41.4V53.8h53.7Z"/>
    </g>
</svg>
