<svg xmlns="http://www.w3.org/2000/svg" viewBox="0 0 328.33 323.03">
  <defs>
    <style>
      .a, .g, .h {
        fill: none;
      }

      .b {
        fill: #f6f8fa;
      }

      .c {
        fill: #fbcccc;
      }

      .d {
        fill: #c5e2bd;
      }

      .e {
        fill: #fff;
      }

      .f {
        fill: #fff18b;
      }

      .f, .g {
        stroke: #231f20;
      }

      .f, .g, .h {
        stroke-linecap: round;
        stroke-linejoin: round;
        stroke-width: 1.6px;
      }

      .h {
        stroke: #000;
      }
    </style>
  </defs>
  <title>Asset 2</title>
  <g>
    <rect class="a" width="328.33" height="323.03"/>
    <g>
      <circle class="b" cx="165.17" cy="181.3" r="141.73"/>
      <g>
        <polygon class="c" points="143.1 213.95 123.42 213.95 82.3 172.41 103.15 172.1 143.1 213.95"/>
        <polygon class="c" points="108.33 213.95 93.12 213.95 61.35 183.05 77.46 182.83 108.33 213.95"/>
        <polygon class="c" points="171.66 213.92 156.46 213.92 124.69 183.01 140.8 182.79 171.66 213.92"/>
        <polygon class="c" points="235.56 285.51 213.73 285.51 168.11 239.42 191.24 239.09 235.56 285.51"/>
        <polygon class="c" points="195.98 285.51 179.11 285.51 143.87 251.23 161.74 250.98 195.98 285.51"/>
        <polygon class="c" points="267.24 285.47 250.38 285.47 215.13 251.19 233 250.94 267.24 285.47"/>
        <polygon class="c" points="114.39 280.54 98.81 280.54 66.23 247.63 82.75 247.4 114.39 280.54"/>
        <polygon class="c" points="86.14 280.54 74.09 280.54 48.93 256.06 61.69 255.89 86.14 280.54"/>
        <polygon class="c" points="137.02 280.51 124.97 280.51 99.81 256.03 112.57 255.86 137.02 280.51"/>
        <polygon class="c" points="246.61 215.96 231.24 215.96 199.13 183.52 215.41 183.28 246.61 215.96"/>
        <polygon class="c" points="218.78 215.93 206.91 215.93 182.1 191.8 194.68 191.63 218.78 215.93"/>
        <polygon class="c" points="268.91 215.93 257.04 215.93 232.23 191.8 244.81 191.63 268.91 215.93"/>
        <ellipse class="d" cx="291.99" cy="188.61" rx="8.4" ry="12.65"/>
        <path class="d" d="M54,212.17a6.18,6.18,0,1,0-11.38-3.35,6.06,6.06,0,0,0,.88,3.13,10.57,10.57,0,1,0,10.5.22Z"/>
        <path class="d" d="M313.89,257.22a7.17,7.17,0,0,0,1.18-3.94A7.34,7.34,0,1,0,301.43,257a12.51,12.51,0,1,0,12.46.25Z"/>
        <rect class="e" x="82.77" y="124.94" width="8.69" height="9.47" transform="translate(-66.18 99.58) rotate(-45)"/>
        <rect class="e" x="140.11" y="96.34" width="21.32" height="22.2" transform="translate(-31.81 138.08) rotate(-45)"/>
        <rect class="e" x="232.44" y="125.2" width="8.79" height="8.79" transform="translate(-22.27 205.42) rotate(-45)"/>
        <rect class="e" x="168.09" y="138.46" width="8.79" height="8.54" transform="translate(-50.41 163.77) rotate(-45)"/>
        <circle class="f" cx="237.03" cy="59.48" r="14.89"/>
        <line class="g" x1="237.03" y1="39.77" x2="237.03" y2="34.52"/>
        <line class="g" x1="237.03" y1="84.44" x2="237.03" y2="79.18"/>
        <line class="g" x1="256.74" y1="59.48" x2="261.99" y2="59.48"/>
        <line class="g" x1="212.07" y1="59.48" x2="217.33" y2="59.48"/>
        <line class="g" x1="250.96" y1="45.54" x2="254.68" y2="41.83"/>
        <line class="g" x1="219.38" y1="77.13" x2="223.1" y2="73.41"/>
        <line class="g" x1="223.1" y1="45.54" x2="219.38" y2="41.83"/>
        <line class="g" x1="254.68" y1="77.13" x2="250.96" y2="73.41"/>
        <polyline class="g" points="53.04 156.97 80.4 129.62 86.97 123.05 103.09 139.16"/>
        <polyline class="g" points="93.84 129.92 87.5 136.27 80.62 129.4"/>
        <polyline class="g" points="93.84 148.4 135.06 107.08 150.05 92.06 184.35 126.36"/>
        <polyline class="g" points="166.39 108.4 151.41 123.38 135.09 107.05"/>
        <polyline class="g" points="177.27 112.6 183.62 107.05 217.95 141.87 237.14 161.11"/>
        <polyline class="g" points="220.9 138.91 230.42 129.4 236.99 122.83 276.18 162.01"/>
        <polyline class="g" points="230.42 129.4 237.07 136.05 243.64 129.48"/>
        <polyline class="g" points="201.22 165.33 178.43 142.54 172.5 136.61 135.96 173.15"/>
        <polyline class="g" points="178.43 142.54 172.33 148.64 166.53 142.84"/>
        <polyline class="g" points="75.38 224.16 81.56 224.16 81.56 203.75"/>
        <polyline class="g" points="113.06 203.75 113.06 224.16 92.06 224.16"/>
        <line class="g" x1="118.23" y1="215.43" x2="118.23" y2="224.16"/>
        <line class="g" x1="123.26" y1="224.16" x2="167.92" y2="224.16"/>
        <polygon class="g" points="60.86 182.75 92.06 213.95 108.33 213.95 77.27 182.75 60.86 182.75"/>
        <polygon class="g" points="82.3 172.1 123.26 213.95 143.67 213.95 103.15 172.1 82.3 172.1"/>
        <polygon class="g" points="125.04 182.75 140.86 182.75 171.32 213.95 156.24 213.95 125.04 182.75"/>
        <line class="g" x1="71.8" y1="193.69" x2="88.16" y2="193.69"/>
        <line class="g" x1="82.3" y1="204.19" x2="98.17" y2="204.19"/>
        <line class="g" x1="87.03" y1="216.32" x2="87.03" y2="224.16"/>
        <line class="g" x1="92.72" y1="182.75" x2="113.06" y2="182.75"/>
        <line class="g" x1="103.43" y1="193.69" x2="123.26" y2="193.69"/>
        <line class="g" x1="113.06" y1="203.75" x2="133.79" y2="203.75"/>
        <line class="g" x1="135.31" y1="193.03" x2="150.89" y2="193.03"/>
        <line class="g" x1="146.48" y1="204.19" x2="161.36" y2="204.19"/>
        <line class="g" x1="150.89" y1="216.32" x2="150.89" y2="224.16"/>
        <line class="g" x1="145.59" y1="218.83" x2="145.59" y2="224.16"/>
        <polyline class="g" points="180.63 224.3 198.04 224.3 198.04 208.12"/>
        <polyline class="g" points="223.01 208.12 223.01 224.3 206.37 224.3"/>
        <line class="g" x1="227.12" y1="217.39" x2="227.12" y2="224.3"/>
        <line class="g" x1="231.1" y1="224.3" x2="301.45" y2="224.3"/>
        <polygon class="g" points="181.63 191.48 206.37 216.21 219.26 216.21 194.64 191.48 181.63 191.48"/>
        <polygon class="g" points="198.63 183.03 231.1 216.21 247.28 216.21 215.16 183.03 198.63 183.03"/>
        <polygon class="g" points="232.51 191.48 245.06 191.48 269.21 216.21 257.25 216.21 232.51 191.48"/>
        <line class="g" x1="190.3" y1="200.15" x2="203.28" y2="200.15"/>
        <line class="g" x1="198.63" y1="208.48" x2="211.21" y2="208.48"/>
        <line class="g" x1="202.38" y1="218.09" x2="202.38" y2="224.3"/>
        <line class="g" x1="206.89" y1="191.48" x2="223.01" y2="191.48"/>
        <line class="g" x1="215.38" y1="200.15" x2="231.1" y2="200.15"/>
        <line class="g" x1="223.01" y1="208.12" x2="239.45" y2="208.12"/>
        <line class="g" x1="240.66" y1="199.62" x2="253.01" y2="199.62"/>
        <line class="g" x1="249.51" y1="208.48" x2="261.31" y2="208.48"/>
        <line class="g" x1="253.01" y1="218.09" x2="253.01" y2="224.3"/>
        <line class="g" x1="248.81" y1="220.08" x2="248.81" y2="224.3"/>
        <polyline class="g" points="142.67 297.6 167.28 297.6 167.28 274.73"/>
        <polyline class="g" points="202.57 274.73 202.57 297.6 179.04 297.6"/>
        <line class="g" x1="208.37" y1="287.82" x2="208.37" y2="297.6"/>
        <line class="g" x1="214" y1="297.6" x2="264.04" y2="297.6"/>
        <polygon class="g" points="144.08 251.2 179.04 286.16 197.27 286.16 162.47 251.2 144.08 251.2"/>
        <polygon class="g" points="168.1 239.27 214 286.16 236.87 286.16 191.47 239.27 168.1 239.27"/>
        <polygon class="g" points="215.99 251.2 233.72 251.2 267.86 286.16 250.96 286.16 215.99 251.2"/>
        <line class="g" x1="156.34" y1="263.46" x2="174.67" y2="263.46"/>
        <line class="g" x1="168.1" y1="275.23" x2="185.89" y2="275.23"/>
        <line class="g" x1="173.41" y1="288.81" x2="173.41" y2="297.6"/>
        <line class="g" x1="179.78" y1="251.2" x2="202.57" y2="251.2"/>
        <line class="g" x1="191.78" y1="263.46" x2="214" y2="263.46"/>
        <line class="g" x1="202.57" y1="274.73" x2="225.8" y2="274.73"/>
        <line class="g" x1="227.51" y1="262.72" x2="244.97" y2="262.72"/>
        <line class="g" x1="240.02" y1="275.23" x2="256.69" y2="275.23"/>
        <line class="g" x1="244.97" y1="288.81" x2="244.97" y2="297.6"/>
        <line class="g" x1="239.02" y1="291.63" x2="239.02" y2="297.6"/>
        <polyline class="g" points="28.54 288.65 65.34 288.65 65.34 272.47"/>
        <polyline class="g" points="90.32 272.47 90.32 288.65 73.67 288.65"/>
        <line class="g" x1="94.42" y1="281.73" x2="94.42" y2="288.65"/>
        <line class="g" x1="98.41" y1="288.65" x2="133.82" y2="288.65"/>
        <polygon class="g" points="48.93 255.82 73.67 280.56 86.57 280.56 61.94 255.82 48.93 255.82"/>
        <polygon class="g" points="65.93 247.38 98.41 280.56 114.59 280.56 82.46 247.38 65.93 247.38"/>
        <polygon class="g" points="99.81 255.82 112.36 255.82 136.51 280.56 124.55 280.56 99.81 255.82"/>
        <line class="g" x1="57.61" y1="264.5" x2="70.58" y2="264.5"/>
        <line class="g" x1="65.93" y1="272.82" x2="78.51" y2="272.82"/>
        <line class="g" x1="69.68" y1="282.43" x2="69.68" y2="288.65"/>
        <line class="g" x1="74.19" y1="255.82" x2="90.32" y2="255.82"/>
        <line class="g" x1="82.69" y1="264.5" x2="98.41" y2="264.5"/>
        <line class="g" x1="90.32" y1="272.47" x2="106.75" y2="272.47"/>
        <line class="g" x1="107.96" y1="263.97" x2="120.32" y2="263.97"/>
        <line class="g" x1="116.81" y1="272.82" x2="128.61" y2="272.82"/>
        <line class="g" x1="120.32" y1="282.43" x2="120.32" y2="288.65"/>
        <line class="g" x1="116.11" y1="284.43" x2="116.11" y2="288.65"/>
        <line class="g" x1="82.55" y1="305.77" x2="122.04" y2="305.77"/>
        <line class="g" x1="99.12" y1="311.84" x2="112.13" y2="311.84"/>
        <line class="g" x1="149.76" y1="316.85" x2="158.04" y2="316.85"/>
        <line class="g" x1="153.9" y1="319.96" x2="163.21" y2="319.96"/>
        <line class="g" x1="69.03" y1="308.29" x2="69.03" y2="315.39"/>
        <line class="g" x1="65.7" y1="311.84" x2="72.35" y2="311.84"/>
        <line class="g" x1="277.83" y1="294.05" x2="277.83" y2="301.14"/>
        <line class="g" x1="274.5" y1="297.6" x2="281.16" y2="297.6"/>
        <line class="g" x1="294.68" y1="290.69" x2="315.75" y2="290.69"/>
        <line class="g" x1="319.96" y1="290.69" x2="325.29" y2="290.69"/>
        <line class="g" x1="60.37" y1="98.09" x2="81.44" y2="98.09"/>
        <line class="g" x1="85.66" y1="98.09" x2="90.98" y2="98.09"/>
        <line class="g" x1="219.93" y1="99.4" x2="230.46" y2="99.4"/>
        <line class="g" x1="195.19" y1="123.85" x2="205.72" y2="123.85"/>
        <line class="g" x1="107.46" y1="126.36" x2="118" y2="126.36"/>
        <line class="g" x1="213.83" y1="99.4" x2="216.49" y2="99.4"/>
        <circle class="g" cx="230.16" cy="314.28" r="2.44"/>
        <path class="g" d="M179,74.94a3.84,3.84,0,0,0-.08.76,3.94,3.94,0,0,0,.08.77,3.56,3.56,0,0,0,.23.72,4,4,0,0,0,.36.64,3.29,3.29,0,0,0,.48.57,5.09,5.09,0,0,0,.58.46,3.28,3.28,0,0,0,.67.35,3.92,3.92,0,0,0,.74.22,3.87,3.87,0,0,0,1.59,0,3.92,3.92,0,0,0,.74-.22,3.28,3.28,0,0,0,.67-.35,4.34,4.34,0,0,0,.58-.46,3.29,3.29,0,0,0,.48-.57,4,4,0,0,0,.36-.64,3.56,3.56,0,0,0,.23-.72,3.18,3.18,0,0,0,.07-.75,3.22,3.22,0,0,0-.08-.76"/>
        <path class="g" d="M170.15,59.66a3.76,3.76,0,0,0,.59,2.9,3.64,3.64,0,0,0,.48.56,3.73,3.73,0,0,0,.58.47,4.27,4.27,0,0,0,.67.35,3.92,3.92,0,0,0,.74.22,3.87,3.87,0,0,0,1.59,0,3.92,3.92,0,0,0,.74-.22,4.27,4.27,0,0,0,.67-.35,3.73,3.73,0,0,0,.58-.47,3.64,3.64,0,0,0,.48-.56,3.72,3.72,0,0,0,.36-.65,3.68,3.68,0,0,0,.23-.71,3.63,3.63,0,0,0,0-1.54"/>
        <line class="g" x1="307.45" y1="290.77" x2="307.45" y2="281.17"/>
        <path class="g" d="M312.32,256.32a13.31,13.31,0,0,1,2.13,1.16A13.47,13.47,0,0,1,316.3,259a12.41,12.41,0,0,1,1.53,1.86,12.59,12.59,0,0,1,1.88,9.51,12.8,12.8,0,0,1-.73,2.35,12.29,12.29,0,0,1-2.68,4,12.85,12.85,0,0,1-1.85,1.53,12.15,12.15,0,0,1-2.13,1.15,11.34,11.34,0,0,1-2.34.73,12.28,12.28,0,0,1-5.05,0,11.34,11.34,0,0,1-2.34-.73,12.15,12.15,0,0,1-2.13-1.15,12.85,12.85,0,0,1-1.85-1.53,11.85,11.85,0,0,1-1.53-1.85,12.42,12.42,0,0,1-1.15-2.12,12.8,12.8,0,0,1-.73-2.35A12.56,12.56,0,0,1,298.61,259a13.47,13.47,0,0,1,1.85-1.52"/>
        <path class="g" d="M304.49,260.29a7.33,7.33,0,0,1-1.29-.7,7.71,7.71,0,0,1-2.76-3.35,7.2,7.2,0,0,1-.45-1.43,7.93,7.93,0,0,1,0-3.07,7.2,7.2,0,0,1,.45-1.43,7.59,7.59,0,0,1,4-4.05,7.2,7.2,0,0,1,1.43-.45,7.93,7.93,0,0,1,3.07,0,7.2,7.2,0,0,1,1.43.45,7.64,7.64,0,0,1,4.05,4.05,7.2,7.2,0,0,1,.45,1.43,7.93,7.93,0,0,1,0,3.07,7.2,7.2,0,0,1-.45,1.43,3.27,3.27,0,0,1-.43.88"/>
        <line class="g" x1="48.6" y1="240.68" x2="48.6" y2="232.59"/>
        <path class="g" d="M52.71,211.64a10.68,10.68,0,0,1,5.61,5.61,11,11,0,0,1,.61,2,10.84,10.84,0,0,1,.22,2.13,10.11,10.11,0,0,1-.22,2.12,11,11,0,0,1-.61,2,10.79,10.79,0,0,1-1,1.79A10,10,0,0,1,56,228.85a10.52,10.52,0,0,1-5.35,2.88,10.83,10.83,0,0,1-2.13.21,10.34,10.34,0,0,1-2.08-.22,9.87,9.87,0,0,1-2-.62,10.12,10.12,0,0,1-1.79-1,11.07,11.07,0,0,1-3.85-4.64,9.87,9.87,0,0,1-.62-2,10.86,10.86,0,0,1,0-4.25,10.52,10.52,0,0,1,2.88-5.35,10,10,0,0,1,1.56-1.28"/>
        <path class="g" d="M46.1,215A6.37,6.37,0,0,1,45,214.4a6.53,6.53,0,0,1-.95-.79,6.46,6.46,0,0,1-.78-1,6.6,6.6,0,0,1-1-2.29,6.64,6.64,0,0,1,0-2.59,6.3,6.3,0,0,1,.38-1.21,6.37,6.37,0,0,1,.59-1.09A6.17,6.17,0,0,1,45,203.72a6.37,6.37,0,0,1,1.09-.59,6.53,6.53,0,0,1,1.21-.38,6.64,6.64,0,0,1,2.59,0,6.6,6.6,0,0,1,2.29,1,6.88,6.88,0,0,1,1,.78,6.53,6.53,0,0,1,.79.95,6.37,6.37,0,0,1,.59,1.09,6.51,6.51,0,0,1,0,5,2.62,2.62,0,0,1-.37.75"/>
        <line class="g" x1="79.11" y1="240.68" x2="28.54" y2="240.68"/>
        <path class="g" d="M28.54,288.65a24,24,0,0,1-2.77-47.92,25.6,25.6,0,0,1,2.77,0"/>
        <line class="g" x1="291.98" y1="188.94" x2="291.98" y2="206.99"/>
        <line class="g" x1="288.41" y1="192.22" x2="291.95" y2="195.77"/>
        <line class="g" x1="294.38" y1="190.7" x2="292.07" y2="193.01"/>
        <line class="g" x1="296.42" y1="193.99" x2="291.98" y2="198.9"/>
        <path class="g" d="M295.26,200.2a7.56,7.56,0,0,0,1.42-1.17,10.26,10.26,0,0,0,1.25-1.54,14.46,14.46,0,0,0,1-1.86,14.87,14.87,0,0,0,.77-2.15,17,17,0,0,0,.49-2.36,19.86,19.86,0,0,0,.17-2.55"/>
        <path class="g" d="M300.39,188.57a19.58,19.58,0,0,0-.17-2.54,17.49,17.49,0,0,0-.49-2.37,14.75,14.75,0,0,0-.77-2.14,14.46,14.46,0,0,0-1-1.86,10.26,10.26,0,0,0-1.25-1.54,7.56,7.56,0,0,0-1.42-1.17,6.48,6.48,0,0,0-1.58-.73,5.66,5.66,0,0,0-3.39,0,6.48,6.48,0,0,0-1.58.73,7.62,7.62,0,0,0-1.43,1.17,10.92,10.92,0,0,0-1.25,1.54,12.78,12.78,0,0,0-1,1.86,16.08,16.08,0,0,0-.78,2.14,17.49,17.49,0,0,0-.49,2.37,18.86,18.86,0,0,0,0,5.09,17,17,0,0,0,.49,2.36,16.75,16.75,0,0,0,.78,2.15,12.78,12.78,0,0,0,1,1.86,10.92,10.92,0,0,0,1.25,1.54,7.62,7.62,0,0,0,1.43,1.17"/>
        <line class="g" x1="288.41" y1="207.14" x2="301.45" y2="207.14"/>
        <path class="g" d="M301.45,207a8.66,8.66,0,0,1,0,17.31"/>
        <path class="h" d="M112.08,52.56s3.44-5.36,9.31-5.36a11.61,11.61,0,0,1,11.23,11.24s.47,9.91-7.78,11.48H84.64s-3.06-.38-3.06-3.2A3.65,3.65,0,0,1,85,62.81a4.69,4.69,0,0,1,.53,0,5.77,5.77,0,0,1,2.83.59s.44-6.63,5.55-6.63a7.53,7.53,0,0,1,5,1.78S101.78,47.5,112.08,52.56Z"/>
      </g>
    </g>
  </g>
</svg>
