<svg xmlns="http://www.w3.org/2000/svg" viewBox="0 0 600 600">
  <defs>
    <style>
      .a {
        fill: #f6f8fa;
      }

      .b {
        fill: #fbcccc;
      }

      .c {
        fill: #c5e2bd;
      }

      .d {
        fill: #fff;
      }

      .e {
        fill: #fff18b;
      }

      .e, .f, .g {
        stroke: #231f20;
      }

      .e, .f, .g, .h {
        stroke-linecap: round;
        stroke-linejoin: round;
      }

      .e, .f, .h {
        stroke-width: 2.79px;
      }

      .f, .g, .h {
        fill: none;
      }

      .g {
        stroke-width: 2.75px;
      }

      .h {
        stroke: #000;
      }
    </style>
  </defs>
  <title>Artboard 1 copy</title>
  <circle class="a" cx="300.44" cy="336.16" r="263.84"/>
  <g>
    <polygon class="b" points="259.36 396.95 222.73 396.95 146.18 319.61 184.99 319.05 259.36 396.95"/>
    <polygon class="b" points="194.63 396.95 166.32 396.95 107.19 339.42 137.17 339 194.63 396.95"/>
    <polygon class="b" points="312.53 396.88 284.23 396.88 225.09 339.35 255.08 338.94 312.53 396.88"/>
    <polygon class="b" points="431.47 530.15 390.83 530.15 305.91 444.36 348.97 443.73 431.47 530.15"/>
    <polygon class="b" points="357.79 530.15 326.4 530.15 260.79 466.34 294.05 465.87 357.79 530.15"/>
    <polygon class="b" points="490.45 530.08 459.06 530.08 393.45 466.26 426.72 465.8 490.45 530.08"/>
    <polygon class="b" points="205.92 520.9 176.9 520.9 116.27 459.64 147.01 459.2 205.92 520.9"/>
    <polygon class="b" points="153.32 520.9 130.9 520.9 84.06 475.34 107.81 475.01 153.32 520.9"/>
    <polygon class="b" points="248.03 520.85 225.62 520.85 178.78 475.28 202.53 474.95 248.03 520.85"/>
    <polygon class="b" points="452.04 400.69 423.44 400.69 363.66 340.3 393.97 339.86 452.04 400.69"/>
    <polygon class="b" points="400.24 400.63 378.14 400.63 331.96 355.71 355.38 355.39 400.24 400.63"/>
    <polygon class="b" points="493.56 400.63 471.46 400.63 425.28 355.71 448.69 355.39 493.56 400.63"/>
    <ellipse class="c" cx="536.52" cy="349.77" rx="15.64" ry="23.54"/>
    <path class="c" d="M93.55,393.62A11.54,11.54,0,1,0,74,393.23a19.63,19.63,0,1,0,19.55.39Z"/>
    <path class="c" d="M577.29,477.49a13.39,13.39,0,0,0,2.2-7.33,13.67,13.67,0,0,0-27.33,0A13.3,13.3,0,0,0,554.1,477a23.3,23.3,0,1,0,23.19.47Z"/>
    <rect class="d" x="146.32" y="231.97" width="17.63" height="16.17" transform="translate(215.18 -39.39) rotate(45)"/>
    <rect class="d" x="252.98" y="178.83" width="41.32" height="39.68" transform="translate(220.63 -135.3) rotate(45)"/>
    <rect class="d" x="425.66" y="231.72" width="16.37" height="16.37" transform="translate(296.71 -236.5) rotate(45)"/>
    <rect class="d" x="306.1" y="256.19" width="15.9" height="16.37" transform="translate(278.92 -144.63) rotate(45)"/>
    <circle class="e" cx="434.21" cy="109.39" r="27.71"/>
    <line class="f" x1="434.21" y1="72.71" x2="434.21" y2="62.93"/>
    <line class="f" x1="434.21" y1="155.85" x2="434.21" y2="146.07"/>
    <line class="f" x1="470.89" y1="109.39" x2="480.67" y2="109.39"/>
    <line class="f" x1="387.75" y1="109.39" x2="397.53" y2="109.39"/>
    <line class="f" x1="460.15" y1="83.45" x2="467.06" y2="76.54"/>
    <line class="f" x1="401.36" y1="142.24" x2="408.28" y2="135.33"/>
    <line class="f" x1="408.28" y1="83.45" x2="401.36" y2="76.54"/>
    <line class="f" x1="467.06" y1="142.24" x2="460.15" y2="135.33"/>
    <polyline class="f" points="91.71 290.88 142.64 239.96 154.87 227.72 184.87 257.73"/>
    <polyline class="f" points="167.67 240.52 155.85 252.34 143.05 239.54"/>
    <polyline class="f" points="167.67 274.92 244.38 198.01 272.29 170.03 336.15 233.9"/>
    <polyline class="f" points="302.71 200.45 274.83 228.33 244.44 197.95"/>
    <polyline class="f" points="322.96 208.27 334.78 197.95 398.69 262.76 434.42 298.58"/>
    <polyline class="f" points="404.18 257.26 421.9 239.54 434.13 227.31 507.08 300.26"/>
    <polyline class="f" points="421.9 239.54 434.29 251.93 446.52 239.7"/>
    <polyline class="f" points="367.54 306.43 325.13 264.01 314.08 252.97 246.06 320.99"/>
    <polyline class="f" points="325.13 264.01 313.77 275.37 302.97 264.57"/>
    <polyline class="f" points="133.29 415.94 144.8 415.94 144.8 377.95"/>
    <polyline class="f" points="203.43 377.95 203.43 415.94 164.34 415.94"/>
    <line class="f" x1="213.07" y1="399.7" x2="213.07" y2="415.94"/>
    <line class="f" x1="222.43" y1="415.94" x2="305.56" y2="415.94"/>
    <polygon class="f" points="106.26 338.87 164.34 396.95 194.63 396.95 136.82 338.87 106.26 338.87"/>
    <polygon class="f" points="146.18 319.05 222.43 396.95 260.42 396.95 184.99 319.05 146.18 319.05"/>
    <polygon class="f" points="225.73 338.87 255.19 338.87 311.89 396.95 283.81 396.95 225.73 338.87"/>
    <line class="f" x1="126.63" y1="359.24" x2="157.09" y2="359.24"/>
    <line class="f" x1="146.18" y1="378.78" x2="175.72" y2="378.78"/>
    <line class="f" x1="154.99" y1="401.35" x2="154.99" y2="415.94"/>
    <line class="f" x1="165.58" y1="338.87" x2="203.43" y2="338.87"/>
    <line class="f" x1="185.52" y1="359.24" x2="222.43" y2="359.24"/>
    <line class="f" x1="203.43" y1="377.95" x2="242.03" y2="377.95"/>
    <line class="f" x1="244.86" y1="358" x2="273.86" y2="358"/>
    <line class="f" x1="265.65" y1="378.78" x2="293.35" y2="378.78"/>
    <line class="f" x1="273.86" y1="401.35" x2="273.86" y2="415.94"/>
    <line class="f" x1="263.99" y1="406.03" x2="263.99" y2="415.94"/>
    <polyline class="f" points="329.22 416.21 361.63 416.21 361.63 386.1"/>
    <polyline class="f" points="408.12 386.1 408.12 416.21 377.13 416.21"/>
    <line class="f" x1="415.76" y1="403.34" x2="415.76" y2="416.22"/>
    <line class="f" x1="423.18" y1="416.22" x2="554.12" y2="416.22"/>
    <polygon class="f" points="331.07 355.11 377.13 401.16 401.13 401.16 355.3 355.11 331.07 355.11"/>
    <polygon class="f" points="362.72 339.39 423.18 401.16 453.3 401.16 393.5 339.39 362.72 339.39"/>
    <polygon class="f" points="425.8 355.11 449.15 355.11 494.11 401.16 471.85 401.16 425.8 355.11"/>
    <line class="f" x1="347.23" y1="371.26" x2="371.38" y2="371.26"/>
    <line class="f" x1="362.72" y1="386.75" x2="386.15" y2="386.75"/>
    <line class="f" x1="369.71" y1="404.65" x2="369.71" y2="416.22"/>
    <line class="f" x1="378.1" y1="355.1" x2="408.12" y2="355.1"/>
    <line class="f" x1="393.91" y1="371.26" x2="423.18" y2="371.26"/>
    <line class="f" x1="408.12" y1="386.1" x2="438.72" y2="386.1"/>
    <line class="f" x1="440.97" y1="370.27" x2="463.96" y2="370.27"/>
    <line class="f" x1="457.44" y1="386.75" x2="479.41" y2="386.75"/>
    <line class="f" x1="463.96" y1="404.65" x2="463.96" y2="416.22"/>
    <line class="f" x1="456.13" y1="408.36" x2="456.13" y2="416.22"/>
    <polyline class="f" points="258.56 552.65 304.36 552.65 304.36 510.08"/>
    <polyline class="f" points="370.06 510.08 370.06 552.65 326.26 552.65"/>
    <line class="f" x1="380.86" y1="534.45" x2="380.86" y2="552.65"/>
    <line class="f" x1="391.35" y1="552.65" x2="484.5" y2="552.65"/>
    <polygon class="f" points="261.18 466.28 326.26 531.37 360.19 531.37 295.42 466.28 261.18 466.28"/>
    <polygon class="f" points="305.9 444.07 391.35 531.37 433.91 531.37 349.4 444.07 305.9 444.07"/>
    <polygon class="f" points="395.05 466.28 428.05 466.28 491.59 531.37 460.13 531.37 395.05 466.28"/>
    <line class="f" x1="284" y1="489.11" x2="318.13" y2="489.11"/>
    <line class="f" x1="305.9" y1="511.01" x2="339.01" y2="511.01"/>
    <line class="f" x1="315.77" y1="536.3" x2="315.77" y2="552.65"/>
    <line class="f" x1="327.64" y1="466.28" x2="370.06" y2="466.28"/>
    <line class="f" x1="349.98" y1="489.11" x2="391.35" y2="489.11"/>
    <line class="f" x1="370.06" y1="510.08" x2="413.31" y2="510.08"/>
    <line class="f" x1="416.48" y1="487.72" x2="448.98" y2="487.72"/>
    <line class="f" x1="439.77" y1="511.01" x2="470.81" y2="511.01"/>
    <line class="f" x1="448.98" y1="536.3" x2="448.98" y2="552.65"/>
    <line class="f" x1="437.92" y1="541.54" x2="437.92" y2="552.65"/>
    <polyline class="f" points="46.1 535.99 114.61 535.99 114.61 505.87"/>
    <polyline class="f" points="161.1 505.87 161.1 535.99 130.11 535.99"/>
    <line class="f" x1="168.74" y1="523.12" x2="168.74" y2="535.99"/>
    <line class="f" x1="176.16" y1="535.99" x2="242.07" y2="535.99"/>
    <polygon class="f" points="84.06 474.88 130.11 520.93 154.12 520.93 108.28 474.88 84.06 474.88"/>
    <polygon class="f" points="115.71 459.17 176.16 520.93 206.28 520.93 146.48 459.17 115.71 459.17"/>
    <polygon class="f" points="178.78 474.88 202.13 474.88 247.09 520.93 224.83 520.93 178.78 474.88"/>
    <line class="f" x1="100.21" y1="491.03" x2="124.36" y2="491.03"/>
    <line class="f" x1="115.71" y1="506.53" x2="139.13" y2="506.53"/>
    <line class="f" x1="122.69" y1="524.43" x2="122.69" y2="535.99"/>
    <line class="f" x1="131.09" y1="474.88" x2="161.1" y2="474.88"/>
    <line class="f" x1="146.9" y1="491.03" x2="176.16" y2="491.03"/>
    <line class="f" x1="161.1" y1="505.87" x2="191.7" y2="505.87"/>
    <line class="f" x1="193.95" y1="490.05" x2="216.94" y2="490.05"/>
    <line class="f" x1="210.43" y1="506.53" x2="232.39" y2="506.53"/>
    <line class="f" x1="216.94" y1="524.43" x2="216.94" y2="535.99"/>
    <line class="f" x1="209.12" y1="528.14" x2="209.12" y2="535.99"/>
    <line class="f" x1="146.65" y1="567.87" x2="220.15" y2="567.87"/>
    <line class="f" x1="177.48" y1="579.16" x2="201.71" y2="579.16"/>
    <line class="f" x1="271.75" y1="588.5" x2="287.17" y2="588.5"/>
    <line class="f" x1="279.46" y1="594.28" x2="296.8" y2="594.28"/>
    <line class="f" x1="121.47" y1="572.55" x2="121.47" y2="585.77"/>
    <line class="f" x1="115.27" y1="579.16" x2="127.66" y2="579.16"/>
    <line class="f" x1="510.16" y1="546.04" x2="510.16" y2="559.26"/>
    <line class="f" x1="503.97" y1="552.65" x2="516.35" y2="552.65"/>
    <line class="f" x1="541.52" y1="539.8" x2="580.74" y2="539.8"/>
    <line class="f" x1="588.59" y1="539.8" x2="598.5" y2="539.8"/>
    <line class="f" x1="105.36" y1="181.27" x2="144.58" y2="181.27"/>
    <line class="f" x1="152.43" y1="181.27" x2="162.34" y2="181.27"/>
    <line class="f" x1="402.37" y1="183.71" x2="421.98" y2="183.71"/>
    <line class="f" x1="356.32" y1="229.22" x2="375.93" y2="229.22"/>
    <line class="f" x1="193.02" y1="233.9" x2="212.63" y2="233.9"/>
    <line class="f" x1="391.02" y1="183.71" x2="395.97" y2="183.71"/>
    <circle class="f" cx="421.41" cy="583.7" r="4.54"/>
    <path class="g" d="M326.18,138.16a7.54,7.54,0,0,0-.14,1.43,7.46,7.46,0,0,0,.14,1.43,7.38,7.38,0,0,0,.43,1.33,6.83,6.83,0,0,0,.68,1.21,7.38,7.38,0,0,0,.89,1.05,7.82,7.82,0,0,0,2.33,1.52,8.82,8.82,0,0,0,1.38.41,7.88,7.88,0,0,0,1.47.14,8,8,0,0,0,1.48-.14,8.82,8.82,0,0,0,1.38-.41,7.82,7.82,0,0,0,2.33-1.52,7.38,7.38,0,0,0,.89-1.05,6.83,6.83,0,0,0,.68-1.21,6.64,6.64,0,0,0,.42-1.33,6.74,6.74,0,0,0,.15-1.43,6.81,6.81,0,0,0-.15-1.43"/>
    <path class="g" d="M309.71,109.73a6.81,6.81,0,0,0-.15,1.43,6.74,6.74,0,0,0,.15,1.43,6.64,6.64,0,0,0,.42,1.33,7.52,7.52,0,0,0,.68,1.21,8,8,0,0,0,.89,1.05,7.49,7.49,0,0,0,1.09.86,7.32,7.32,0,0,0,1.24.65,7.88,7.88,0,0,0,1.38.42,8,8,0,0,0,1.48.14,7.29,7.29,0,0,0,2.85-.56,7.54,7.54,0,0,0,2.33-1.51,8,8,0,0,0,.89-1.05,6.83,6.83,0,0,0,.68-1.21,6.82,6.82,0,0,0,.58-2.76,7.54,7.54,0,0,0-.15-1.43"/>
    <line class="f" x1="565.31" y1="539.94" x2="565.31" y2="522.08"/>
    <path class="f" d="M574.37,475.82a22.83,22.83,0,0,1,4,2.15,23.15,23.15,0,0,1,6.29,6.29,23.1,23.1,0,0,1,3.51,8.32,23.69,23.69,0,0,1,0,9.39,23.1,23.1,0,0,1-1.36,4.37,23.44,23.44,0,0,1-12.39,12.39,23.1,23.1,0,0,1-4.37,1.36,23.27,23.27,0,0,1-13.76-1.36,23.2,23.2,0,0,1-4-2.15,23.15,23.15,0,0,1-6.29-6.29,22.83,22.83,0,0,1-2.15-4A23.07,23.07,0,0,1,542.5,502a23.42,23.42,0,0,1,1.35-13.76,23.2,23.2,0,0,1,2.15-3.95,23.15,23.15,0,0,1,6.29-6.29"/>
    <path class="f" d="M559.79,483.21a14.26,14.26,0,0,1-7.55-7.55,13.72,13.72,0,0,1-.83-2.66,14.7,14.7,0,0,1,0-5.71,14,14,0,0,1,.83-2.67,14.29,14.29,0,0,1,1.31-2.4,14.26,14.26,0,0,1,6.24-5.14,14.17,14.17,0,0,1,11,0,14.79,14.79,0,0,1,2.41,1.31,14.44,14.44,0,0,1,2.09,1.73,13.48,13.48,0,0,1,1.74,2.1,15,15,0,0,1,1.3,2.4,14.19,14.19,0,0,1,.83,8.38,13.72,13.72,0,0,1-.83,2.66,6.33,6.33,0,0,1-.81,1.65"/>
    <line class="f" x1="83.45" y1="446.7" x2="83.45" y2="431.63"/>
    <path class="f" d="M91.09,392.65a18.8,18.8,0,0,1,3.33,1.81,19.28,19.28,0,0,1,5.3,5.3,18.8,18.8,0,0,1,1.81,3.33,20,20,0,0,1,1.15,3.69,19.52,19.52,0,0,1-1.15,11.59,18.8,18.8,0,0,1-1.81,3.33,19.69,19.69,0,0,1-2.39,2.91A19.08,19.08,0,0,1,94.42,427a18.8,18.8,0,0,1-3.33,1.81A19.28,19.28,0,0,1,87.4,430a19.75,19.75,0,0,1-7.91,0,19.19,19.19,0,0,1-3.68-1.15A18.8,18.8,0,0,1,72.48,427a19.28,19.28,0,0,1-5.3-5.3,18.8,18.8,0,0,1-1.81-3.33,19.19,19.19,0,0,1-1.15-3.68,19.75,19.75,0,0,1,0-7.91,19.28,19.28,0,0,1,1.15-3.69,18.8,18.8,0,0,1,1.81-3.33,19.08,19.08,0,0,1,2.39-2.91,19.69,19.69,0,0,1,2.91-2.39"/>
    <path class="f" d="M78.8,398.88a12,12,0,0,1-2-1.11A11.85,11.85,0,0,1,75,396.31a12.29,12.29,0,0,1-1.46-1.76,11.78,11.78,0,0,1-1.1-2,11.22,11.22,0,0,1-.7-2.24,12.22,12.22,0,0,1,0-4.82,11.64,11.64,0,0,1,.7-2.24,12.06,12.06,0,0,1,1.1-2A12,12,0,0,1,76.77,378a11.33,11.33,0,0,1,2-1.1,11.89,11.89,0,0,1,9.3,0,11.33,11.33,0,0,1,2,1.1,12,12,0,0,1,3.23,3.23,12.06,12.06,0,0,1,1.1,2,12.39,12.39,0,0,1,.7,2.24,11.89,11.89,0,0,1-.7,7.06,5.16,5.16,0,0,1-.69,1.39"/>
    <line class="f" x1="140.24" y1="446.7" x2="46.1" y2="446.7"/>
    <path class="f" d="M46.1,536a44.6,44.6,0,1,1,0-89.19"/>
    <line class="f" x1="536.5" y1="350.38" x2="536.5" y2="383.98"/>
    <line class="f" x1="529.85" y1="356.49" x2="536.45" y2="363.09"/>
    <line class="f" x1="540.98" y1="353.65" x2="536.67" y2="357.96"/>
    <line class="f" x1="544.76" y1="359.79" x2="536.5" y2="368.93"/>
    <path class="f" d="M542.6,371.34a15.72,15.72,0,0,0,2.66-2.17,18.86,18.86,0,0,0,2.31-2.86,25.16,25.16,0,0,0,1.92-3.48,29.31,29.31,0,0,0,1.44-4,32,32,0,0,0,.91-4.4,34.82,34.82,0,0,0,.32-4.74"/>
    <path class="f" d="M552.16,349.7a34.78,34.78,0,0,0-.32-4.73,31.72,31.72,0,0,0-.91-4.4,29.31,29.31,0,0,0-1.44-4,24.6,24.6,0,0,0-1.92-3.48,18.86,18.86,0,0,0-2.31-2.86,15.25,15.25,0,0,0-2.66-2.17,12.64,12.64,0,0,0-2.94-1.37,10.82,10.82,0,0,0-6.31,0,12.64,12.64,0,0,0-2.94,1.37,14.54,14.54,0,0,0-2.66,2.17,19.54,19.54,0,0,0-2.32,2.86,23.6,23.6,0,0,0-1.91,3.48,28,28,0,0,0-1.44,4,30.32,30.32,0,0,0-.91,4.4,35.19,35.19,0,0,0,0,9.47,30.6,30.6,0,0,0,.91,4.4,28,28,0,0,0,1.44,4,24.12,24.12,0,0,0,1.91,3.48,19.54,19.54,0,0,0,2.32,2.86,15,15,0,0,0,2.66,2.17"/>
    <line class="f" x1="529.85" y1="384.26" x2="554.12" y2="384.26"/>
    <path class="f" d="M554.12,384a16.12,16.12,0,0,1,0,32.24"/>
    <path class="h" d="M201.61,96.52s6.41-10,17.34-10,20.9,9.74,20.9,20.91c0,0,.87,18.45-14.49,21.38H150.53s-5.7-.72-5.7-5.94c0,0-.42-7.28,7.27-7.28,0,0,3.78-.09,5.26,1.1,0,0,.83-12.34,10.33-12.34a14,14,0,0,1,9.33,3.31S182.52,87.1,201.61,96.52Z"/>
  </g>
</svg>
