<svg xmlns="http://www.w3.org/2000/svg" xmlns:xlink="http://www.w3.org/1999/xlink" viewBox="0 0 328.33 323.03">
  <defs>
    <style>
      .a, .c, .f, .i, .j {
        fill: none;
      }

      .b {
        fill: #f6f8fa;
      }

      .c, .f, .g, .i, .j {
        stroke: #231f20;
        stroke-width: 1.6px;
      }

      .c, .g, .j {
        stroke-linecap: round;
      }

      .c, .g, .i {
        stroke-linejoin: round;
      }

      .d {
        fill: url(#a);
      }

      .e {
        fill: url(#b);
      }

      .f, .j {
        stroke-miterlimit: 10;
      }

      .g {
        fill: #fff2b3;
      }

      .h {
        fill: #231f20;
      }
    </style>
    <linearGradient id="a" x1="-3124.34" y1="111.78" x2="-3124.34" y2="249.79" gradientTransform="translate(-2916.77 326) rotate(180)" gradientUnits="userSpaceOnUse">
      <stop offset="0" stop-color="#fff" stop-opacity="0"/>
      <stop offset="1" stop-color="#fff2b3"/>
    </linearGradient>
    <linearGradient id="b" x1="-3027.3" y1="129.73" x2="-3027.3" y2="225.53" xlink:href="#a"/>
  </defs>
  <title>Asset 4</title>
  <g>
    <rect class="a" width="328.33" height="323.03"/>
    <g>
      <g>
        <circle class="b" cx="163.6" cy="181.3" r="141.73"/>
        <rect class="c" x="133.62" y="54.72" width="9.72" height="9.72" transform="translate(-1.57 115.37) rotate(-45)"/>
        <rect class="c" x="262.62" y="225.07" width="9.72" height="9.72" transform="translate(-84.24 256.48) rotate(-45)"/>
        <rect class="d" x="154.54" y="76.21" width="106.05" height="138.01"/>
        <rect class="e" x="66.51" y="100.47" width="88.03" height="95.8"/>
        <polyline class="c" points="101.09 112.98 101.09 77.28 106.35 82.55"/>
        <line class="c" x1="101.09" y1="77.28" x2="96.08" y2="82.55"/>
        <polyline class="c" points="58.85 44.9 53.58 39.64 53.58 68.5 43.24 77 43.24 134.2"/>
        <line class="c" x1="53.58" y1="39.64" x2="48.58" y2="44.9"/>
        <line class="c" x1="232.08" y1="36.94" x2="232.08" y2="56.87"/>
        <line class="c" x1="187.04" y1="32.99" x2="187.04" y2="46.28"/>
        <line class="c" x1="180.39" y1="39.64" x2="193.68" y2="39.64"/>
        <circle class="c" cx="23.17" cy="151.24" r="7.19"/>
        <polyline class="c" points="260.6 177.9 260.6 76.21 154.55 76.21 154.55 196.27"/>
        <polyline class="c" points="145.54 100.47 66.52 100.47 66.52 172.69"/>
        <line class="c" x1="228.08" y1="135.99" x2="173.06" y2="135.99"/>
        <line class="c" x1="216.78" y1="147.49" x2="165.31" y2="147.49"/>
        <line class="c" x1="232.6" y1="158" x2="165.31" y2="158"/>
        <line class="c" x1="217.34" y1="169.25" x2="165.31" y2="169.25"/>
        <line class="c" x1="183.95" y1="183.84" x2="165.31" y2="183.84"/>
        <line class="c" x1="232.6" y1="183.84" x2="200.36" y2="183.84"/>
        <line class="c" x1="145.54" y1="162.75" x2="66.52" y2="162.75"/>
        <line class="c" x1="122.53" y1="172.69" x2="71.01" y2="172.69"/>
        <line class="c" x1="139.22" y1="183.84" x2="89.5" y2="183.84"/>
        <line class="c" x1="143.79" y1="196.43" x2="103.02" y2="196.43"/>
        <line class="c" x1="143.79" y1="208.86" x2="118.51" y2="208.86"/>
        <circle class="c" cx="88.68" cy="132.57" r="3.42"/>
        <circle class="c" cx="174.99" cy="108.33" r="3.42"/>
        <circle class="c" cx="242.79" cy="108.33" r="3.42"/>
        <path class="c" d="M241.34,76.19a19.13,19.13,0,0,0,19.13,19.13h0"/>
        <path class="c" d="M173.68,76.19a19.14,19.14,0,0,1-19.13,19.13"/>
        <path class="c" d="M85.65,100.47A19.12,19.12,0,0,1,66.52,119.6h0"/>
        <path class="f" d="M219.89,121.35a14.18,14.18,0,0,1-2.71.84,14.71,14.71,0,0,1-8.69-.86A14.78,14.78,0,0,1,202,116a14.6,14.6,0,0,1-1.35-2.49A14.71,14.71,0,0,1,202,99.54a15.68,15.68,0,0,1,1.8-2.18A14.31,14.31,0,0,1,206,95.57a15,15,0,0,1,2.49-1.36,14.77,14.77,0,0,1,8.71-.82,15.5,15.5,0,0,1,2.76.86"/>
        <line class="f" x1="196.53" y1="105.08" x2="213.54" y2="105.08"/>
        <line class="f" x1="196.53" y1="110.59" x2="213.54" y2="110.59"/>
        <g>
          <path class="g" d="M69.06,210.07a10.68,10.68,0,0,0-.55-1.42c-.28-.67-.6-1.32-.94-2a16.67,16.67,0,0,0-1.12-1.84,19.66,19.66,0,0,0-1.27-1.62,23,23,0,0,0-3-3,19.51,19.51,0,0,0-1.71-1.28,18,18,0,0,0-1.84-1.12,17.59,17.59,0,0,0-2-.94c-.72-.28-1.35-.53-2-.75s-1.41-.4-2.13-.55a20.29,20.29,0,0,0-2.21-.33,21.72,21.72,0,0,0-4.56,0,20.66,20.66,0,0,0-2.21.33c-.72.15-1.43.33-2.14.55a19.7,19.7,0,0,0-2,.75v41.06c.67.28,1.34.53,2,.75s1.42.4,2.14.55,1.46.26,2.21.34a21.49,21.49,0,0,0,2.28.11,15.69,15.69,0,0,0,2.28-.11c.75-.11,1.48-.19,2.21-.34s1.43-.33,2.13-.55a18.06,18.06,0,0,0,2-.75,19.25,19.25,0,0,0,2-.94c.63-.34,1.24-.71,1.84-1.11a18.79,18.79,0,0,0,1.71-1.35c.55-.45,1.08-.93,1.58-1.43a14.64,14.64,0,0,0,1.44-1.59,22.4,22.4,0,0,0,2.4-3.55c.34-.63.66-1.28.94-1.95a11.41,11.41,0,0,0,.6-1.6"/>
          <path class="c" d="M63.34,210.07a5.6,5.6,0,0,0-.44-.84c-.27-.48-.55-.94-.85-1.39a15.63,15.63,0,0,0-1-1.31c-.35-.42-.71-.82-1.1-1.21a15.51,15.51,0,0,0-1.2-1.09,14.16,14.16,0,0,0-1.31-1,16.68,16.68,0,0,0-2.88-1.56A14.56,14.56,0,0,0,53,201.1a14.81,14.81,0,0,0-1.62-.42c-.55-.11-1.12-.2-1.69-.26a18.28,18.28,0,0,0-3.47,0c-.57.06-1.13.15-1.68.26a15.6,15.6,0,0,0-1.63.42,14.56,14.56,0,0,0-1.56.57c-.5.21-1.48.71-2,1"/>
          <path class="b" d="M47.85,217.27a7.11,7.11,0,0,1,6.78-7.08v-.11H71.58v14.3H54.63A7.12,7.12,0,0,1,47.85,217.27Z"/>
          <polyline class="c" points="69.09 198.15 90.45 198.15 124.04 231.89"/>
          <line class="c" x1="145.54" y1="249.83" x2="136.8" y2="242.24"/>
          <line class="c" x1="77.96" y1="210.15" x2="54.96" y2="210.15"/>
          <path class="c" d="M55,224.39H78s1.81,16.8,25.06,16.8"/>
          <path class="c" d="M67.71,231s11.87,17,22,18.79c7.87,1.64,10.82,0,10.82,0l2.47,2.85"/>
          <circle class="c" cx="111.23" cy="258.16" r="1.78"/>
          <path class="c" d="M115.56,265.69l21.62-24.15A1.82,1.82,0,0,0,137,239h0l-9.11-8.15a1.8,1.8,0,0,0-2.55.15h0l-23.18,25.86a1.84,1.84,0,0,0,.14,2.57l9.11,8.15A1.8,1.8,0,0,0,113,268"/>
          <path class="c" d="M44.36,190.39v-8.2a1.82,1.82,0,0,0-1.81-1.82H35.18a1.84,1.84,0,0,0-1.83,1.82v70.3a1.83,1.83,0,0,0,1.83,1.8h7.38a1.82,1.82,0,0,0,1.81-1.82v-7.81"/>
          <path class="c" d="M39.41,232c.48.26,1.46.76,2,1a14.56,14.56,0,0,0,1.56.57,15.6,15.6,0,0,0,1.63.42c.55.11,1.11.2,1.68.26a16.77,16.77,0,0,0,3.47,0c.57-.06,1.14-.15,1.69-.26a14.81,14.81,0,0,0,1.62-.42,14.56,14.56,0,0,0,1.56-.57,16.68,16.68,0,0,0,2.88-1.56,14.16,14.16,0,0,0,1.31-1,15.51,15.51,0,0,0,1.2-1.09c.39-.39.75-.79,1.1-1.21s.67-.85,1-1.3a13.39,13.39,0,0,0,.85-1.4,7.77,7.77,0,0,0,.5-1"/>
          <path class="c" d="M55,210.19a7.11,7.11,0,0,0,0,14.22h0"/>
        </g>
        <polyline class="c" points="281.57 203.93 281.57 134.58 286.83 139.85"/>
        <line class="c" x1="281.57" y1="134.58" x2="276.57" y2="139.85"/>
        <line class="c" x1="145.54" y1="293.06" x2="145.54" y2="306.36"/>
        <line class="c" x1="138.9" y1="299.71" x2="152.19" y2="299.71"/>
        <g>
          <path class="c" d="M154.68,216.48v56.64a7.8,7.8,0,0,0,7.8,7.8h96.39"/>
          <polyline class="c" points="166.69 229.54 154.68 216.47 143.27 229.54"/>
          <polyline class="c" points="245.67 268.87 258.87 280.92 245.67 292.19"/>
          <path class="h" d="M206.65,222a6.1,6.1,0,1,1-6.09,6.11h0a6.1,6.1,0,0,1,6.09-6.1m0-1.6a7.7,7.7,0,1,0,7.69,7.71h0a7.69,7.69,0,0,0-7.68-7.7Z"/>
          <path class="h" d="M242,206.43a6.09,6.09,0,1,1-6.09,6.09h0a6.09,6.09,0,0,1,6.09-6.09m0-1.6a7.69,7.69,0,1,0,7.69,7.69,7.69,7.69,0,0,0-7.69-7.69Z"/>
          <path class="h" d="M229.35,231.53a6.1,6.1,0,1,1-6.09,6.11v0a6.09,6.09,0,0,1,6.09-6.09m0-1.6a7.7,7.7,0,1,0,7.69,7.71v0a7.69,7.69,0,0,0-7.69-7.69Z"/>
          <path class="h" d="M187,253.62a6.09,6.09,0,1,1-6.1,6.09,6.09,6.09,0,0,1,6.1-6.09h0m0-1.6a7.69,7.69,0,1,0,7.69,7.69A7.69,7.69,0,0,0,187,252Z"/>
          <line class="c" x1="167.77" y1="270.87" x2="180.66" y2="264.01"/>
          <line class="i" x1="202.84" y1="233.17" x2="191.06" y2="254.51"/>
          <line class="i" x1="213.44" y1="230.1" x2="222.82" y2="234.98"/>
          <line class="i" x1="239.39" y1="218.75" x2="232.54" y2="231.69"/>
        </g>
      </g>
      <g>
        <path class="j" d="M121.05,123s-8.48-4.24-12.24,1.51c-3.08,6,5.84,8,5.84,8s6.79,1.12,6.8,6c0,4.7-5.92,7.49-13.38,4.33"/>
        <line class="j" x1="114.65" y1="117.12" x2="114.65" y2="149.12"/>
      </g>
    </g>
  </g>
</svg>
