<svg xmlns="http://www.w3.org/2000/svg" xmlns:xlink="http://www.w3.org/1999/xlink" viewBox="0 0 600 600">
  <defs>
    <style>
      .a {
        fill: #f6f8fa;
      }

      .b, .e {
        fill: none;
      }

      .b, .e, .f {
        stroke: #231f20;
        stroke-width: 3.21px;
      }

      .b, .f {
        stroke-linecap: round;
        stroke-linejoin: round;
      }

      .c {
        fill: url(#a);
      }

      .d {
        fill: url(#b);
      }

      .e {
        stroke-miterlimit: 10;
      }

      .f {
        fill: #fff2b3;
      }
    </style>
    <linearGradient id="a" x1="-3604.49" y1="496.66" x2="-3604.49" y2="99.68" gradientTransform="matrix(1, 0, 0, -1, 4029.06, 596.34)" gradientUnits="userSpaceOnUse">
      <stop offset="0" stop-color="#fff" stop-opacity="0"/>
      <stop offset="1" stop-color="#fff2b3"/>
    </linearGradient>
    <linearGradient id="b" x1="-3418.77" y1="329.46" x2="-3418.77" y2="146.11" gradientTransform="matrix(1, 0, 0, -1, 3657.63, 475.58)" xlink:href="#a"/>
  </defs>
  <title>Artboard 1 copy 3</title>
  <circle class="a" cx="300.56" cy="328.75" r="271.25"/>
  <g>
    <rect class="b" x="24.23" y="160.75" width="18.6" height="18.6" transform="translate(130.06 26.1) rotate(45)"/>
    <rect class="c" x="323.1" y="99.68" width="202.96" height="396.98" transform="translate(849.16 596.34) rotate(-180)"/>
    <rect class="d" x="154.63" y="146.11" width="168.47" height="183.35" transform="translate(477.72 475.58) rotate(-180)"/>
    <line class="b" x1="529.89" y1="353.55" x2="489.2" y2="353.55"/>
    <line class="b" x1="302.51" y1="366.95" x2="282.17" y2="366.95"/>
    <path class="b" d="M598,322.62H574.56s-7-.8-7-10.24v-94s1.08-6.74-7.54-6.74h-34"/>
    <path class="b" d="M543.57,501.8h17s7-.81,7-10.24v-65s-1.07-6.74,7.55-6.74h22.09"/>
    <polyline class="b" points="220.78 170.05 220.78 101.73 230.87 111.81"/>
    <line class="b" x1="220.78" y1="101.73" x2="211.21" y2="111.81"/>
    <polyline class="b" points="488.94 470 488.94 401.68 499.03 411.76"/>
    <line class="b" x1="488.94" y1="401.68" x2="479.37" y2="411.76"/>
    <polyline class="b" points="139.95 62.67 129.87 52.58 129.87 107.82 110.08 124.09 110.08 233.55"/>
    <line class="b" x1="129.87" y1="52.58" x2="120.3" y2="62.67"/>
    <line class="b" x1="471.49" y1="24.53" x2="471.49" y2="62.67"/>
    <line class="b" x1="387.72" y1="32.19" x2="387.72" y2="57.62"/>
    <line class="b" x1="375" y1="44.91" x2="400.44" y2="44.91"/>
    <line class="b" x1="452.85" y1="457.28" x2="452.85" y2="482.72"/>
    <line class="b" x1="440.13" y1="470" x2="465.56" y2="470"/>
    <circle class="b" cx="67.84" cy="284.34" r="13.76"/>
    <polyline class="b" points="526.06 163.35 526.06 99.68 323.1 99.68 323.1 378.76"/>
    <polyline class="b" points="305.86 146.11 154.63 146.11 154.63 300.72"/>
    <line class="b" x1="463.83" y1="214.09" x2="358.52" y2="214.09"/>
    <line class="b" x1="433.56" y1="236.11" x2="335.06" y2="236.11"/>
    <line class="b" x1="463.83" y1="256.21" x2="335.06" y2="256.21"/>
    <line class="b" x1="463.83" y1="277.75" x2="364.26" y2="277.75"/>
    <line class="b" x1="437.02" y1="305.68" x2="401.36" y2="305.68"/>
    <line class="b" x1="426.49" y1="329.77" x2="323.1" y2="329.77"/>
    <line class="b" x1="397.77" y1="350.51" x2="323.1" y2="350.51"/>
    <line class="b" x1="449.95" y1="375.88" x2="346.87" y2="375.88"/>
    <line class="b" x1="449.95" y1="403.17" x2="378.62" y2="403.17"/>
    <line class="b" x1="305.86" y1="265.31" x2="154.63" y2="265.31"/>
    <line class="b" x1="261.82" y1="284.34" x2="163.21" y2="284.34"/>
    <line class="b" x1="293.76" y1="305.68" x2="219.85" y2="305.68"/>
    <line class="b" x1="302.51" y1="329.77" x2="238.49" y2="329.77"/>
    <line class="b" x1="302.51" y1="353.55" x2="254.12" y2="353.55"/>
    <circle class="b" cx="197.04" cy="207.55" r="6.54"/>
    <circle class="b" cx="362.22" cy="161.15" r="6.54"/>
    <circle class="b" cx="491.98" cy="161.15" r="6.54"/>
    <path class="b" d="M489.2,99.68a36.61,36.61,0,0,0,36.61,36.61"/>
    <path class="b" d="M359.71,99.68a36.61,36.61,0,0,1-36.61,36.61"/>
    <path class="b" d="M191.24,146.11a36.62,36.62,0,0,1-36.61,36.62"/>
    <path class="e" d="M448.16,186.08a28.17,28.17,0,0,1-21.91,0,27.34,27.34,0,0,1-4.79-2.6,28.15,28.15,0,0,1-10.19-12.38,27,27,0,0,1-1.64-5.28,28.05,28.05,0,0,1,0-11.35,27,27,0,0,1,1.64-5.28,27.51,27.51,0,0,1,2.59-4.78,28.14,28.14,0,0,1,3.44-4.17,29.24,29.24,0,0,1,4.16-3.44,28,28,0,0,1,4.79-2.59,28.2,28.2,0,0,1,21.91,0"/>
    <line class="e" x1="403.45" y1="154.94" x2="436" y2="154.94"/>
    <line class="e" x1="403.45" y1="165.47" x2="436" y2="165.47"/>
    <path class="e" d="M260.2,227.35a21,21,0,0,1-4,1.25,21.54,21.54,0,0,1-12.7-1.25,21.37,21.37,0,0,1-6.83-4.61,21.37,21.37,0,0,1-5.86-10.86,21.57,21.57,0,0,1,0-8.67,21.37,21.37,0,0,1,5.86-10.86,22.33,22.33,0,0,1,3.18-2.63,21.75,21.75,0,0,1,3.65-2,22.16,22.16,0,0,1,4-1.25,21.57,21.57,0,0,1,8.67,0,21.68,21.68,0,0,1,4,1.25"/>
    <line class="e" x1="226.07" y1="203.57" x2="250.92" y2="203.57"/>
    <line class="e" x1="226.07" y1="211.61" x2="250.92" y2="211.61"/>
    <g>
      <path class="f" d="M119.87,358.35a37.54,37.54,0,0,0-1.92-5c-1-2.33-2.08-4.6-3.28-6.81s-2.5-4.35-3.9-6.42-2.9-4.08-4.49-6-3.26-3.77-5-5.53-3.61-3.44-5.54-5-3.92-3.09-6-4.49-4.22-2.7-6.43-3.9-4.48-2.29-6.81-3.28-4.72-1.86-7.16-2.62-4.93-1.4-7.46-1.92-5.12-.91-7.74-1.18a79.5,79.5,0,0,0-15.93,0q-3.93.4-7.74,1.18T23,309.28q-3.66,1.14-7.16,2.62V455.48c2.33,1,4.72,1.86,7.16,2.62s4.93,1.4,7.46,1.92,5.12.91,7.74,1.18,5.27.4,8,.4,5.35-.14,8-.4,5.2-.66,7.74-1.18,5-1.16,7.46-1.92,4.83-1.64,7.16-2.62,4.6-2.08,6.81-3.28,4.35-2.51,6.43-3.91,4.07-2.89,6-4.48,3.77-3.27,5.54-5,3.44-3.61,5-5.53,3.09-3.93,4.49-6,2.7-4.22,3.9-6.42S117,416.35,118,414a47.24,47.24,0,0,0,2.12-5.61"/>
      <path class="b" d="M99.87,358.35a19.55,19.55,0,0,0-1.54-2.94c-.91-1.68-1.91-3.31-3-4.89s-2.21-3.1-3.42-4.57-2.48-2.87-3.83-4.21-2.74-2.62-4.21-3.83a56.49,56.49,0,0,0-4.57-3.41c-1.57-1.07-3.21-2.06-4.89-3S71,329.78,69.26,329s-3.6-1.42-5.45-2a59.46,59.46,0,0,0-11.58-2.36,60.75,60.75,0,0,0-6.07-.31c-2,0-4.07.11-6.06.31A59.46,59.46,0,0,0,28.52,327c-1.86.58-3.67,1.25-5.45,2s-5.18,2.49-6.87,3.41"/>
      <path class="a" d="M45.71,383.52a24.85,24.85,0,0,1,23.72-24.81v-.36H128.7v50H71.48c-.31,0-.6.05-.91.05s-.59,0-.9-.05h-.24A24.84,24.84,0,0,1,45.71,383.52Z"/>
      <polyline class="b" points="119.99 316.65 194.66 316.65 312.15 434.63"/>
      <line class="b" x1="387.33" y1="497.36" x2="356.77" y2="470.81"/>
      <line class="b" x1="151.02" y1="358.63" x2="70.57" y2="358.63"/>
      <path class="b" d="M70.57,408.41H151s6.31,58.75,87.62,58.75"/>
      <path class="b" d="M115.18,431.65s41.48,59.41,77,65.71c27.51,5.73,37.84,0,37.84,0l8.63,10"/>
      <circle class="b" cx="267.35" cy="526.49" r="6.22"/>
      <path class="b" d="M282.49,552.83,358,468.37a6.39,6.39,0,0,0-.5-9L325.65,430.9a6.38,6.38,0,0,0-9,.5L235.8,521.85a6.38,6.38,0,0,0,.5,9l31.86,28.48a6.35,6.35,0,0,0,5.41,1.5"/>
      <path class="b" d="M33.53,289.51V260.78a6.38,6.38,0,0,0-6.36-6.36H8.36A6.38,6.38,0,0,0,2,260.78V506.6A6.38,6.38,0,0,0,8.36,513H27.17a6.38,6.38,0,0,0,6.36-6.36V479.27"/>
      <path class="b" d="M16.2,434.94c1.69.91,5.1,2.66,6.87,3.41s3.59,1.42,5.45,2,3.76,1.06,5.69,1.46,3.89.7,5.89.9,4,.3,6.06.3a60.77,60.77,0,0,0,6.07-.3c2-.2,4-.51,5.89-.9s3.83-.88,5.69-1.46,3.67-1.25,5.45-2a57.4,57.4,0,0,0,5.18-2.5,60,60,0,0,0,9.46-6.38q2.2-1.82,4.21-3.83c1.35-1.34,2.62-2.75,3.83-4.21s2.35-3,3.42-4.57,2.06-3.21,3-4.89a26.73,26.73,0,0,0,1.75-3.41"/>
      <path class="b" d="M70.57,358.66a24.87,24.87,0,0,0,0,49.73"/>
    </g>
  </g>
</svg>
