<svg xmlns="http://www.w3.org/2000/svg" viewBox="0 0 328.33 323.03">
  <defs>
    <style>
      .a, .e, .h, .i {
        fill: none;
      }

      .b, .k {
        fill: #f6f8fa;
      }

      .c {
        fill: #feffff;
      }

      .d, .g {
        fill: #c5e2bd;
      }

      .e, .f, .g, .h, .i, .j, .k {
        stroke: #231f20;
      }

      .e, .f, .g, .h, .i, .j {
        stroke-linecap: round;
        stroke-linejoin: round;
      }

      .e, .f, .g, .j, .k {
        stroke-width: 1.6px;
      }

      .f {
        fill: #fff;
      }

      .h {
        stroke-width: 1.3px;
      }

      .j {
        fill: #fff18b;
      }

      .k {
        stroke-miterlimit: 10;
      }
    </style>
  </defs>
  <title>Asset 3</title>
  <g>
    <rect class="a" width="328.33" height="323.03"/>
    <g>
      <circle class="b" cx="162.74" cy="181.3" r="141.73"/>
      <polygon class="c" points="121.58 222.26 125.13 203.49 123.35 203.24 123.35 200.55 130.39 200.25 149.28 200.91 149.64 201.69 147.56 203.63 148.33 216.45 146.27 217.3 145.78 227.43 138.9 228.5 134.25 224.21 128.29 222.26 121.58 222.26"/>
      <circle class="d" cx="248.5" cy="113.47" r="23.17" transform="translate(96.69 340.59) rotate(-80.78)"/>
      <rect class="e" x="171.56" y="155.75" width="5.65" height="9.65"/>
      <rect class="e" x="181.99" y="155.75" width="5.65" height="9.65"/>
      <rect class="e" x="192.52" y="155.75" width="5.65" height="9.65"/>
      <rect class="e" x="203.23" y="155.75" width="5.65" height="9.65"/>
      <rect class="e" x="213.79" y="155.75" width="5.8" height="9.65"/>
      <line class="e" x1="98.48" y1="171.06" x2="151.94" y2="171.06"/>
      <line class="e" x1="158.04" y1="171.06" x2="173.01" y2="171.06"/>
      <line class="e" x1="155.93" y1="165.4" x2="155.93" y2="135.45"/>
      <polyline class="f" points="31.83 164.99 31.83 135.46 96.15 116.97 155.93 135.46 155.93 165.4 137.3 165.4 137.3 144.44 110.75 144.44 110.75 165.4 82.22 164.76 82.22 144.14 55.52 144.14 55.52 164.99 31.83 164.99"/>
      <polygon class="g" points="96.15 116.97 165.53 138.12 165.53 131.24 98.48 109.28 98.48 104.18 94.05 104.18 94.05 109.06 23.73 131.24 23.73 138.12 96.15 116.97"/>
      <line class="e" x1="112.79" y1="146.57" x2="135.41" y2="165.34"/>
      <line class="e" x1="135.41" y1="146.57" x2="112.79" y2="165.34"/>
      <line class="e" x1="57.47" y1="146.57" x2="80.1" y2="165.34"/>
      <line class="e" x1="80.1" y1="146.57" x2="57.47" y2="165.34"/>
      <line class="e" x1="248.5" y1="99.19" x2="248.5" y2="131.06"/>
      <line class="e" x1="237.19" y1="106.14" x2="248.5" y2="114.86"/>
      <line class="e" x1="261.37" y1="116.19" x2="248.5" y2="123.14"/>
      <path class="e" d="M199.38,86.92a3.82,3.82,0,0,0,0,1.58,4,4,0,0,0,.23.74,4.32,4.32,0,0,0,.36.67A4,4,0,0,0,201,91a3.36,3.36,0,0,0,.67.37,4.87,4.87,0,0,0,.74.23,3.87,3.87,0,0,0,1.59,0,4.87,4.87,0,0,0,.74-.23,3.58,3.58,0,0,0,.66-.37,3.87,3.87,0,0,0,.59-.48,3.79,3.79,0,0,0,.48-.58,4.32,4.32,0,0,0,.36-.67,4,4,0,0,0,.23-.74,3.82,3.82,0,0,0,0-1.58"/>
      <path class="e" d="M177.27,93.45a3.87,3.87,0,0,0,0,1.59,4,4,0,0,0,.23.74,4.32,4.32,0,0,0,.36.67,4.55,4.55,0,0,0,.49.58,3.37,3.37,0,0,0,.58.48,4.32,4.32,0,0,0,.67.36,4,4,0,0,0,.74.23,3.82,3.82,0,0,0,1.58,0,4,4,0,0,0,.74-.23,4.32,4.32,0,0,0,.67-.36,3.37,3.37,0,0,0,.58-.48,3.79,3.79,0,0,0,.48-.58,3.36,3.36,0,0,0,.37-.67A5,5,0,0,0,185,95a3.87,3.87,0,0,0,0-1.59"/>
      <path class="e" d="M188.75,103a3.87,3.87,0,0,0,0,1.59,4,4,0,0,0,.23.74,4.32,4.32,0,0,0,.36.67,3.94,3.94,0,0,0,1.73,1.42,4,4,0,0,0,.74.23,3.87,3.87,0,0,0,1.59,0,4,4,0,0,0,.74-.23,4.32,4.32,0,0,0,.67-.36,3.82,3.82,0,0,0,1.06-1.06,4.32,4.32,0,0,0,.36-.67,4,4,0,0,0,.23-.74,3.87,3.87,0,0,0,0-1.59"/>
      <path class="e" d="M158.58,25.91a3.87,3.87,0,0,0,0,1.59,4,4,0,0,0,.23.74,4.32,4.32,0,0,0,.36.67,3.94,3.94,0,0,0,1.73,1.42,4,4,0,0,0,.74.23,3.87,3.87,0,0,0,1.59,0,4,4,0,0,0,.74-.23,4.32,4.32,0,0,0,.67-.36,3.82,3.82,0,0,0,1.06-1.06,4.32,4.32,0,0,0,.36-.67,4,4,0,0,0,.23-.74,3.87,3.87,0,0,0,0-1.59"/>
      <path class="e" d="M230.54,12.09a3.82,3.82,0,0,0,0,1.58,3.88,3.88,0,0,0,1.08,2,3.79,3.79,0,0,0,.58.48,3.36,3.36,0,0,0,.67.37,4,4,0,0,0,.74.23,3.82,3.82,0,0,0,1.58,0,4,4,0,0,0,.74-.23,3.36,3.36,0,0,0,.67-.37,3.87,3.87,0,0,0,.59-.48,3.79,3.79,0,0,0,.48-.58,4.32,4.32,0,0,0,.36-.67,4,4,0,0,0,.23-.74,3.82,3.82,0,0,0,0-1.58"/>
      <path class="e" d="M236.12.8a4.15,4.15,0,0,0-.08.79,4.26,4.26,0,0,0,.08.8,4,4,0,0,0,.23.74,4.22,4.22,0,0,0,.36.66,3.87,3.87,0,0,0,.48.59,3.87,3.87,0,0,0,.59.48,4.32,4.32,0,0,0,.67.36,3.65,3.65,0,0,0,.73.23,4.26,4.26,0,0,0,.8.08,4.15,4.15,0,0,0,.79-.08,4,4,0,0,0,.74-.23,4.32,4.32,0,0,0,.67-.36,3.79,3.79,0,0,0,.58-.48,3.87,3.87,0,0,0,.48-.59,4.28,4.28,0,0,0,.37-.66,3.92,3.92,0,0,0,.22-.74,3.56,3.56,0,0,0,.08-.8,3.47,3.47,0,0,0-.08-.79"/>
      <polyline class="e" points="179.39 239.45 185.71 239.45 185.71 235.68 184.27 235.68 180.61 219.82 157.65 216.05 157.65 201.3 155.21 201.3 155.21 215.72 148.33 214.39 148.33 216.94 145.78 217.38 145.78 227.92 139.57 227.92"/>
      <path class="e" d="M148.33,214.39l-.77-10.76s2.08-.14,2.08-1.94c0-1.25-2.08-1.44-2.08-1.44H124.07a1.63,1.63,0,0,0-1.38,1.58,1.56,1.56,0,0,0,1.3,1.66h1.14l-3.55,18.77"/>
      <line class="e" x1="142.05" y1="239.75" x2="159.87" y2="239.75"/>
      <circle class="e" cx="144.29" cy="190.04" r="2.72"/>
      <circle class="h" cx="150.86" cy="194.12" r="2.08"/>
      <circle class="i" cx="155.38" cy="197.86" r="1.16"/>
      <circle class="e" cx="125.63" cy="238.15" r="6.63"/>
      <circle class="e" cx="169.84" cy="244.07" r="4.32"/>
      <line class="e" x1="120.91" y1="233.49" x2="129.15" y2="243.76"/>
      <line class="e" x1="172.32" y1="247.6" x2="166.55" y2="241.27"/>
      <path class="e" d="M305.9,297.76H284.44l-1.89-14.14s-1.61-11.92-1.61-13.59-.22-9.92-.22-9.92l6.43,7.93,5.22-6.32s-9.38-6.27-10.48-6.82-8.49-5.33-8.49-5.33c-4.66,0-18.74-1.44-18.74-1.44-2.55-.72-14-1.72-15.75-.28-1.33.45-10.93,14.37-11.87,15.36S219.5,273,219.5,273l-4.55.83,3.36,2.24s-1.33,8.16-1.61,11.43.94,6,3.22,5.6,2.35-3.11,3.13-4.85,3.22-5,6.93-9.68a36.43,36.43,0,0,1,8.32-7.74c2-1.55,2.44.2,2.44.2l-.81,8.54a4.1,4.1,0,0,0-.25,3.32l-1.77,14.92H221.83l-1.11-2.27-1.55,3-1.56-4.21-1.1,3.44-1.22-2-1.09,2.77-1.69-7.43-1.44,6.32-1.77-1.66-1.67,1.66-1.33-4.54-2.11,4.54L202.42,296l-1.55,1.83H179.79"/>
      <line class="e" x1="294.07" y1="254.5" x2="305.9" y2="254.5"/>
      <path class="e" d="M103.8,254.5h18.58a17.24,17.24,0,0,1-3-1.28,16.47,16.47,0,0,1-7.2-5.93,16.22,16.22,0,0,1-2.79-9.14,16.47,16.47,0,0,1,.33-3.29,15.74,15.74,0,0,1,1-3.07,16.27,16.27,0,0,1,8.7-8.7,15.65,15.65,0,0,1,3.06-1,16.62,16.62,0,0,1,6.59,0,15.74,15.74,0,0,1,3.07,1,16.25,16.25,0,0,1,8.7,8.7,15.74,15.74,0,0,1,1,3.07,16.47,16.47,0,0,1,.33,3.29,16.64,16.64,0,0,1-.33,3.3,15.65,15.65,0,0,1-1,3.06,16.41,16.41,0,0,1-8.7,8.71,16.38,16.38,0,0,1-2.91,1.28h38.63a11.84,11.84,0,0,1-2-.78,12,12,0,0,1-1.69-.92,10.21,10.21,0,0,1-1.48-1.22,10.78,10.78,0,0,1-1.22-1.48,9.88,9.88,0,0,1-1.5-3.57,10.35,10.35,0,0,1,0-4,10.47,10.47,0,0,1,.58-1.88,10.05,10.05,0,0,1,5.31-5.31,10.47,10.47,0,0,1,1.88-.58,10.35,10.35,0,0,1,4,0,9.88,9.88,0,0,1,3.57,1.5,10.78,10.78,0,0,1,1.48,1.22A10.21,10.21,0,0,1,178,239a12,12,0,0,1,.92,1.69,11.34,11.34,0,0,1,.58,1.88,10.35,10.35,0,0,1,0,4,10.13,10.13,0,0,1-.58,1.87,11.17,11.17,0,0,1-.92,1.7,9.91,9.91,0,0,1-2.7,2.7,11.17,11.17,0,0,1-1.7.92,10.74,10.74,0,0,1-1.89.78h46.61"/>
      <polyline class="e" points="101.42 254.5 69.2 254.5 69.2 234.74"/>
      <polyline class="e" points="66.04 234.74 66.04 254.5 55.73 254.5"/>
      <line class="e" x1="41.53" y1="259.36" x2="60.5" y2="259.36"/>
      <line class="e" x1="63.49" y1="259.36" x2="113.56" y2="259.36"/>
      <path class="e" d="M283.59,165H266l-1.55-2.67-2.55,3.11-2.55-7.65L258,165.4l-1.78-3.83-1.44,3.83h-4.21V136.67c.78-.08,1.92-.32,2.69-.47a20.42,20.42,0,0,0,2.24-.58c.73-.23,1.45-.49,2.16-.79a21.94,21.94,0,0,0,2-1c.67-.37,1.31-.76,1.94-1.18a21.65,21.65,0,0,0,1.8-1.35c.58-.48,1.14-1,1.67-1.51s1-1.09,1.51-1.66a16.67,16.67,0,0,0,1.35-1.81c.42-.62.81-1.27,1.17-1.93s.69-1.35,1-2a17,17,0,0,0,.79-2.15,21.16,21.16,0,0,0,.57-2.25,23,23,0,0,0,.36-2.33,24,24,0,0,0,0-4.79,23,23,0,0,0-.36-2.33c-.15-.76-.35-1.51-.57-2.24s-.5-1.46-.79-2.16a15.55,15.55,0,0,0-1-2c-.37-.62-.75-1.3-1.17-1.93a21.65,21.65,0,0,0-1.35-1.8c-.48-.58-1-1.14-1.51-1.67s-1.09-1-1.67-1.51a17.6,17.6,0,0,0-1.8-1.35,22.17,22.17,0,0,0-1.94-1.17c-.67-.36-1.34-.69-2-1a17.2,17.2,0,0,0-2.16-.79c-.74-.23-1.48-.42-2.24-.58a22.16,22.16,0,0,0-2.33-.35q-1.2-.12-2.4-.12a23.76,23.76,0,0,0-2.39.12c-.79.08-1.57.2-2.33.35a23.12,23.12,0,0,0-4.4,1.37,16.22,16.22,0,0,0-2,1c-.61.37-1.31.75-1.93,1.17a21.81,21.81,0,0,0-1.81,1.35c-.58.48-1.13,1-1.66,1.51a21.67,21.67,0,0,0-1.51,1.67q-.72.87-1.35,1.8c-.42.63-.82,1.27-1.18,1.93a21.94,21.94,0,0,0-1,2c-.3.71-.56,1.43-.79,2.16s-.42,1.48-.58,2.24a23,23,0,0,0-.36,2.33,24,24,0,0,0,0,4.79,23,23,0,0,0,.36,2.33c.16.76.35,1.51.58,2.25a20.31,20.31,0,0,0,1.79,4.15c.36.66.76,1.31,1.18,1.93s.87,1.23,1.35,1.81,1,1.13,1.51,1.66,1.08,1,1.66,1.51a21.81,21.81,0,0,0,1.81,1.35c.62.42,1.27.81,1.93,1.18a21.94,21.94,0,0,0,2,1c.7.3,1.42.56,2.15.79s1.49.42,2.25.58,2,.39,2.76.47v16l-5.1-2.89v2.89l5.1,3.77v9H224.36V156s2.3,0,2.3-2c0-1.83-2.3-1.85-2.3-1.85v-4.22s-.11-1.72-2.33-1.72a2.19,2.19,0,0,0-2.44,1.72V152h-5.8v-4.22a2.19,2.19,0,0,0-2.44-1.72c-2.22,0-2.33,1.72-2.33,1.72V152h-5.83v-4.22a2.19,2.19,0,0,0-2.44-1.72c-2.22,0-2.33,1.72-2.33,1.72V152h-5.83v-4.22a2.2,2.2,0,0,0-2.44-1.72c-2.22,0-2.33,1.72-2.33,1.72V152H182v-4.22a2.2,2.2,0,0,0-2.44-1.72c-2.22,0-2.33,1.72-2.33,1.72V152h-5.66v-4.22a2.19,2.19,0,0,0-2.44-1.72c-2.22,0-2.33,1.72-2.33,1.72V152s-2.3,0-2.3,1.85c0,2,2.3,2,2.3,2v9.48H137.3v-21H110.76v21H82.22V144.14H55.52V165H11.09"/>
      <line class="e" x1="173.01" y1="206.98" x2="283.59" y2="206.98"/>
      <line class="e" x1="24.56" y1="206.98" x2="40.78" y2="206.98"/>
      <line class="e" x1="52.81" y1="254.5" x2="24.56" y2="254.5"/>
      <path class="e" d="M86.06,254.5c-2.38-6.36,3.66-11.05,3.66-11.05s6,4.69,3.66,11.05"/>
      <path class="e" d="M99.34,231.44c-.44-4.33-4.17-7.23-4.17-7.23a12,12,0,0,0-4.1,6.71,7.34,7.34,0,0,0,1.6,5.79l2.5,3.11,2.52-3.13A7.26,7.26,0,0,0,99.34,231.44Z"/>
      <path class="j" d="M72,196.12c-.45-4.33-4.18-7.23-4.18-7.23a12,12,0,0,0-4.1,6.71,7.39,7.39,0,0,0,1.6,5.79l2.5,3.12,2.52-3.14A7.31,7.31,0,0,0,72,196.12Z"/>
      <path class="j" d="M76.81,210c3.13-3,3.12-7.73,3.12-7.73a12,12,0,0,0-7.81.89A7.36,7.36,0,0,0,68.54,208l-.91,3.89h4A7.22,7.22,0,0,0,76.81,210Z"/>
      <path class="j" d="M58.78,210c-3.14-3-3.12-7.73-3.12-7.73a12,12,0,0,1,7.81.89A7.37,7.37,0,0,1,67,208l1,3.9H64A7.24,7.24,0,0,1,58.78,210Z"/>
      <path class="j" d="M76.81,221.34c3.13-3,3.12-7.74,3.12-7.74a12,12,0,0,0-7.81.9,7.37,7.37,0,0,0-3.58,4.83l-.91,3.89,4,.05A7.24,7.24,0,0,0,76.81,221.34Z"/>
      <path class="j" d="M58.78,221.34c-3.14-3-3.12-7.74-3.12-7.74a12,12,0,0,1,7.81.9A7.35,7.35,0,0,1,67,219.33l.92,3.89-4,.05A7.19,7.19,0,0,1,58.78,221.34Z"/>
      <path class="j" d="M76.81,232.66c3.13-3,3.12-7.74,3.12-7.74a12,12,0,0,0-7.81.9,7.34,7.34,0,0,0-3.58,4.83l-.91,3.89,4,.05A7.35,7.35,0,0,0,76.81,232.66Z"/>
      <path class="j" d="M58.78,232.66c-3.14-3-3.12-7.74-3.12-7.74a12,12,0,0,1,7.81.9A7.35,7.35,0,0,1,67,230.65l.92,3.89-4,.05A7.29,7.29,0,0,1,58.78,232.66Z"/>
      <line class="e" x1="95.17" y1="224.21" x2="95.17" y2="234.19"/>
      <line class="e" x1="89.72" y1="243.45" x2="89.72" y2="249.66"/>
      <path class="e" d="M241.5,297.76h9.76l-.78-14.55s-.63-2.07-.19-2.88l-.51-8.8h-4.14L243.75,280s.11,2.55-.66,3.29Z"/>
      <polygon class="e" points="271.88 297.76 281.27 297.76 278.39 280.26 275.8 277.74 271.88 297.76"/>
      <path class="e" d="M254,297.76h15.36l2.53-24.12-2.25-2.55H254v8.37s.89,2.39,0,3.5Z"/>
      <circle class="e" cx="242.98" cy="253.49" r="2.66"/>
      <circle class="e" cx="255.47" cy="262.59" r="4.21"/>
      <circle class="e" cx="270.52" cy="260.48" r="2.77"/>
      <path class="e" d="M266.65,249.6a1.2,1.2,0,0,1-.08.53,3.23,3.23,0,0,1-.14.51,4.09,4.09,0,0,1-.18.49,5.58,5.58,0,0,1-1.14,1.7l-.38.35a3.91,3.91,0,0,1-.41.3,4,4,0,0,1-.44.27l-.47.23-.49.18-.51.13-.53.08h-1.09l-.53-.08-.52-.13-.49-.18c-.16-.07-.31-.15-.46-.23a4,4,0,0,1-.44-.27,3.19,3.19,0,0,1-.42-.3c-.13-.11-.25-.23-.37-.35s-.24-.25-.35-.38-.21-.27-.31-.41a3.91,3.91,0,0,1-.26-.44,5.13,5.13,0,0,1-.41-1,3.18,3.18,0,0,1-.13-.51,4.51,4.51,0,0,1-.08-.53,5,5,0,0,1,0-1.09"/>
      <path class="k" d="M84.29,69.31a14.87,14.87,0,0,0,12.37-3.42,8.38,8.38,0,0,1-1.4-.18,14.88,14.88,0,0,1-7.15-25.89,14.88,14.88,0,0,0-3.82,29.49Z"/>
      <path class="e" d="M24.56,254.5a23.76,23.76,0,1,1,0-47.52"/>
      <path class="e" d="M283.57,165a21,21,0,0,1,0,42"/>
      <path class="e" d="M305.9,254.5a21.63,21.63,0,0,1,0,43.26h0"/>
    </g>
  </g>
</svg>
