<svg xmlns="http://www.w3.org/2000/svg" viewBox="0 0 600 600">
  <defs>
    <style>
      .a {
        fill: #f6f8fa;
      }

      .b {
        fill: #feffff;
      }

      .c, .f {
        fill: #c5e2bd;
      }

      .d {
        fill: none;
      }

      .d, .e, .f, .g {
        stroke: #231f20;
        stroke-linecap: round;
        stroke-linejoin: round;
        stroke-width: 2.74px;
      }

      .e {
        fill: #fff;
      }

      .g {
        fill: #fff18b;
      }
    </style>
  </defs>
  <title>Artboard 1 copy 2</title>
  <circle class="a" cx="297.19" cy="341.02" r="258.98"/>
  <g>
    <polygon class="b" points="221.97 415.87 228.46 381.57 225.22 381.11 225.22 376.2 238.08 375.65 272.58 376.85 273.24 378.28 269.44 381.83 270.86 405.25 267.08 406.8 266.2 425.31 253.62 427.27 245.12 419.43 234.23 415.87 221.97 415.87"/>
    <circle class="c" cx="453.89" cy="217.09" r="42.34"/>
    <rect class="d" x="313.3" y="294.34" width="10.32" height="17.63"/>
    <rect class="d" x="332.35" y="294.34" width="10.32" height="17.63"/>
    <rect class="d" x="351.6" y="294.34" width="10.32" height="17.63"/>
    <rect class="d" x="371.17" y="294.34" width="10.32" height="17.63"/>
    <rect class="d" x="390.46" y="294.34" width="10.6" height="17.63"/>
    <line class="d" x1="179.77" y1="322.31" x2="277.45" y2="322.31"/>
    <line class="d" x1="288.6" y1="322.31" x2="315.95" y2="322.31"/>
    <line class="d" x1="284.74" y1="311.97" x2="284.74" y2="257.26"/>
    <polyline class="e" points="57.98 311.23 57.98 257.26 175.52 223.48 284.75 257.26 284.75 311.97 250.7 311.97 250.7 273.67 202.2 273.67 202.2 311.97 150.05 310.81 150.05 273.13 101.28 273.13 101.28 311.23 57.98 311.23"/>
    <polygon class="f" points="175.52 223.48 302.27 262.12 302.27 249.56 179.77 209.43 179.77 200.11 171.66 200.11 171.66 209.03 43.19 249.56 43.19 262.12 175.52 223.48"/>
    <line class="d" x1="205.91" y1="277.57" x2="247.25" y2="311.87"/>
    <line class="d" x1="247.25" y1="277.57" x2="205.91" y2="311.87"/>
    <line class="d" x1="104.84" y1="277.57" x2="146.18" y2="311.87"/>
    <line class="d" x1="146.18" y1="277.57" x2="104.84" y2="311.87"/>
    <line class="d" x1="453.89" y1="190.99" x2="453.89" y2="249.22"/>
    <line class="d" x1="433.22" y1="203.69" x2="453.89" y2="219.63"/>
    <line class="d" x1="477.4" y1="222.06" x2="453.89" y2="234.76"/>
    <path class="d" d="M364.13,168.56A7,7,0,0,0,364,170a6.86,6.86,0,0,0,.15,1.45,6.49,6.49,0,0,0,.42,1.36,7.19,7.19,0,0,0,.66,1.22,7.1,7.1,0,0,0,3.17,2.6,6.23,6.23,0,0,0,1.35.42,6.86,6.86,0,0,0,1.45.15,7,7,0,0,0,1.45-.15,6.4,6.4,0,0,0,1.35-.42,7.19,7.19,0,0,0,1.22-.66,7.46,7.46,0,0,0,1.94-1.94,7.19,7.19,0,0,0,.66-1.22,6.49,6.49,0,0,0,.42-1.36,6.86,6.86,0,0,0,.15-1.45,7,7,0,0,0-.15-1.45"/>
    <path class="d" d="M323.74,180.51a7.08,7.08,0,0,0,0,2.9,7.22,7.22,0,0,0,1.08,2.57,7.47,7.47,0,0,0,.88,1.07,6.82,6.82,0,0,0,1.06.87,7.33,7.33,0,0,0,1.23.67,7,7,0,0,0,2.8.56,7.75,7.75,0,0,0,1.45-.14,7.83,7.83,0,0,0,1.35-.42,7.48,7.48,0,0,0,2.28-1.54,7.47,7.47,0,0,0,.88-1.07,7.58,7.58,0,0,0,.67-1.22,6.81,6.81,0,0,0,.41-1.35,7.08,7.08,0,0,0,0-2.9"/>
    <path class="d" d="M344.71,197.9a7,7,0,0,0-.15,1.45,6.93,6.93,0,0,0,.15,1.45,7.22,7.22,0,0,0,1.08,2.57,7,7,0,0,0,.88,1.07,8.12,8.12,0,0,0,1.06.88A7.28,7.28,0,0,0,349,206a7.56,7.56,0,0,0,1.35.42,6.93,6.93,0,0,0,1.45.15,7,7,0,0,0,1.45-.15,7.56,7.56,0,0,0,1.35-.42,6.83,6.83,0,0,0,1.22-.66,7.5,7.5,0,0,0,1.06-.88,7,7,0,0,0,.88-1.07,7.58,7.58,0,0,0,.67-1.22,6.81,6.81,0,0,0,.41-1.35,6.93,6.93,0,0,0,.15-1.45,7,7,0,0,0-.15-1.45"/>
    <path class="d" d="M289.58,57.1a7.58,7.58,0,0,0,0,2.9,7.56,7.56,0,0,0,.42,1.35,6.87,6.87,0,0,0,.67,1.22,6.72,6.72,0,0,0,1.94,1.94,6.87,6.87,0,0,0,1.22.67,7.56,7.56,0,0,0,1.35.42,7.58,7.58,0,0,0,2.9,0,7.56,7.56,0,0,0,1.35-.42,7.69,7.69,0,0,0,2.29-1.54,8.21,8.21,0,0,0,.88-1.07A7.22,7.22,0,0,0,303.68,60a7.58,7.58,0,0,0,0-2.9"/>
    <path class="d" d="M421.08,31.84a6.86,6.86,0,0,0-.15,1.45,7,7,0,0,0,.15,1.45,6.4,6.4,0,0,0,.42,1.35,7.31,7.31,0,0,0,2.6,3.16,7.28,7.28,0,0,0,1.23.66,6.23,6.23,0,0,0,1.35.42,6.86,6.86,0,0,0,1.45.15,7,7,0,0,0,1.45-.15,6.4,6.4,0,0,0,1.35-.42,7.17,7.17,0,0,0,3.82-3.82,6.4,6.4,0,0,0,.42-1.35,7,7,0,0,0,.15-1.45,6.86,6.86,0,0,0-.15-1.45"/>
    <path class="d" d="M431.27,11.21a7,7,0,0,0-.15,1.45,6.93,6.93,0,0,0,.15,1.45,6.23,6.23,0,0,0,.42,1.35,7.28,7.28,0,0,0,.66,1.23,7.39,7.39,0,0,0,.88,1.06,6.88,6.88,0,0,0,1.06.88,7.17,7.17,0,0,0,2.58,1.08,7,7,0,0,0,2.89,0,7.17,7.17,0,0,0,2.58-1.08,6.88,6.88,0,0,0,1.06-.88,7.39,7.39,0,0,0,.88-1.06,7.28,7.28,0,0,0,.66-1.23,6.23,6.23,0,0,0,.42-1.35,6.93,6.93,0,0,0,.15-1.45,7,7,0,0,0-.15-1.45"/>
    <polyline class="d" points="327.61 447.28 339.16 447.28 339.16 440.39 336.52 440.39 329.83 411.42 287.89 404.52 287.89 377.57 283.43 377.57 283.43 403.92 270.86 401.49 270.86 406.15 266.2 406.96 266.2 426.21 254.85 426.21"/>
    <path class="d" d="M270.86,401.49l-1.42-19.66s3.8-.26,3.8-3.55c0-2.28-3.8-2.63-3.8-2.63H226.53a3,3,0,0,0-2.53,2.88,2.85,2.85,0,0,0,2.38,3h2.08L222,415.87"/>
    <line class="d" x1="259.38" y1="447.82" x2="291.94" y2="447.82"/>
    <circle class="d" cx="263.47" cy="357" r="4.96"/>
    <circle class="d" cx="275.47" cy="364.45" r="3.8"/>
    <circle class="d" cx="283.73" cy="371.29" r="2.13"/>
    <circle class="d" cx="229.37" cy="444.9" r="12.11"/>
    <circle class="d" cx="310.16" cy="455.71" r="7.89"/>
    <line class="d" x1="220.76" y1="436.39" x2="235.81" y2="455.15"/>
    <line class="d" x1="314.68" y1="462.17" x2="304.16" y2="450.6"/>
    <path class="d" d="M558.76,553.83H519.55L516.1,528s-2.93-21.79-2.93-24.83-.41-18.13-.41-18.13l11.75,14.48L534,488s-17.12-11.45-19.15-12.46-15.5-9.73-15.5-9.73c-8.52,0-34.25-2.63-34.25-2.63-4.66-1.32-25.54-3.14-28.78-.51-2.43.81-20,26.25-21.68,28.07s-13.78,17.78-13.78,17.78L392.59,510l6.13,4.11S396.29,529,395.78,535s1.72,10.89,5.88,10.23,4.3-5.67,5.72-8.86,5.88-9.07,12.67-17.68,11.55-11.3,15.2-14.14,4.46.35,4.46.35l-1.47,15.61a7.48,7.48,0,0,0-.46,6.08l-3.24,27.26H405.15l-2-4.16-2.84,5.47-2.84-7.7-2,6.28-2.23-3.64-2,5.06-3.09-13.58-2.63,11.56-3.25-3-3,3-2.43-8.31-3.85,8.31-3.24-2.64-2.84,3.35h-38.5"/>
    <line class="d" x1="537.16" y1="474.78" x2="558.76" y2="474.78"/>
    <path class="d" d="M189.5,474.78h33.94c-1.94-.4-3.78-1.59-5.56-2.35a30,30,0,0,1-13.15-10.82,29.88,29.88,0,0,1-5.1-16.71,29.77,29.77,0,0,1,5.1-16.7,30.41,30.41,0,0,1,3.65-4.42,29.69,29.69,0,0,1,9.5-6.4,28.67,28.67,0,0,1,5.6-1.74,30.06,30.06,0,0,1,12.05,0,28.67,28.67,0,0,1,5.6,1.74,29.69,29.69,0,0,1,9.5,6.4,30.41,30.41,0,0,1,3.65,4.42,29.92,29.92,0,0,1,4.49,22.72,29.86,29.86,0,0,1-4.49,10.69,29.85,29.85,0,0,1-13.15,10.82c-1.78.76-3.38,1.95-5.32,2.35h70.58a22.36,22.36,0,0,1-3.72-1.44,18.24,18.24,0,0,1-9.7-9.7,18.73,18.73,0,0,1-1.07-3.43,18.44,18.44,0,0,1,0-7.35,18.87,18.87,0,0,1,1.07-3.42,18.17,18.17,0,0,1,3.91-5.8,18,18,0,0,1,5.79-3.91,18,18,0,0,1,3.43-1.06,18.44,18.44,0,0,1,7.35,0,17.87,17.87,0,0,1,3.42,1.06,18.52,18.52,0,0,1,3.1,1.68,18.45,18.45,0,0,1,4.93,4.93,18.52,18.52,0,0,1,1.68,3.1,18.09,18.09,0,0,1,1.06,3.42,18.44,18.44,0,0,1,0,7.35,18,18,0,0,1-1.06,3.43,18.52,18.52,0,0,1-1.68,3.1,19.27,19.27,0,0,1-2.23,2.7,18.53,18.53,0,0,1-2.7,2.22,17.83,17.83,0,0,1-3.1,1.68,19.33,19.33,0,0,1-3.45,1.44h85.16"/>
    <polyline class="d" points="185.14 474.78 126.27 474.78 126.27 438.67"/>
    <polyline class="d" points="120.5 438.67 120.5 474.78 101.65 474.78"/>
    <line class="d" x1="75.71" y1="483.66" x2="110.36" y2="483.66"/>
    <line class="d" x1="115.83" y1="483.66" x2="207.33" y2="483.66"/>
    <path class="d" d="M518,311.16H485.77l-2.83-4.86L478.28,312l-4.66-14-2.44,14-3.24-7-2.63,7h-7.7V259.49c1.44-.15,3.52-.59,4.91-.87s2.77-.64,4.11-1.06,2.65-.9,3.93-1.44a41.49,41.49,0,0,0,3.74-1.8c1.22-.66,2.4-1.38,3.54-2.15s2.24-1.59,3.29-2.46,2.08-1.8,3-2.77,1.9-2,2.77-3,1.69-2.16,2.46-3.3,1.49-2.31,2.15-3.53a42.53,42.53,0,0,0,3.24-7.68c.42-1.34.77-2.71,1.06-4.1s.5-2.81.65-4.25.22-2.9.22-4.38-.08-2.94-.22-4.38-.37-2.86-.65-4.25-.64-2.77-1.06-4.11a41,41,0,0,0-1.44-3.93q-.81-1.92-1.8-3.75c-.66-1.21-1.38-2.39-2.15-3.53s-1.59-2.24-2.46-3.29a44.3,44.3,0,0,0-5.81-5.81c-1.05-.87-2.16-1.69-3.29-2.46s-2.32-1.49-3.54-2.15a41.49,41.49,0,0,0-3.74-1.8,41,41,0,0,0-3.93-1.44c-1.34-.42-2.71-.77-4.11-1.06s-2.81-.5-4.25-.65-2.9-.22-4.38-.22-2.94.08-4.38.22-2.86.37-4.25.65-2.76.64-4.1,1.06a40.17,40.17,0,0,0-3.94,1.44,41.49,41.49,0,0,0-3.74,1.8c-1.22.66-2.39,1.38-3.53,2.15s-2.24,1.59-3.3,2.46-2.07,1.8-3,2.77-1.89,2-2.77,3-1.69,2.15-2.46,3.29-1.49,2.32-2.15,3.53-1.26,2.47-1.8,3.75-1,2.59-1.44,3.93-.77,2.71-1.06,4.11-.5,2.81-.65,4.25-.22,2.9-.22,4.38.08,2.94.22,4.38.37,2.86.65,4.25.64,2.76,1.06,4.1.9,2.66,1.44,3.94a41.49,41.49,0,0,0,1.8,3.74c.66,1.22,1.38,2.39,2.15,3.53s1.59,2.24,2.46,3.3,1.8,2.07,2.77,3,2,1.89,3,2.77,2.16,1.69,3.3,2.46,2.31,1.49,3.53,2.15a41.49,41.49,0,0,0,3.74,1.8c1.28.54,2.59,1,3.94,1.44s2.71.77,4.1,1.06,3.61.72,5.05.87v29.18L441,283.4v5.27l9.32,6.89V312H409.78V294.65s4.21,0,4.21-3.71c0-3.34-4.21-3.39-4.21-3.39v-7.7s-.2-3.14-4.26-3.14-4.45,3.14-4.45,3.14v7.7H390.46v-7.7s-.4-3.14-4.46-3.14-4.25,3.14-4.25,3.14v7.7H371.09v-7.7s-.4-3.14-4.46-3.14-4.25,3.14-4.25,3.14v7.7H351.72v-7.7s-.4-3.14-4.46-3.14-4.25,3.14-4.25,3.14v7.7H332.35v-7.7s-.4-3.14-4.46-3.14-4.25,3.14-4.25,3.14v7.7H313.3v-7.7s-.4-3.14-4.46-3.14-4.25,3.14-4.25,3.14v7.7s-4.21.05-4.21,3.39c0,3.7,4.21,3.71,4.21,3.71V312H250.7v-38.3H202.2V312H150.05V273.13H101.28v38.1H20.08"/>
    <line class="d" x1="315.95" y1="387.94" x2="518" y2="387.94"/>
    <line class="d" x1="44.7" y1="387.94" x2="74.34" y2="387.94"/>
    <line class="d" x1="96.31" y1="474.78" x2="44.7" y2="474.78"/>
    <path class="d" d="M157.07,474.78c-4.35-11.62,6.69-20.2,6.69-20.2s11.05,8.58,6.69,20.2"/>
    <path class="d" d="M181.35,432.63c-.81-7.9-7.63-13.2-7.63-13.2s-6.28,4.88-7.5,12.25a13.48,13.48,0,0,0,2.93,10.58l4.57,5.7,4.6-5.73A13.3,13.3,0,0,0,181.35,432.63Z"/>
    <path class="g" d="M131.34,368.1c-.81-7.91-7.63-13.2-7.63-13.2s-6.27,4.87-7.5,12.25a13.49,13.49,0,0,0,2.93,10.58l4.57,5.7,4.61-5.74A13.31,13.31,0,0,0,131.34,368.1Z"/>
    <path class="g" d="M140.17,393.51c5.73-5.51,5.7-14.14,5.7-14.14s-7.71-1.94-14.27,1.64a13.48,13.48,0,0,0-6.53,8.82l-1.67,7.11,7.35.1A13.31,13.31,0,0,0,140.17,393.51Z"/>
    <path class="g" d="M107.23,393.51c-5.73-5.51-5.71-14.14-5.71-14.14s7.71-1.94,14.28,1.64a13.55,13.55,0,0,1,6.53,8.82l1.67,7.11-7.35.1A13.28,13.28,0,0,1,107.23,393.51Z"/>
    <path class="g" d="M140.17,414.19c5.73-5.51,5.7-14.14,5.7-14.14s-7.71-1.94-14.27,1.64a13.46,13.46,0,0,0-6.53,8.82l-1.67,7.11,7.35.1A13.36,13.36,0,0,0,140.17,414.19Z"/>
    <path class="g" d="M107.23,414.19c-5.73-5.51-5.71-14.14-5.71-14.14s7.71-1.94,14.28,1.64a13.52,13.52,0,0,1,6.53,8.82l1.67,7.11-7.35.1A13.32,13.32,0,0,1,107.23,414.19Z"/>
    <path class="g" d="M140.17,434.87c5.73-5.51,5.7-14.14,5.7-14.14s-7.71-2-14.27,1.64a13.46,13.46,0,0,0-6.53,8.82l-1.67,7.11,7.35.09A13.31,13.31,0,0,0,140.17,434.87Z"/>
    <path class="g" d="M107.23,434.87c-5.73-5.51-5.71-14.14-5.71-14.14s7.71-2,14.28,1.64a13.52,13.52,0,0,1,6.53,8.82L124,438.3l-7.35.09A13.27,13.27,0,0,1,107.23,434.87Z"/>
    <line class="d" x1="173.72" y1="419.43" x2="173.72" y2="437.66"/>
    <line class="d" x1="163.76" y1="454.58" x2="163.76" y2="465.93"/>
    <path class="d" d="M441.09,553.83h17.83l-1.42-26.59s-1.14-3.78-.33-5.26l-.95-16.08h-7.56l-3.45,15.47s.2,4.66-1.22,6Z"/>
    <polygon class="d" points="496.62 553.83 513.77 553.83 508.5 521.84 503.78 517.25 496.62 553.83"/>
    <path class="d" d="M463.92,553.83H492l4.63-44.08-4.12-4.66H463.92v15.3s1.62,4.35,0,6.38Z"/>
    <circle class="d" cx="443.79" cy="472.93" r="4.86"/>
    <circle class="d" cx="466.62" cy="489.55" r="7.7"/>
    <circle class="d" cx="494.12" cy="485.7" r="5.07"/>
    <path class="d" d="M487.05,465.83c0,.32-.09.65-.15,1s-.15.62-.24.93-.21.61-.33.9-.26.57-.41.85-.32.55-.49.81-.36.51-.56.75-.41.47-.63.69a8.47,8.47,0,0,1-.7.63,8.12,8.12,0,0,1-.75.56c-.26.18-.53.34-.8.49a8.48,8.48,0,0,1-.86.41,7.34,7.34,0,0,1-.89.33,7.62,7.62,0,0,1-.94.24,7.83,7.83,0,0,1-1,.15c-.32,0-.66,0-1,0s-.67,0-1,0a7.83,7.83,0,0,1-1-.15,7.62,7.62,0,0,1-.94-.24,7.34,7.34,0,0,1-.89-.33,8.48,8.48,0,0,1-.86-.41c-.27-.15-.54-.31-.8-.49a8.12,8.12,0,0,1-.75-.56c-.24-.2-.48-.41-.7-.63s-.43-.45-.63-.69-.38-.49-.56-.75-.34-.53-.49-.81-.29-.56-.41-.85-.23-.59-.33-.9-.17-.62-.24-.93-.11-.65-.15-1-.05-.67-.05-1,0-.67.05-1"/>
    <circle class="g" cx="132.61" cy="82.82" r="27.2"/>
    <line class="d" x1="132.61" y1="46.81" x2="132.61" y2="37.21"/>
    <line class="d" x1="132.61" y1="128.42" x2="132.61" y2="118.82"/>
    <line class="d" x1="168.62" y1="82.82" x2="178.22" y2="82.82"/>
    <line class="d" x1="87.01" y1="82.82" x2="96.61" y2="82.82"/>
    <line class="d" x1="158.07" y1="57.36" x2="164.86" y2="50.57"/>
    <line class="d" x1="100.37" y1="115.06" x2="107.15" y2="108.27"/>
    <line class="d" x1="107.15" y1="57.36" x2="100.37" y2="50.57"/>
    <line class="d" x1="164.86" y1="115.06" x2="158.07" y2="108.27"/>
    <path class="d" d="M44.7,474.78a43.42,43.42,0,0,1,0-86.84"/>
    <path class="d" d="M518,311.19a38.38,38.38,0,1,1,0,76.75"/>
    <path class="d" d="M558.76,474.78a39.53,39.53,0,1,1,0,79.05"/>
  </g>
</svg>
