<svg xmlns="http://www.w3.org/2000/svg" viewBox="0 0 328.33 323.03">
  <defs>
    <style>
      .a, .c, .f {
        fill: none;
      }

      .b {
        fill: #f6f8fa;
      }

      .c, .e, .g {
        stroke: #231f20;
      }

      .c, .e, .f, .g, .j {
        stroke-linecap: round;
        stroke-linejoin: round;
        stroke-width: 1.59px;
      }

      .d, .g {
        fill: #fff;
      }

      .e {
        fill: #feffff;
      }

      .f, .j {
        stroke: #000;
      }

      .h {
        fill: #c5e2bd;
      }

      .i {
        fill: #cbdcf1;
      }

      .j {
        fill: #e6f4f9;
      }
    </style>
  </defs>
  <title>Asset 5</title>
  <g>
    <rect class="a" width="328.33" height="323.03"/>
    <g>
      <ellipse class="b" cx="163.02" cy="181.3" rx="140.78" ry="141.73"/>
      <g>
        <polyline class="c" points="53.73 199.97 53.73 154.88 138.4 154.88 138.4 189.59"/>
        <line class="c" x1="138.4" y1="163.22" x2="75.19" y2="163.22"/>
        <line class="c" x1="62.51" y1="163.22" x2="53.73" y2="163.22"/>
      </g>
      <g>
        <rect class="d" x="183.86" y="107.75" width="87.55" height="62.96"/>
        <polyline class="c" points="271.41 199.97 271.41 107.75 183.86 107.75 183.86 116.77 183.86 199.97"/>
        <line class="c" x1="271.41" y1="116.77" x2="183.86" y2="116.77"/>
        <line class="c" x1="183.86" y1="126.13" x2="271.41" y2="126.13"/>
        <line class="c" x1="271.41" y1="135.15" x2="183.86" y2="135.15"/>
        <line class="c" x1="183.86" y1="144.67" x2="271.41" y2="144.67"/>
        <line class="c" x1="271.41" y1="152.84" x2="183.86" y2="152.84"/>
        <line class="c" x1="183.86" y1="163.22" x2="271.41" y2="163.22"/>
        <polyline class="c" points="271.41 170.71 208.88 170.71 183.86 170.71"/>
        <g>
          <line class="c" x1="209.05" y1="199.97" x2="209.05" y2="170.71"/>
          <line class="c" x1="214.12" y1="170.71" x2="214.12" y2="199.97"/>
          <line class="c" x1="228.31" y1="170.71" x2="228.31" y2="199.97"/>
          <line class="c" x1="242.35" y1="170.71" x2="242.35" y2="199.97"/>
          <line class="c" x1="248.09" y1="199.97" x2="248.09" y2="170.71"/>
          <line class="c" x1="232.88" y1="183.13" x2="232.88" y2="192.32"/>
          <line class="c" x1="223.5" y1="183.13" x2="223.5" y2="192.32"/>
        </g>
      </g>
      <g>
        <rect class="d" x="161.6" y="126.13" width="9.76" height="35.94"/>
        <line class="c" x1="150.9" y1="126.13" x2="183.86" y2="126.13"/>
        <line class="c" x1="161.6" y1="126.13" x2="161.6" y2="162.07"/>
        <line class="c" x1="171.35" y1="162.07" x2="171.35" y2="126.13"/>
        <line class="c" x1="150.9" y1="162.07" x2="183.86" y2="162.07"/>
      </g>
      <g>
        <polyline class="c" points="150.9 199.97 150.9 59.43 75.19 59.43 75.19 154.71"/>
        <line class="c" x1="150.9" y1="169.01" x2="138.4" y2="169.01"/>
        <g>
          <rect class="e" x="83.47" y="68.28" width="15.88" height="35.22"/>
          <rect class="e" x="105.43" y="68.28" width="13.73" height="35.22"/>
          <rect class="e" x="126.32" y="68.28" width="13.73" height="35.22"/>
          <rect class="e" x="83.47" y="110.3" width="15.88" height="35.22"/>
          <rect class="e" x="105.43" y="110.3" width="13.73" height="35.22"/>
          <rect class="e" x="126.32" y="110.3" width="13.73" height="35.22"/>
        </g>
      </g>
      <line class="f" x1="214.21" y1="92.84" x2="219.79" y2="92.84"/>
      <path class="c" d="M302.14,200a25,25,0,0,1,0,50H248.43"/>
      <line class="c" x1="177.31" y1="250" x2="243.19" y2="250"/>
      <path class="c" d="M285.53,297.62H24.82a23.81,23.81,0,0,1,0-47.62H44.94"/>
      <polyline class="g" points="48.15 199.97 57.61 199.97 60.48 199.97 78.4 199.97 81.1 199.97 111.79 199.97"/>
      <line class="c" x1="143.98" y1="199.97" x2="254.01" y2="199.97"/>
      <line class="c" x1="258.06" y1="199.97" x2="281.72" y2="199.97"/>
      <g>
        <polyline class="c" points="213.98 297.62 219.62 268.65 221.14 297.62"/>
        <polyline class="c" points="252.84 297.62 254.17 268.65 260.06 297.62"/>
        <line class="c" x1="215.57" y1="268.65" x2="258.41" y2="268.65"/>
        <path class="c" d="M223.87,287.92s1.2,1,5.23,1,4.87-1,4.87-1"/>
        <line class="c" x1="225.58" y1="268.65" x2="225.58" y2="288.5"/>
        <line class="c" x1="232.23" y1="288.5" x2="232.23" y2="268.65"/>
        <line class="c" x1="240.86" y1="268.65" x2="240.86" y2="288.5"/>
        <line class="c" x1="247.51" y1="288.5" x2="247.51" y2="268.65"/>
        <path class="c" d="M239.15,287.92s1.2,1,5.22,1,4.88-1,4.88-1"/>
      </g>
      <g>
        <line class="c" x1="159.93" y1="297.24" x2="157.27" y2="290.73"/>
        <line class="c" x1="152.26" y1="290.73" x2="149.54" y2="297.24"/>
        <path class="c" d="M154.76,280.27V242.94a5,5,0,0,0-4-2c-2.69,0-3.62,2.3-3.62,4.82"/>
        <rect class="g" x="152.26" y="280.27" width="5.01" height="10.46"/>
        <ellipse class="c" cx="147.15" cy="249.46" rx="3.12" ry="3.14"/>
        <ellipse class="c" cx="162.34" cy="249.46" rx="3.12" ry="3.14"/>
        <line class="c" x1="144.78" y1="245.81" x2="149.76" y2="245.81"/>
        <line class="c" x1="159.45" y1="245.81" x2="164.85" y2="245.81"/>
        <path class="c" d="M154.76,242.94a4.94,4.94,0,0,1,4-2c2.69,0,3.63,2.3,3.63,4.82"/>
      </g>
      <g>
        <line class="c" x1="172.46" y1="280.97" x2="172.46" y2="291.05"/>
        <line class="c" x1="189.5" y1="280.97" x2="189.5" y2="291.05"/>
        <line class="c" x1="194" y1="283.71" x2="167.51" y2="283.71"/>
        <line class="c" x1="194" y1="287.38" x2="167.51" y2="287.38"/>
        <line class="c" x1="194" y1="291.05" x2="167.51" y2="291.05"/>
        <line class="c" x1="169.67" y1="293.98" x2="192.23" y2="293.98"/>
        <line class="c" x1="192.23" y1="291.05" x2="192.23" y2="297.24"/>
        <line class="c" x1="169.67" y1="291.05" x2="169.67" y2="297.24"/>
      </g>
      <g>
        <line class="c" x1="120.87" y1="280.97" x2="120.87" y2="291.05"/>
        <line class="c" x1="137.92" y1="280.97" x2="137.92" y2="291.05"/>
        <line class="c" x1="142.42" y1="283.71" x2="115.93" y2="283.71"/>
        <line class="c" x1="142.42" y1="287.38" x2="115.93" y2="287.38"/>
        <line class="c" x1="142.42" y1="291.05" x2="115.93" y2="291.05"/>
        <line class="c" x1="118.08" y1="293.98" x2="140.65" y2="293.98"/>
        <line class="c" x1="140.65" y1="291.05" x2="140.65" y2="297.24"/>
        <line class="c" x1="118.08" y1="291.05" x2="118.08" y2="297.24"/>
      </g>
      <g>
        <path class="h" d="M114.36,251.07a10.08,10.08,0,0,0-2.35-6.48,10.12,10.12,0,0,0-5.36-13.22,9.91,9.91,0,0,0-3.44-.78,10,10,0,0,0-9.67-7.44,9.88,9.88,0,0,0-6,2A10,10,0,0,0,73.74,222a10.11,10.11,0,0,0-4.46,6.45,10,10,0,0,0-11.61,8.11,10.2,10.2,0,0,0-.16,1.83,8.65,8.65,0,0,0,.05.88,10.1,10.1,0,0,0-.56,17v.12a10,10,0,0,0,17.48,6.75,10,10,0,0,0,6,2,10,10,0,0,0,11.32,2.9,10,10,0,0,0,13.84-3,10.08,10.08,0,0,0,1.54-4.28A10.1,10.1,0,0,0,114.36,251.07Z"/>
        <path class="c" d="M72,265.78s4.38,3.15,5.58,3.5c0,0,.69,8.42.48,10s-.91,10.05-5.62,11.83"/>
        <path class="c" d="M76.86,293.62a5,5,0,0,0-3.42,3.58"/>
        <path class="c" d="M86.47,293.8a12.19,12.19,0,0,1-3.3-9.5"/>
        <path class="c" d="M91.52,268.37s11.44,6.67,16-7.22c0,0,11.43-5.66,4.67-16.72,0,0,2.71-13.16-8.78-14.21,0,0-4.67-10.31-15.19-5.47,0,0-12.12-11.46-19.3,3.29,0,0-11.28-.49-11.7,11,0,0-9.75,7.78-.83,17.18,0,0,1.8,17.88,19.18,7.36,0,0,2.62,2,5.06,1.41a8.49,8.49,0,0,0,10.86,3.36c-3.47,2.18-4.59,4.49-5,9.75s2,13.82,4.6,15.5a5,5,0,0,1,2.58,4"/>
        <path class="c" d="M61.08,239.9A9.18,9.18,0,0,1,69,232.25"/>
        <path class="c" d="M109.08,246.7s2.65,7.08-3.34,10.8"/>
      </g>
      <g>
        <ellipse class="c" cx="66.49" cy="292.28" rx="5.25" ry="5.29"/>
        <ellipse class="c" cx="49.32" cy="292.28" rx="5.25" ry="5.29"/>
        <ellipse class="g" cx="66.54" cy="291.91" rx="1.46" ry="1.47"/>
        <ellipse class="g" cx="49.32" cy="291.91" rx="1.46" ry="1.47"/>
        <path class="c" d="M50.78,282.66s-2.32-1.58,0-2.39H55l-5.63,10.17"/>
        <polyline class="c" points="52.13 285.36 63.11 285.36 66.54 290.44"/>
        <ellipse class="c" cx="58.19" cy="291.72" rx="1.6" ry="1.61"/>
        <line class="c" x1="64.82" y1="280.27" x2="59.16" y2="290.44"/>
        <line class="c" x1="53.41" y1="285.36" x2="56.89" y2="290.79"/>
        <line class="c" x1="67.01" y1="280.27" x2="61.24" y2="280.27"/>
        <line class="c" x1="65.36" y1="292.77" x2="59.33" y2="292.77"/>
      </g>
      <g>
        <polygon class="i" points="210.57 232.81 227.48 226.95 238.82 216.56 257.17 216.8 268.82 220.9 276.9 227.54 276.9 240.81 272.4 240.82 268.2 238.68 264 240.84 229.9 240.92 225.27 238.68 220.42 240.95 210.73 240.97 210.57 232.81"/>
        <path class="c" d="M216.65,244.07h-6.08V232.81l17.4-6.46s6.6-7.92,11.33-9.79h17.88s14.11,3.07,19.68,11v16.51h-1.6"/>
        <polyline class="c" points="276.9 228.81 273.45 230.3 275.18 235.54 276.9 235.54"/>
        <ellipse class="c" cx="225.27" cy="243.96" rx="5.23" ry="5.27"/>
        <ellipse class="c" cx="268.2" cy="243.96" rx="5.23" ry="5.27"/>
        <line class="c" x1="210.57" y1="240.81" x2="220.79" y2="240.81"/>
        <line class="c" x1="229.47" y1="240.81" x2="264" y2="240.81"/>
        <line class="c" x1="272.4" y1="240.81" x2="276.9" y2="240.81"/>
        <line class="c" x1="232.62" y1="244.04" x2="259.41" y2="244.04"/>
        <line class="c" x1="237.02" y1="232.17" x2="242.35" y2="232.17"/>
        <line class="c" x1="245.64" y1="232.17" x2="251.31" y2="232.17"/>
        <polyline class="c" points="210.57 235.54 216.4 235.54 217.75 233.49 217.75 230.3"/>
        <path class="g" d="M249.94,220.9l-1.47,6.89H268.2S264.9,220.9,249.94,220.9Z"/>
        <path class="g" d="M243.74,227.79l1.4-6.89H240.4s-6.17,3.83-6.17,6.89Z"/>
      </g>
      <g>
        <line class="c" x1="161.6" y1="199.97" x2="161.6" y2="189.51"/>
        <polyline class="c" points="160.2 183.13 160.2 177.43 162.74 177.43"/>
        <rect class="c" x="155.72" y="181.43" width="12.93" height="8.08"/>
      </g>
      <g>
        <ellipse class="h" cx="68.83" cy="171.32" rx="10.03" ry="10.1"/>
        <line class="c" x1="69.36" y1="199.97" x2="69.36" y2="166.11"/>
        <polyline class="c" points="63.02 169.01 69.36 174.62 75.19 169.77"/>
        <ellipse class="c" cx="68.58" cy="171.35" rx="10.01" ry="10.08"/>
      </g>
      <g>
        <ellipse class="h" cx="90.06" cy="176.41" rx="8.19" ry="8.25"/>
        <line class="c" x1="89.39" y1="171.81" x2="89.39" y2="199.97"/>
        <line class="c" x1="94.04" y1="175.56" x2="89.39" y2="180.28"/>
        <line class="c" x1="84.74" y1="175.56" x2="89.39" y2="179.9"/>
        <ellipse class="c" cx="90.06" cy="176.41" rx="8.19" ry="8.25"/>
      </g>
      <g>
        <ellipse class="h" cx="286.03" cy="176.24" rx="8.19" ry="8.25"/>
        <polyline class="c" points="285.52 171.73 285.52 199.97 302.14 199.97"/>
        <polyline class="c" points="280.97 175.73 285.52 180.15 290.51 175.22"/>
        <ellipse class="c" cx="286.03" cy="176.24" rx="8.19" ry="8.25"/>
      </g>
      <g>
        <line class="c" x1="120.42" y1="199.97" x2="126.06" y2="199.97"/>
        <line class="c" x1="128.93" y1="199.97" x2="131.69" y2="199.97"/>
        <ellipse class="c" cx="116.1" cy="195.65" rx="6.1" ry="6.14"/>
        <ellipse class="c" cx="136.01" cy="195.65" rx="6.1" ry="6.14"/>
        <ellipse class="g" cx="116.05" cy="195.21" rx="1.69" ry="1.7"/>
        <ellipse class="g" cx="136.01" cy="195.21" rx="1.69" ry="1.7"/>
        <path class="c" d="M134.31,184.49s2.69-1.83,0-2.77h-4.8L136,193.51"/>
        <polyline class="c" points="132.75 187.62 120.02 187.62 116.05 193.51"/>
        <ellipse class="c" cx="125.72" cy="195" rx="1.86" ry="1.87"/>
        <line class="c" x1="118.03" y1="181.72" x2="124.6" y2="193.51"/>
        <line class="c" x1="131.25" y1="187.62" x2="127.24" y2="193.92"/>
        <line class="c" x1="115.5" y1="181.72" x2="122.2" y2="181.72"/>
        <line class="c" x1="117.41" y1="196.21" x2="124.4" y2="196.21"/>
      </g>
      <line class="f" x1="180.23" y1="70.25" x2="208.63" y2="70.25"/>
      <line class="f" x1="185.43" y1="75.99" x2="214.21" y2="75.99"/>
      <line class="f" x1="100.42" y1="41.71" x2="128.82" y2="41.71"/>
      <path class="j" d="M253.12,27.23s-3.42-5.36-9.25-5.36a11.56,11.56,0,0,0-11.16,11.2s-.47,9.91,7.73,11.49h39.93s3.05-.39,3.05-3.19a3.64,3.64,0,0,0-3.4-3.88,3,3,0,0,0-.52,0,5.74,5.74,0,0,0-2.82.59s-.43-6.63-5.5-6.63a7.45,7.45,0,0,0-5,1.78S263.3,22.17,253.12,27.23Z"/>
      <path class="j" d="M38.4,88.85s2.78-4.36,7.52-4.36A9.39,9.39,0,0,1,55,93.61s.38,8.06-6.28,9.33H16.27s-2.47-.31-2.47-2.59a3,3,0,0,1,2.8-3.17,2.16,2.16,0,0,1,.36,0,4.61,4.61,0,0,1,2.27.48s.36-5.39,4.48-5.39a6,6,0,0,1,4,1.45S30.18,84.73,38.4,88.85Z"/>
      <path class="f" d="M253.05,71.4c2.29,0,2.29,2.59,4.58,2.59s2.29-2.59,4.58-2.59S264.5,74,266.79,74s2.29-2.59,4.58-2.59S273.66,74,276,74s2.29-2.59,4.59-2.59S282.83,74,285.13,74"/>
      <path class="f" d="M54.74,68.23c-2.29,0-2.29-2.59-4.58-2.59s-2.29,2.59-4.58,2.59S43.29,65.64,41,65.64s-2.29,2.59-4.58,2.59-2.27-2.59-4.59-2.59-2.28,2.59-4.57,2.59-2.3-2.59-4.59-2.59"/>
      <ellipse class="f" cx="209.05" cy="57.07" rx="3.14" ry="3.16"/>
      <ellipse class="f" cx="58.12" cy="114.1" rx="3.14" ry="3.16"/>
    </g>
  </g>
</svg>
